<svg xmlns="http://www.w3.org/2000/svg" xmlns:xlink="http://www.w3.org/1999/xlink" width="1080" zoomAndPan="magnify" viewBox="0 0 810 809.999993" height="1080" preserveAspectRatio="xMidYMid meet" version="1.0"><defs><clipPath id="025474147f"><path d="M 405 0 C 181.324219 0 0 181.324219 0 405 C 0 628.675781 181.324219 810 405 810 C 628.675781 810 810 628.675781 810 405 C 810 181.324219 628.675781 0 405 0 Z M 405 0 " clip-rule="nonzero"/></clipPath><clipPath id="4cce234938"><path d="M 20.578125 733 L 28 733 L 28 737 L 20.578125 737 Z M 20.578125 733 " clip-rule="nonzero"/></clipPath><clipPath id="69b5877330"><path d="M 26 754 L 28 754 L 28 756.761719 L 26 756.761719 Z M 26 754 " clip-rule="nonzero"/></clipPath><clipPath id="a2b57ac5df"><path d="M 173 111 L 668.578125 111 L 668.578125 681 L 173 681 Z M 173 111 " clip-rule="nonzero"/></clipPath></defs><g clip-path="url(#025474147f)"><path stroke-linecap="butt" transform="matrix(0.75, 0, 0, 0.75, 0.0000035, 0.00002)" fill="none" stroke-linejoin="miter" d="M 540.000023 -0.0000266667 C 241.765632 -0.0000266667 -0.00000466667 241.76561 -0.00000466667 540.000001 C -0.00000466667 838.234391 241.765632 1080.000028 540.000023 1080.000028 C 838.234413 1080.000028 1080.00005 838.234391 1080.00005 540.000001 C 1080.00005 241.76561 838.234413 -0.0000266667 540.000023 -0.0000266667 Z M 540.000023 -0.0000266667 " stroke="#ffffff" stroke-width="16" stroke-opacity="1" stroke-miterlimit="4"/></g><g clip-path="url(#4cce234938)"><path fill="#ffffff" d="M 20.648438 734.285156 C 20.722656 735.085938 20.804688 735.882812 20.90625 736.675781 C 24.484375 734.789062 27.675781 734.113281 27.675781 734.113281 C 25.617188 733.003906 22.894531 733.496094 20.648438 734.285156 " fill-opacity="1" fill-rule="nonzero"/></g><g clip-path="url(#69b5877330)"><path fill="#ffffff" d="M 26.441406 755.316406 C 26.675781 755.800781 26.910156 756.277344 27.15625 756.753906 C 26.890625 755.578125 26.789062 754.820312 26.789062 754.820312 C 26.703125 754.925781 26.582031 755.105469 26.441406 755.316406 " fill-opacity="1" fill-rule="nonzero"/></g><path fill="#ffffff" d="M 23.195312 747.105469 C 23.457031 747.949219 23.738281 748.777344 24.039062 749.597656 C 25.019531 746.632812 26.058594 744.257812 26.058594 744.257812 C 24.902344 744.683594 23.933594 745.867188 23.195312 747.105469 " fill-opacity="1" fill-rule="nonzero"/><g clip-path="url(#a2b57ac5df)"><path fill="#ffffff" d="M 610.515625 270.113281 L 601.628906 257.714844 C 600.226562 255.75 597.710938 254.921875 595.40625 255.65625 C 593.105469 256.398438 591.542969 258.539062 591.542969 260.957031 L 591.542969 271.171875 C 583.421875 271.351562 568.175781 271.664062 559.667969 271.746094 L 553.972656 260.566406 C 552.960938 258.574219 550.84375 257.378906 548.617188 257.539062 C 546.382812 257.699219 544.464844 259.183594 543.746094 261.304688 L 540.097656 272.039062 C 528.089844 272.996094 490.433594 276.882812 464.367188 289.390625 C 462.851562 290.117188 461.742188 291.496094 461.355469 293.140625 C 460.972656 294.78125 461.351562 296.507812 462.394531 297.835938 C 463.917969 299.789062 464.792969 302.132812 464.921875 304.621094 C 465 306.117188 465.675781 307.523438 466.804688 308.511719 C 467.929688 309.503906 469.410156 309.996094 470.90625 309.882812 C 493.03125 308.171875 567.816406 305.855469 601.414062 348.011719 C 619.40625 370.585938 623.09375 402.933594 612.433594 444.277344 C 604.394531 431.558594 590.320312 411.417969 576.671875 402.25 L 583.289062 382.628906 C 584.132812 380.125 583.097656 377.371094 580.816406 376.042969 C 578.53125 374.710938 575.625 375.171875 573.863281 377.144531 L 561.304688 391.183594 C 551.652344 379.539062 527.269531 351.664062 507.324219 341.757812 L 510.890625 328.613281 C 511.574219 326.105469 510.417969 323.449219 508.109375 322.238281 C 505.804688 321.019531 502.960938 321.570312 501.277344 323.554688 L 492.5 333.902344 C 486.636719 329.792969 475.511719 322.203125 464.367188 315.769531 C 462.65625 314.785156 460.550781 314.777344 458.835938 315.75 C 456.992188 316.796875 454.992188 317.332031 452.886719 317.332031 C 450.015625 317.332031 447.21875 316.289062 445.03125 314.40625 C 443.71875 313.277344 441.964844 312.824219 440.273438 313.171875 C 438.582031 313.523438 437.148438 314.636719 436.390625 316.191406 C 398.855469 393.363281 388.582031 487.050781 386.570312 552.058594 C 384.832031 608.335938 388.816406 653.476562 390.511719 669.511719 L 341.007812 669.511719 C 338.570312 534.960938 391.96875 392.519531 424.316406 319.019531 C 424.921875 317.644531 424.945312 316.082031 424.382812 314.691406 C 423.820312 313.296875 422.714844 312.191406 421.328125 311.621094 C 420.402344 311.246094 419.503906 310.730469 418.65625 310.097656 C 418.265625 309.808594 417.84375 309.570312 417.402344 309.390625 C 417.203125 308.976562 416.949219 308.582031 416.640625 308.210938 C 414.808594 306.039062 413.800781 303.28125 413.800781 300.449219 C 413.800781 299.339844 413.964844 298.214844 414.285156 297.09375 C 414.550781 296.179688 414.566406 295.238281 414.371094 294.355469 C 415.210938 294.015625 415.976562 293.472656 416.578125 292.746094 C 418.210938 290.777344 420.484375 289.359375 422.984375 288.738281 C 424.457031 288.378906 425.71875 287.429688 426.480469 286.113281 C 427.234375 284.804688 427.421875 283.238281 427 281.777344 C 426.671875 280.660156 426.507812 279.523438 426.507812 278.394531 C 426.507812 277.085938 426.730469 275.765625 427.175781 274.472656 C 427.511719 273.492188 427.570312 272.4375 427.339844 271.429688 C 422.523438 250.191406 415.5 223.78125 408.058594 211.113281 L 416.371094 203.011719 C 418.273438 201.152344 418.597656 198.207031 417.140625 195.980469 C 415.6875 193.753906 412.859375 192.871094 410.394531 193.863281 L 400.121094 198.027344 C 393.398438 185.738281 381.785156 166.164062 371.636719 157.378906 L 375.808594 153.0625 C 377.523438 151.289062 377.863281 148.597656 376.648438 146.453125 C 375.433594 144.304688 372.945312 143.214844 370.546875 143.773438 L 358.484375 146.574219 C 354.121094 141.726562 344.050781 131.046875 332.777344 122.671875 C 345.03125 122.75 361.804688 123.8125 378.996094 127.828125 C 422.582031 138.019531 447.859375 161.574219 454.121094 197.839844 C 459.507812 229.011719 457.632812 252.429688 448.699219 265.554688 C 447.429688 267.425781 447.414062 269.871094 448.660156 271.753906 C 449.476562 272.996094 450.054688 274.359375 450.371094 275.820312 C 450.839844 277.96875 452.53125 279.648438 454.691406 280.085938 L 459.699219 281.113281 C 461.679688 281.519531 463.730469 280.824219 465.050781 279.285156 C 485.042969 255.949219 525.558594 217.152344 572.167969 219.496094 C 600.449219 220.921875 627.054688 237.648438 651.371094 269.269531 C 641.171875 269.0625 625.605469 269.03125 610.515625 270.113281 Z M 355.246094 267.246094 L 357.597656 261.703125 C 358.566406 259.425781 357.90625 256.777344 355.980469 255.214844 C 354.054688 253.652344 351.324219 253.550781 349.289062 254.96875 L 336.375 263.976562 C 330.949219 262.023438 319.234375 258.140625 308.949219 256.910156 L 317.003906 243.117188 C 318.375 240.773438 317.851562 237.785156 315.769531 236.042969 C 313.683594 234.300781 310.648438 234.316406 308.585938 236.082031 L 285.921875 255.4375 C 275.496094 255.71875 228.378906 257.082031 196.972656 260.292969 C 219.757812 241.820312 267.40625 208.726562 314.371094 210.707031 C 339.5 211.769531 361.417969 222.894531 379.523438 243.773438 C 397.9375 269.183594 404.152344 281.949219 406.191406 288.050781 C 394.648438 282.554688 372.578125 272.484375 355.246094 267.246094 Z M 326.871094 337.785156 L 316.835938 322.660156 C 315.480469 320.613281 312.941406 319.695312 310.59375 320.410156 C 308.242188 321.113281 306.632812 323.28125 306.632812 325.738281 L 306.632812 356.890625 C 299.863281 359.886719 285.398438 367.339844 276.890625 379.386719 L 269.183594 368.742188 C 267.765625 366.785156 265.253906 365.96875 262.960938 366.710938 C 260.664062 367.457031 259.109375 369.59375 259.109375 372.007812 L 259.109375 395.710938 C 254.605469 399.5 244.050781 408.96875 236.5625 420.273438 C 234.054688 393.769531 235.664062 345.574219 274.277344 318.925781 C 292.792969 306.152344 314.585938 301.878906 335.457031 301.878906 C 357.9375 301.878906 379.347656 306.835938 394.429688 311.464844 C 373.925781 314.792969 345.3125 322.074219 326.871094 337.785156 Z M 572.726562 208.378906 C 524.234375 205.9375 482.820312 242.652344 460.390625 267.707031 C 468.984375 251.757812 470.566406 227.652344 465.089844 195.9375 C 458.09375 155.4375 429.199219 128.132812 381.53125 116.988281 C 346.375 108.773438 313.773438 112.1875 312.398438 112.34375 C 309.800781 112.625 307.746094 114.679688 307.46875 117.285156 C 307.195312 119.886719 308.769531 122.335938 311.253906 123.15625 C 328.867188 128.996094 352.027344 156.082031 352.261719 156.355469 C 353.503906 157.820312 355.40625 158.53125 357.292969 158.265625 C 357.269531 158.882812 357.351562 159.515625 357.542969 160.128906 C 358.164062 162.078125 359.789062 163.53125 361.800781 163.910156 C 366.539062 165.113281 380.964844 185.554688 392.664062 207.664062 C 393.253906 208.773438 394.175781 209.617188 395.246094 210.109375 C 395.171875 211.519531 395.625 212.953125 396.625 214.089844 C 401.855469 220.03125 409.136719 241.804688 416.160156 272.457031 C 415.640625 274.410156 415.375 276.402344 415.375 278.394531 C 415.375 278.851562 415.386719 279.300781 415.414062 279.75 C 415.273438 279.824219 415.128906 279.898438 414.988281 279.972656 C 410.570312 269.722656 401.664062 255.339844 388.394531 237.046875 C 388.300781 236.917969 388.203125 236.796875 388.101562 236.675781 C 367.878906 213.265625 343.230469 200.785156 314.839844 199.589844 C 245.449219 196.65625 178.230469 261.570312 175.402344 264.335938 C 173.644531 266.050781 173.222656 268.722656 174.363281 270.894531 C 175.503906 273.070312 177.9375 274.242188 180.347656 273.777344 C 207.761719 268.46875 287.363281 266.539062 288.164062 266.519531 C 289.445312 266.492188 290.675781 266.019531 291.648438 265.191406 L 293.828125 263.328125 C 293.964844 264.117188 294.269531 264.878906 294.742188 265.5625 C 295.984375 267.339844 298.144531 268.234375 300.277344 267.859375 C 307.949219 266.503906 325.75 271.765625 335.164062 275.398438 C 336.890625 276.066406 338.835938 275.835938 340.355469 274.777344 L 342.574219 273.226562 C 342.605469 273.289062 342.632812 273.351562 342.667969 273.417969 C 343.402344 274.875 344.738281 275.945312 346.324219 276.328125 C 363.953125 280.625 391.617188 293.417969 402.734375 298.742188 C 402.691406 299.308594 402.671875 299.878906 402.671875 300.449219 C 402.671875 301.117188 402.699219 301.777344 402.757812 302.433594 C 373.222656 292.71875 312.609375 278.957031 267.957031 309.769531 C 242.476562 327.347656 227.621094 355.839844 224.992188 392.160156 C 223.035156 419.175781 228.441406 440.8125 228.671875 441.714844 C 229.335938 444.316406 231.753906 446.078125 234.421875 445.898438 C 237.097656 445.726562 239.269531 443.675781 239.589844 441.015625 C 241.339844 426.582031 260.769531 408.480469 268.105469 402.730469 C 269.453125 401.671875 270.242188 400.054688 270.242188 398.34375 L 270.242188 389.183594 L 273.054688 393.070312 C 274.257812 394.726562 276.273438 395.589844 278.300781 395.316406 C 280.328125 395.046875 282.046875 393.683594 282.769531 391.769531 C 289.015625 375.203125 313.859375 365.933594 314.101562 365.84375 C 316.300781 365.042969 317.765625 362.957031 317.765625 360.617188 L 317.765625 344.195312 L 321.253906 349.457031 C 322.195312 350.875 323.730469 351.785156 325.425781 351.929688 C 327.121094 352.070312 328.789062 351.429688 329.949219 350.1875 C 350.425781 328.367188 395.339844 322.070312 411.539062 320.472656 C 378.183594 397.410156 326.046875 540.472656 330.007812 675.242188 C 330.097656 678.246094 332.5625 680.640625 335.574219 680.640625 L 396.746094 680.640625 C 398.347656 680.640625 399.871094 679.953125 400.925781 678.746094 C 401.984375 677.546875 402.46875 675.949219 402.261719 674.355469 C 402.195312 673.839844 395.542969 621.640625 397.703125 552.203125 C 399.644531 489.894531 409.273438 400.859375 443.773438 326.589844 C 449.246094 328.929688 455.691406 329.0625 461.300781 326.875 C 475.8125 335.480469 490.011719 345.785156 490.160156 345.898438 C 491.71875 347.027344 493.675781 347.242188 495.371094 346.613281 C 495.882812 348.234375 497.117188 349.597656 498.828125 350.203125 C 517.382812 356.761719 546.90625 390.6875 556.714844 403.199219 C 557.734375 404.5 559.273438 405.277344 560.917969 405.332031 C 562.179688 405.371094 563.417969 404.980469 564.414062 404.238281 C 564.207031 406.488281 565.386719 408.699219 567.488281 409.742188 C 582.71875 417.277344 602.90625 449.1875 609.398438 460.851562 C 610.480469 462.792969 612.621094 463.90625 614.832031 463.679688 C 617.046875 463.445312 618.910156 461.921875 619.574219 459.796875 C 635.46875 408.832031 632.285156 368.886719 610.113281 341.074219 C 575.40625 297.523438 503.273438 296.863281 475.054688 298.449219 C 474.914062 297.976562 474.75 297.507812 474.578125 297.046875 C 503.3125 285.328125 544.058594 282.910156 544.496094 282.886719 C 546.757812 282.757812 548.722656 281.269531 549.453125 279.117188 L 550.042969 277.378906 L 551.308594 279.855469 C 552.257812 281.71875 554.171875 282.894531 556.265625 282.894531 C 565.882812 282.894531 595.960938 282.207031 597.234375 282.183594 C 599.773438 282.125 601.878906 280.371094 602.492188 278.03125 L 603.292969 279.148438 C 604.433594 280.738281 606.324219 281.613281 608.277344 281.453125 C 633.371094 279.371094 662.03125 280.738281 662.316406 280.753906 C 664.441406 280.859375 666.429688 279.746094 667.460938 277.890625 C 668.488281 276.035156 668.367188 273.757812 667.160156 272.011719 C 639.003906 231.527344 607.226562 210.121094 572.726562 208.378906 " fill-opacity="1" fill-rule="nonzero"/></g></svg>