<?xml version="1.0" encoding="utf-8"?>
<!-- Generator: Adobe Illustrator 26.4.1, SVG Export Plug-In . SVG Version: 6.00 Build 0)  -->
<svg version="1.1" id="Layer_1" xmlns="http://www.w3.org/2000/svg" xmlns:xlink="http://www.w3.org/1999/xlink" x="0px" y="0px"
	 viewBox="0 0 1080 1080" style="enable-background:new 0 0 1080 1080;" xml:space="preserve">
<style type="text/css">
	.st0{clip-path:url(#SVGID_00000147926689951076351400000017219152458370191783_);}
	.st1{fill:none;stroke:#FFFFFF;stroke-width:16;}
	.st2{fill:#FFFFFF;}
</style>
<g>
	<defs>
		<circle id="SVGID_1_" cx="540" cy="540" r="540"/>
	</defs>
	<clipPath id="SVGID_00000111889717175351218830000007392258547224804767_">
		<use xlink:href="#SVGID_1_"  style="overflow:visible;"/>
	</clipPath>
	<g style="clip-path:url(#SVGID_00000111889717175351218830000007392258547224804767_);">
		<path class="st1" d="M540,0C241.8,0,0,241.8,0,540s241.8,540,540,540s540-241.8,540-540S838.2,0,540,0z"/>
	</g>
</g>
<path class="st2" d="M662.8,415c-5.3,0-9.6-4.3-9.6-9.6c0-60.6-45.6-104.6-50.8-109.4c-1.7-1.6-5.1-1.8-7.2-0.5
	c-60.8,36.4-76.3,92.8-76.5,93.4c-1.4,5.1-6.6,8.2-11.7,6.8c-5.1-1.3-8.2-6.6-6.8-11.7c0.7-2.6,17.4-64.4,85.2-105
	c9.5-5.7,22.2-4.5,30.1,2.9c9.5,8.8,57,56.2,57,123.5C672.4,410.7,668.1,415,662.8,415L662.8,415z"/>
<path class="st2" d="M690.8,712.8c-20.7,0-43.2-4.2-67.5-12.6c-5-1.7-7.7-7.2-5.9-12.2c1.7-5,7.2-7.6,12.2-5.9
	c45.3,15.7,83.3,15.4,112.9-1c40.6-22.5,56.8-69.7,62.8-95.8c0.4-1.9-0.4-3.3-0.9-3.9c-0.5-0.6-1.6-1.7-3.5-1.7c-0.9,0-1.8,0-2.6,0
	c-83.7,0-126.1,20-147.1,36.8c-22.1,17.8-25,35.3-25.1,36.1c-0.7,5.2-5.5,8.9-10.7,8.2c-5.2-0.7-9-5.5-8.3-10.8
	c0.5-3.7,13.6-89.5,191.2-89.5c0.9,0,1.8,0,2.8,0c7.2,0,14,3.3,18.5,9c4.5,5.7,6.2,13,4.5,20.1c-6.7,29.3-25.1,82.2-72.2,108.3
	C733.8,707.8,713.4,712.8,690.8,712.8L690.8,712.8z"/>
<path class="st2" d="M394.2,652c-5.9,0-12.1-0.4-18.6-1.3c-34.7-5-83.4-26.9-118.2-103.2c-3-6.7-2.9-14.2,0.4-20.7
	c3.3-6.5,9.3-11,16.4-12.5c19.7-4,58.6-9.5,97.2-0.6c47.2,10.9,80.4,39.1,98.6,84c2,4.9-0.4,10.5-5.3,12.5c-4.9,2-10.5-0.4-12.5-5.3
	c-36.3-89.6-133.9-80-174.2-71.8c-1.9,0.4-2.8,1.7-3.1,2.4c-0.4,0.8-0.9,2.3-0.1,4.1c58.9,129.4,157,87.4,161.2,85.5
	c4.8-2.2,14.2-1.8,16.4,3c2.2,4.8-3.7,12.3-8.5,14.5C442.9,643,422.6,652,394.2,652L394.2,652z"/>
<path class="st2" d="M774.7,606.1c-36.7,41.4-90.5,66-145.1,71.9c-12.6,1.4-15.2-16.9-2.7-19c1-0.2,10.3-0.2,11.5-0.3
	C687.8,657.3,737.4,639.1,774.7,606.1z"/>
<path class="st2" d="M584.8,345.2c-12.1,47.2-18,95.7-20.8,144.2c-1.7,28.9-1.6,58.5-0.6,87.4c-0.1,12.7-18.5,13.2-19.2,0.4
	c0.5-10.1,1-20.2,1.7-30.3C551.2,478.6,562.7,410.1,584.8,345.2z"/>
<path class="st2" d="M312.6,550c27.5,17.1,56.3,32.2,86.5,43.7c4.4,1.7,13.5,4.8,18.1,6.2c12.1,3.6,24.4,6.4,36.4,7.4
	c5.3,0.4,9.3,5.1,8.9,10.4c-0.4,5.7-6,9.8-11.5,8.6c-17.1-3.6-32.6-9.9-47.8-17.2C370.7,593.1,340.6,572.6,312.6,550z"/>
<path class="st2" d="M595.5,610.1c0,0-6.9-14.2-6.9-14.2c-0.5-1,2.3-2.2,2.9-2.5c1.6-0.8,3.2-1.7,4.8-2.6c4.1-2.3,8-4.7,11.6-7.7
	c3.6-2.9,7-6.1,10.3-9.4c0.4-0.4,0.7-0.7,1.1-1.1c0.9-0.9,1.9-1.9,2.8-2.8c3.7-3.8,9.8-3.9,13.6-0.2c3.8,3.7,3.9,9.8,0.2,13.6
	C612.5,607.4,599.9,610,595.5,610.1z"/>
<path class="st2" d="M499,592.1c-2.1,0-4.2-0.7-6-2.1c-0.8-0.6-18.9-15.4-20.9-45.7c-0.3-5.3,3.7-9.8,8.9-10.2
	c5.3-0.3,9.8,3.7,10.2,8.9c1.4,21.4,13.3,31.6,13.8,32c4.1,3.3,4.8,9.3,1.5,13.4C504.6,590.8,501.8,592.1,499,592.1z"/>
<path class="st2" d="M518.4,387.8c1.1,1.1,2.2,2.3,3.3,3.5c1.1,1.2,2.1,2.4,3.1,3.6c1,1.2,2,2.5,3,3.8c1,1.3,1.9,2.6,2.8,3.9
	c0.9,1.3,1.7,2.7,2.6,4.1c0.8,1.4,1.6,2.8,2.4,4.2c0.8,1.4,1.5,2.8,2.2,4.3c0.7,1.4,1.3,2.9,1.9,4.4c0.6,1.5,1.2,3,1.7,4.5
	c0.5,1.5,1,3,1.5,4.6c0.5,1.5,0.9,3.1,1.3,4.6c0.4,1.6,0.7,3.1,1.1,4.7c0.3,1.6,0.6,3.1,0.8,4.7c0.2,1.6,0.4,3.2,0.6,4.8
	s0.3,3.2,0.4,4.8c0.1,1.6,0.1,3.2,0.1,4.8c0,1.6,0,3.2-0.1,4.8c-0.1,1.6-0.2,3.2-0.4,4.8c-0.2,1.6-0.4,3.2-0.6,4.8
	c-0.2,1.6-0.5,3.2-0.8,4.7c-0.3,1.6-0.7,3.1-1.1,4.7c-0.4,1.6-0.8,3.1-1.3,4.6s-1,3.1-1.5,4.6c-0.5,1.5-1.1,3-1.7,4.5
	c-0.6,1.5-1.3,2.9-1.9,4.4c-0.7,1.4-1.4,2.9-2.2,4.3c-0.8,1.4-1.5,2.8-2.4,4.2c-0.8,1.4-1.7,2.7-2.6,4.1c-0.9,1.3-1.8,2.6-2.8,3.9
	c-1,1.3-1.9,2.5-3,3.8c-1,1.2-2.1,2.4-3.1,3.6c-1.1,1.2-2.2,2.3-3.3,3.5c-1.1,1.1-2.3,2.2-3.5,3.3c-1.2,1.1-2.4,2.1-3.6,3.1
	c-1.2,1-2.5,2-3.8,3c-1.3,1-2.6,1.9-3.9,2.8c-1.3,0.9-2.7,1.7-4.1,2.6c-1.4,0.8-2.8,1.6-4.2,2.4c-1.4,0.8-2.8,1.5-4.3,2.2
	c-1.4,0.7-2.9,1.3-4.4,1.9c-1.5,0.6-3,1.2-4.5,1.7c-1.5,0.5-3,1-4.6,1.5c-1.5,0.5-3.1,0.9-4.6,1.3c-1.6,0.4-3.1,0.7-4.7,1.1
	s-3.1,0.6-4.7,0.8c-1.6,0.2-3.2,0.4-4.8,0.6s-3.2,0.3-4.8,0.4c-1.6,0.1-3.2,0.1-4.8,0.1c-1.6,0-3.2,0-4.8-0.1
	c-1.6-0.1-3.2-0.2-4.8-0.4c-1.6-0.2-3.2-0.3-4.8-0.6c-1.6-0.2-3.2-0.5-4.7-0.8c-1.6-0.3-3.1-0.7-4.7-1.1c-1.6-0.4-3.1-0.8-4.6-1.3
	c-1.5-0.5-3-1-4.6-1.5c-1.5-0.5-3-1.1-4.5-1.7c-1.5-0.6-2.9-1.3-4.4-1.9c-1.4-0.7-2.9-1.4-4.3-2.2c-1.4-0.8-2.8-1.5-4.2-2.4
	c-1.4-0.8-2.7-1.7-4.1-2.6c-1.3-0.9-2.6-1.8-3.9-2.8c-1.3-1-2.5-1.9-3.8-3c-1.2-1-2.4-2.1-3.6-3.1c-1.2-1.1-2.3-2.2-3.5-3.3
	c-1.1-1.1-2.2-2.3-3.3-3.5c-1.1-1.2-2.1-2.4-3.1-3.6c-1-1.2-2-2.5-3-3.8c-1-1.3-1.9-2.6-2.8-3.9c-0.9-1.3-1.7-2.7-2.6-4.1
	c-0.8-1.4-1.6-2.8-2.4-4.2c-0.8-1.4-1.5-2.8-2.2-4.3c-0.7-1.4-1.3-2.9-1.9-4.4c-0.6-1.5-1.2-3-1.7-4.5c-0.5-1.5-1-3-1.5-4.6
	c-0.5-1.5-0.9-3.1-1.3-4.6c-0.4-1.6-0.7-3.1-1.1-4.7c-0.3-1.6-0.6-3.1-0.8-4.7c-0.2-1.6-0.4-3.2-0.6-4.8c-0.2-1.6-0.3-3.2-0.4-4.8
	c-0.1-1.6-0.1-3.2-0.1-4.8c0-1.6,0-3.2,0.1-4.8c0.1-1.6,0.2-3.2,0.4-4.8s0.4-3.2,0.6-4.8c0.2-1.6,0.5-3.2,0.8-4.7
	c0.3-1.6,0.7-3.1,1.1-4.7s0.8-3.1,1.3-4.6c0.5-1.5,1-3,1.5-4.6c0.5-1.5,1.1-3,1.7-4.5c0.6-1.5,1.3-2.9,1.9-4.4
	c0.7-1.4,1.4-2.9,2.2-4.3c0.8-1.4,1.5-2.8,2.4-4.2c0.8-1.4,1.7-2.7,2.6-4.1c0.9-1.3,1.8-2.6,2.8-3.9c1-1.3,1.9-2.5,3-3.8
	c1-1.2,2.1-2.4,3.1-3.6c1.1-1.2,2.2-2.3,3.3-3.5c1.1-1.1,2.3-2.2,3.5-3.3c1.2-1.1,2.4-2.1,3.6-3.1c1.2-1,2.5-2,3.8-3
	c1.3-1,2.6-1.9,3.9-2.8s2.7-1.7,4.1-2.6c1.4-0.8,2.8-1.6,4.2-2.4c1.4-0.8,2.8-1.5,4.3-2.2c1.4-0.7,2.9-1.3,4.4-1.9
	c1.5-0.6,3-1.2,4.5-1.7c1.5-0.5,3-1,4.6-1.5c1.5-0.5,3.1-0.9,4.6-1.3c1.6-0.4,3.1-0.7,4.7-1c1.6-0.3,3.1-0.6,4.7-0.8
	c1.6-0.2,3.2-0.4,4.8-0.6c1.6-0.2,3.2-0.3,4.8-0.3c1.6-0.1,3.2-0.1,4.8-0.1c1.6,0,3.2,0,4.8,0.1c1.6,0.1,3.2,0.2,4.8,0.3
	s3.2,0.4,4.8,0.6c1.6,0.2,3.2,0.5,4.7,0.8c1.6,0.3,3.1,0.7,4.7,1c1.6,0.4,3.1,0.8,4.6,1.3c1.5,0.5,3,1,4.6,1.5
	c1.5,0.5,3,1.1,4.5,1.7c1.5,0.6,2.9,1.3,4.4,1.9c1.4,0.7,2.9,1.4,4.3,2.2c1.4,0.8,2.8,1.5,4.2,2.4c1.4,0.8,2.7,1.7,4.1,2.6
	c1.3,0.9,2.6,1.8,3.9,2.8c1.3,1,2.5,1.9,3.8,3c1.2,1,2.4,2.1,3.6,3.1C516.1,385.6,517.3,386.7,518.4,387.8z"/>
<path d="M513.4,405.4c0,1.1-0.1,2.2-0.3,3.3c-0.2,1.1-0.5,2.2-0.9,3.2c-0.4,1.1-0.9,2.1-1.5,3.2c-0.6,1-1.3,2.1-2.1,3.1
	c-0.8,1-1.7,2-2.7,3c-1,1-2.1,1.9-3.2,2.8c-1.2,0.9-2.4,1.8-3.8,2.6c-1.3,0.8-2.7,1.7-4.2,2.4c-1.5,0.8-3,1.5-4.7,2.2
	c-1.6,0.7-3.3,1.3-5.1,1.9c-1.7,0.6-3.5,1.2-5.4,1.7s-3.8,1-5.7,1.4c-1.9,0.4-3.9,0.8-5.9,1.1c-2,0.3-4,0.6-6.1,0.8
	c-2.1,0.2-4.1,0.4-6.2,0.5c-2.1,0.1-4.2,0.2-6.3,0.2c-2.1,0-4.2-0.1-6.3-0.2c-2.1-0.1-4.2-0.3-6.2-0.5c-2.1-0.2-4.1-0.5-6.1-0.8
	c-2-0.3-4-0.7-5.9-1.1s-3.8-0.9-5.7-1.4c-1.9-0.5-3.7-1.1-5.4-1.7c-1.7-0.6-3.4-1.3-5.1-1.9c-1.6-0.7-3.2-1.4-4.7-2.2
	c-1.5-0.8-2.9-1.6-4.2-2.4c-1.3-0.8-2.6-1.7-3.7-2.6c-1.2-0.9-2.2-1.8-3.2-2.8c-1-1-1.9-1.9-2.7-3c-0.8-1-1.5-2-2.1-3.1
	c-0.6-1-1.1-2.1-1.5-3.2c-0.4-1.1-0.7-2.1-0.9-3.2c-0.2-1.1-0.3-2.2-0.3-3.3s0.1-2.2,0.3-3.3c0.2-1.1,0.5-2.2,0.9-3.2
	c0.4-1.1,0.9-2.1,1.5-3.2c0.6-1,1.3-2.1,2.1-3.1c0.8-1,1.7-2,2.7-3c1-1,2.1-1.9,3.2-2.8c1.2-0.9,2.4-1.8,3.7-2.6
	c1.3-0.8,2.7-1.7,4.2-2.4c1.5-0.8,3-1.5,4.7-2.2c1.6-0.7,3.3-1.3,5.1-1.9c1.8-0.6,3.5-1.2,5.4-1.7c1.8-0.5,3.7-1,5.7-1.4
	c1.9-0.4,3.9-0.8,5.9-1.1c2-0.3,4-0.6,6.1-0.8c2.1-0.2,4.1-0.4,6.2-0.5c2.1-0.1,4.2-0.2,6.3-0.2c2.1,0,4.2,0.1,6.3,0.2
	c2.1,0.1,4.2,0.3,6.2,0.5c2.1,0.2,4.1,0.5,6.1,0.8c2,0.3,4,0.7,5.9,1.1c1.9,0.4,3.8,0.9,5.7,1.4c1.9,0.5,3.7,1.1,5.4,1.7
	c1.8,0.6,3.4,1.3,5.1,1.9c1.6,0.7,3.2,1.4,4.7,2.2c1.5,0.8,2.9,1.6,4.2,2.4c1.3,0.8,2.6,1.7,3.8,2.6c1.2,0.9,2.2,1.8,3.2,2.8
	c1,1,1.9,1.9,2.7,3c0.8,1,1.5,2,2.1,3.1c0.6,1,1.1,2.1,1.5,3.2c0.4,1.1,0.7,2.1,0.9,3.2C513.3,403.2,513.4,404.3,513.4,405.4z"/>
<path d="M362.3,440c39.4,23.6,88.3,32.6,132.6,18.8c14.6-4.5,28.7-11,42.2-18.8c-15.2,12.2-33.1,21.6-52.1,26.6
	C443,477.8,395.9,467.2,362.3,440z"/>
<path d="M367.4,471.8c35.9,23.5,81.7,31.5,123,19.6c16.3-4.4,31.6-11.4,46.6-19.6c-12,9.3-25.4,16.9-39.8,22.3
	C454.2,510.6,402,502.6,367.4,471.8z"/>
<path d="M379,503.5c27.6,21.9,64.2,32.1,98.4,21.5c15.4-4.7,29.4-12.4,42.9-21.5c-9.3,9.1-20.1,16.9-32.1,22.5
	C451.5,544,405.9,533.9,379,503.5L379,503.5z"/>
<path class="st2" d="M428.3,419.5c-5.2-1.1-12.2-4-11.6-9.6c1.1-7.4,0.7-14.8,2.5-22.2c0.2-0.8,1.3-1.1,1.8-0.5c4.2,4.4,7.9,9,11,14
	c1.4,2.3,4.7,4.2,4.1,7.4c-0.6,4.1-2.5,6.9-6,10.3C429.6,419.5,428.9,419.7,428.3,419.5z"/>
<path class="st2" d="M470.6,418.6c-4.2-3.3-9.1-9-6.1-13.7c4.4-6.1,7.1-12.8,12.2-18.7c0.5-0.7,1.6-0.4,1.9,0.4
	c1.8,5.8,3,11.6,3.5,17.5c0.2,2.7,2.3,5.9,0.3,8.5c-2.4,3.3-5.4,5.1-10,6.5C471.8,419.1,471.2,419,470.6,418.6z"/>
<path class="st2" d="M449.5,413.6c-4.8-2.3-10.8-6.8-8.9-12.1c2.9-6.9,4.2-14.1,7.9-20.9c0.4-0.8,1.5-0.8,1.9-0.1
	c3,5.2,5.4,10.7,7.2,16.3c0.8,2.6,3.5,5.2,2.2,8.2c-1.6,3.8-4.1,6.1-8.4,8.5C450.8,413.8,450.1,413.8,449.5,413.6z"/>
<path class="st2" d="M740.9,426c1.1,1.1,2.2,2.3,3.3,3.5c1.1,1.2,2.1,2.4,3.1,3.6c1,1.2,2,2.5,3,3.8s1.9,2.6,2.8,3.9
	c0.9,1.3,1.7,2.7,2.6,4.1c0.8,1.4,1.6,2.8,2.4,4.2c0.8,1.4,1.5,2.8,2.2,4.3c0.7,1.4,1.3,2.9,1.9,4.4c0.6,1.5,1.2,3,1.7,4.5
	c0.5,1.5,1,3,1.5,4.6c0.5,1.5,0.9,3.1,1.3,4.6c0.4,1.6,0.7,3.1,1.1,4.7c0.3,1.6,0.6,3.1,0.8,4.7s0.4,3.2,0.6,4.8s0.3,3.2,0.4,4.8
	s0.1,3.2,0.1,4.8s0,3.2-0.1,4.8c-0.1,1.6-0.2,3.2-0.4,4.8c-0.2,1.6-0.4,3.2-0.6,4.8s-0.5,3.2-0.8,4.7c-0.3,1.6-0.7,3.1-1.1,4.7
	c-0.4,1.6-0.8,3.1-1.3,4.6c-0.5,1.5-1,3.1-1.5,4.6c-0.5,1.5-1.1,3-1.7,4.5c-0.6,1.5-1.3,2.9-1.9,4.4c-0.7,1.4-1.4,2.9-2.2,4.3
	c-0.8,1.4-1.5,2.8-2.4,4.2c-0.8,1.4-1.7,2.7-2.6,4.1c-0.9,1.3-1.8,2.6-2.8,3.9c-1,1.3-1.9,2.5-3,3.8c-1,1.2-2.1,2.4-3.1,3.6
	c-1.1,1.2-2.2,2.3-3.3,3.5c-1.1,1.1-2.3,2.2-3.5,3.3c-1.2,1.1-2.4,2.1-3.6,3.1c-1.2,1-2.5,2-3.8,3c-1.3,1-2.6,1.9-3.9,2.8
	c-1.3,0.9-2.7,1.7-4.1,2.6c-1.4,0.8-2.8,1.6-4.2,2.4c-1.4,0.8-2.8,1.5-4.3,2.2c-1.4,0.7-2.9,1.3-4.4,1.9c-1.5,0.6-3,1.2-4.5,1.7
	c-1.5,0.5-3,1-4.6,1.5c-1.5,0.5-3.1,0.9-4.6,1.3s-3.1,0.7-4.7,1.1c-1.6,0.3-3.1,0.6-4.7,0.8c-1.6,0.2-3.2,0.4-4.8,0.6
	c-1.6,0.2-3.2,0.3-4.8,0.4c-1.6,0.1-3.2,0.1-4.8,0.1c-1.6,0-3.2,0-4.8-0.1c-1.6-0.1-3.2-0.2-4.8-0.4s-3.2-0.4-4.8-0.6
	c-1.6-0.2-3.2-0.5-4.7-0.8c-1.6-0.3-3.1-0.7-4.7-1.1c-1.6-0.4-3.1-0.8-4.6-1.3c-1.5-0.5-3-1-4.6-1.5c-1.5-0.5-3-1.1-4.5-1.7
	c-1.5-0.6-2.9-1.3-4.4-1.9c-1.4-0.7-2.9-1.4-4.3-2.2c-1.4-0.8-2.8-1.5-4.2-2.4c-1.4-0.8-2.7-1.7-4.1-2.6c-1.3-0.9-2.6-1.8-3.9-2.8
	s-2.5-1.9-3.8-3c-1.2-1-2.4-2.1-3.6-3.1c-1.2-1.1-2.3-2.2-3.5-3.3c-1.1-1.1-2.2-2.3-3.3-3.5c-1.1-1.2-2.1-2.4-3.1-3.6
	c-1-1.2-2-2.5-3-3.8c-1-1.3-1.9-2.6-2.8-3.9c-0.9-1.3-1.7-2.7-2.6-4.1c-0.8-1.4-1.6-2.8-2.4-4.2c-0.8-1.4-1.5-2.8-2.2-4.3
	c-0.7-1.4-1.3-2.9-1.9-4.4c-0.6-1.5-1.2-3-1.7-4.5c-0.5-1.5-1-3-1.5-4.6s-0.9-3.1-1.3-4.6c-0.4-1.6-0.7-3.1-1.1-4.7
	c-0.3-1.6-0.6-3.1-0.8-4.7s-0.4-3.2-0.6-4.8c-0.2-1.6-0.3-3.2-0.4-4.8c-0.1-1.6-0.1-3.2-0.1-4.8s0-3.2,0.1-4.8s0.2-3.2,0.4-4.8
	s0.4-3.2,0.6-4.8s0.5-3.2,0.8-4.7c0.3-1.6,0.7-3.1,1.1-4.7c0.4-1.6,0.8-3.1,1.3-4.6s1-3,1.5-4.6c0.5-1.5,1.1-3,1.7-4.5
	c0.6-1.5,1.3-2.9,1.9-4.4c0.7-1.4,1.4-2.9,2.2-4.3c0.8-1.4,1.5-2.8,2.4-4.2c0.8-1.4,1.7-2.7,2.6-4.1c0.9-1.3,1.8-2.6,2.8-3.9
	s1.9-2.5,3-3.8c1-1.2,2.1-2.4,3.1-3.6c1.1-1.2,2.2-2.3,3.3-3.5s2.3-2.2,3.5-3.3c1.2-1.1,2.4-2.1,3.6-3.1c1.2-1,2.5-2,3.8-3
	s2.6-1.9,3.9-2.8c1.3-0.9,2.7-1.7,4.1-2.6c1.4-0.8,2.8-1.6,4.2-2.4c1.4-0.8,2.8-1.5,4.3-2.2c1.4-0.7,2.9-1.3,4.4-1.9
	c1.5-0.6,3-1.2,4.5-1.7c1.5-0.5,3-1,4.6-1.5s3.1-0.9,4.6-1.3c1.6-0.4,3.1-0.7,4.7-1.1c1.6-0.3,3.1-0.6,4.7-0.8
	c1.6-0.2,3.2-0.4,4.8-0.6s3.2-0.3,4.8-0.4c1.6-0.1,3.2-0.1,4.8-0.1c1.6,0,3.2,0,4.8,0.1c1.6,0.1,3.2,0.2,4.8,0.4
	c1.6,0.2,3.2,0.4,4.8,0.6c1.6,0.2,3.2,0.5,4.7,0.8c1.6,0.3,3.1,0.7,4.7,1.1c1.6,0.4,3.1,0.8,4.6,1.3s3,1,4.6,1.5
	c1.5,0.5,3,1.1,4.5,1.7c1.5,0.6,2.9,1.3,4.4,1.9c1.4,0.7,2.9,1.4,4.3,2.2c1.4,0.8,2.8,1.5,4.2,2.4c1.4,0.8,2.7,1.7,4.1,2.6
	s2.6,1.8,3.9,2.8c1.3,1,2.5,1.9,3.8,3c1.2,1,2.4,2.1,3.6,3.1C738.7,423.8,739.8,424.9,740.9,426z"/>
<path d="M735.9,443.6c0,1.1-0.1,2.2-0.3,3.3c-0.2,1.1-0.5,2.2-0.9,3.2c-0.4,1.1-0.9,2.1-1.5,3.2s-1.3,2.1-2.1,3.1
	c-0.8,1-1.7,2-2.7,3c-1,1-2.1,1.9-3.2,2.8c-1.2,0.9-2.4,1.8-3.7,2.6c-1.3,0.8-2.7,1.7-4.2,2.4s-3,1.5-4.7,2.2
	c-1.6,0.7-3.3,1.3-5.1,1.9c-1.8,0.6-3.5,1.2-5.4,1.7c-1.8,0.5-3.7,1-5.7,1.4c-1.9,0.4-3.9,0.8-5.9,1.1c-2,0.3-4,0.6-6.1,0.8
	c-2.1,0.2-4.1,0.4-6.2,0.5c-2.1,0.1-4.2,0.2-6.3,0.2c-2.1,0-4.2-0.1-6.3-0.2c-2.1-0.1-4.2-0.3-6.2-0.5c-2.1-0.2-4.1-0.5-6.1-0.8
	c-2-0.3-4-0.7-5.9-1.1c-1.9-0.4-3.8-0.9-5.7-1.4c-1.9-0.5-3.7-1.1-5.4-1.7c-1.8-0.6-3.4-1.3-5.1-1.9c-1.6-0.7-3.2-1.4-4.7-2.2
	s-2.9-1.6-4.2-2.4c-1.3-0.8-2.6-1.7-3.8-2.6c-1.2-0.9-2.2-1.8-3.2-2.8c-1-1-1.9-1.9-2.7-3c-0.8-1-1.5-2-2.1-3.1s-1.1-2.1-1.5-3.2
	c-0.4-1.1-0.7-2.1-0.9-3.2c-0.2-1.1-0.3-2.2-0.3-3.3c0-1.1,0.1-2.2,0.3-3.3c0.2-1.1,0.5-2.2,0.9-3.2c0.4-1.1,0.9-2.1,1.5-3.2
	c0.6-1,1.3-2.1,2.1-3.1c0.8-1,1.7-2,2.7-3c1-1,2.1-1.9,3.2-2.8c1.2-0.9,2.4-1.8,3.8-2.6c1.3-0.8,2.7-1.7,4.2-2.4
	c1.5-0.8,3-1.5,4.7-2.2c1.6-0.7,3.3-1.3,5.1-1.9c1.7-0.6,3.5-1.2,5.4-1.7c1.9-0.5,3.8-1,5.7-1.4c1.9-0.4,3.9-0.8,5.9-1.1
	c2-0.3,4-0.6,6.1-0.8c2.1-0.2,4.1-0.4,6.2-0.5c2.1-0.1,4.2-0.2,6.3-0.2c2.1,0,4.2,0.1,6.3,0.2c2.1,0.1,4.2,0.3,6.2,0.5
	c2.1,0.2,4.1,0.5,6.1,0.8c2,0.3,4,0.7,5.9,1.1c1.9,0.4,3.8,0.9,5.7,1.4c1.9,0.5,3.7,1.1,5.4,1.7c1.7,0.6,3.4,1.3,5.1,1.9
	s3.2,1.4,4.7,2.2c1.5,0.8,2.9,1.6,4.2,2.4c1.3,0.8,2.6,1.7,3.7,2.6s2.2,1.8,3.2,2.8c1,1,1.9,1.9,2.7,3c0.8,1,1.5,2,2.1,3.1
	c0.6,1,1.1,2.1,1.5,3.2c0.4,1.1,0.7,2.1,0.9,3.2C735.8,441.4,735.9,442.5,735.9,443.6z"/>
<path d="M584.8,478.2c39.4,23.6,88.3,32.6,132.6,18.8c14.6-4.5,28.7-11,42.2-18.8c-15.2,12.2-33.1,21.6-52.1,26.6
	C665.6,516,618.4,505.4,584.8,478.2z"/>
<path d="M589.9,509.9c35.9,23.5,81.7,31.5,123,19.6c16.3-4.4,31.6-11.4,46.6-19.6c-12,9.3-25.4,16.9-39.8,22.3
	C676.8,548.8,624.5,540.8,589.9,509.9z"/>
<path d="M601.6,541.7c27.6,21.9,64.2,32.1,98.4,21.5c15.4-4.7,29.4-12.4,42.9-21.5c-9.3,9.2-20.1,16.9-32.1,22.5
	C674,582.2,628.5,572,601.6,541.7z"/>
<path class="st2" d="M650.8,457.7c-5.2-1.1-12.2-4-11.6-9.6c1.1-7.4,0.7-14.7,2.5-22.2c0.2-0.8,1.3-1.1,1.8-0.5c4.2,4.4,7.9,9,11,14
	c1.4,2.3,4.7,4.2,4.1,7.4c-0.6,4.1-2.5,6.9-6,10.3C652.2,457.7,651.5,457.8,650.8,457.7L650.8,457.7z"/>
<path class="st2" d="M693.2,456.8c-4.2-3.3-9.1-9-6.1-13.7c4.4-6.1,7.1-12.8,12.2-18.7c0.5-0.7,1.6-0.4,1.9,0.4
	c1.8,5.8,3,11.6,3.5,17.5c0.2,2.7,2.3,5.9,0.3,8.5c-2.4,3.3-5.4,5.1-10,6.5C694.4,457.3,693.7,457.2,693.2,456.8z"/>
<path class="st2" d="M672.1,451.8c-4.8-2.3-10.8-6.8-8.9-12.1c2.9-6.9,4.2-14.1,7.9-20.9c0.4-0.8,1.5-0.8,1.9-0.1
	c3,5.2,5.4,10.7,7.2,16.3c0.8,2.6,3.5,5.2,2.2,8.2c-1.6,3.8-4.1,6.1-8.4,8.5C673.4,452,672.7,452,672.1,451.8z"/>
<path class="st2" d="M600.5,599.3c1.1,1.1,2.2,2.3,3.3,3.5c1.1,1.2,2.1,2.4,3.1,3.6c1,1.2,2,2.5,3,3.8c1,1.3,1.9,2.6,2.8,3.9
	c0.9,1.3,1.7,2.7,2.6,4.1c0.8,1.4,1.6,2.8,2.4,4.2c0.8,1.4,1.5,2.8,2.2,4.3c0.7,1.4,1.3,2.9,1.9,4.4c0.6,1.5,1.2,3,1.7,4.5
	c0.5,1.5,1,3,1.5,4.6c0.5,1.5,0.9,3.1,1.3,4.6c0.4,1.6,0.7,3.1,1.1,4.7c0.3,1.6,0.6,3.1,0.8,4.7c0.2,1.6,0.4,3.2,0.6,4.8
	c0.2,1.6,0.3,3.2,0.4,4.8c0.1,1.6,0.1,3.2,0.1,4.8c0,1.6,0,3.2-0.1,4.8c-0.1,1.6-0.2,3.2-0.4,4.8c-0.2,1.6-0.4,3.2-0.6,4.8
	c-0.2,1.6-0.5,3.2-0.8,4.7c-0.3,1.6-0.7,3.1-1.1,4.7s-0.8,3.1-1.3,4.6c-0.5,1.5-1,3.1-1.5,4.6c-0.5,1.5-1.1,3-1.7,4.5
	c-0.6,1.5-1.3,2.9-1.9,4.4c-0.7,1.4-1.4,2.9-2.2,4.3c-0.8,1.4-1.5,2.8-2.4,4.2c-0.8,1.4-1.7,2.7-2.6,4.1c-0.9,1.3-1.8,2.6-2.8,3.9
	c-1,1.3-1.9,2.5-3,3.8c-1,1.2-2.1,2.4-3.1,3.6c-1.1,1.2-2.2,2.3-3.3,3.5c-1.1,1.1-2.3,2.2-3.5,3.3c-1.2,1.1-2.4,2.1-3.6,3.1
	c-1.2,1-2.5,2-3.8,2.9c-1.3,1-2.6,1.9-3.9,2.8c-1.3,0.9-2.7,1.7-4.1,2.6c-1.4,0.8-2.8,1.6-4.2,2.4c-1.4,0.8-2.8,1.5-4.3,2.2
	c-1.4,0.7-2.9,1.3-4.4,1.9c-1.5,0.6-3,1.2-4.5,1.7c-1.5,0.5-3,1-4.6,1.5c-1.5,0.5-3.1,0.9-4.6,1.3c-1.6,0.4-3.1,0.7-4.7,1.1
	c-1.6,0.3-3.1,0.6-4.7,0.8c-1.6,0.2-3.2,0.4-4.8,0.6c-1.6,0.2-3.2,0.3-4.8,0.3c-1.6,0.1-3.2,0.1-4.8,0.1c-1.6,0-3.2,0-4.8-0.1
	c-1.6-0.1-3.2-0.2-4.8-0.3c-1.6-0.2-3.2-0.4-4.8-0.6c-1.6-0.2-3.2-0.5-4.7-0.8c-1.6-0.3-3.1-0.7-4.7-1.1c-1.6-0.4-3.1-0.8-4.6-1.3
	c-1.5-0.5-3-1-4.6-1.5c-1.5-0.5-3-1.1-4.5-1.7c-1.5-0.6-2.9-1.3-4.4-1.9c-1.4-0.7-2.9-1.4-4.3-2.2c-1.4-0.8-2.8-1.5-4.2-2.4
	c-1.4-0.8-2.7-1.7-4.1-2.6c-1.3-0.9-2.6-1.8-3.9-2.8s-2.5-1.9-3.8-2.9c-1.2-1-2.4-2.1-3.6-3.1c-1.2-1.1-2.3-2.2-3.5-3.3
	c-1.1-1.1-2.2-2.3-3.3-3.5c-1.1-1.2-2.1-2.4-3.1-3.6c-1-1.2-2-2.5-3-3.8c-1-1.3-1.9-2.6-2.8-3.9c-0.9-1.3-1.7-2.7-2.6-4.1
	c-0.8-1.4-1.6-2.8-2.4-4.2c-0.8-1.4-1.5-2.8-2.2-4.3c-0.7-1.4-1.3-2.9-1.9-4.4c-0.6-1.5-1.2-3-1.7-4.5c-0.5-1.5-1-3-1.5-4.6
	s-0.9-3.1-1.3-4.6c-0.4-1.6-0.7-3.1-1.1-4.7c-0.3-1.6-0.6-3.1-0.8-4.7c-0.2-1.6-0.4-3.2-0.6-4.8c-0.2-1.6-0.3-3.2-0.4-4.8
	c-0.1-1.6-0.1-3.2-0.1-4.8c0-1.6,0-3.2,0.1-4.8c0.1-1.6,0.2-3.2,0.4-4.8c0.2-1.6,0.4-3.2,0.6-4.8c0.2-1.6,0.5-3.2,0.8-4.7
	c0.3-1.6,0.7-3.1,1.1-4.7c0.4-1.6,0.8-3.1,1.3-4.6s1-3.1,1.5-4.6c0.5-1.5,1.1-3,1.7-4.5c0.6-1.5,1.3-2.9,1.9-4.4
	c0.7-1.4,1.4-2.9,2.2-4.3c0.8-1.4,1.5-2.8,2.4-4.2c0.8-1.4,1.7-2.7,2.6-4.1c0.9-1.3,1.8-2.6,2.8-3.9c1-1.3,1.9-2.5,3-3.8
	c1-1.2,2.1-2.4,3.1-3.6c1.1-1.2,2.2-2.3,3.3-3.5c1.1-1.1,2.3-2.2,3.5-3.3c1.2-1.1,2.4-2.1,3.6-3.1c1.2-1,2.5-2,3.8-3
	s2.6-1.9,3.9-2.8c1.3-0.9,2.7-1.7,4.1-2.6c1.4-0.8,2.8-1.6,4.2-2.4c1.4-0.8,2.8-1.5,4.3-2.2c1.4-0.7,2.9-1.3,4.4-1.9
	c1.5-0.6,3-1.2,4.5-1.7c1.5-0.5,3-1,4.6-1.5c1.5-0.5,3.1-0.9,4.6-1.3c1.6-0.4,3.1-0.7,4.7-1.1c1.6-0.3,3.1-0.6,4.7-0.8
	c1.6-0.2,3.2-0.4,4.8-0.6s3.2-0.3,4.8-0.4c1.6-0.1,3.2-0.1,4.8-0.1c1.6,0,3.2,0,4.8,0.1c1.6,0.1,3.2,0.2,4.8,0.4
	c1.6,0.2,3.2,0.3,4.8,0.6c1.6,0.2,3.2,0.5,4.7,0.8c1.6,0.3,3.1,0.7,4.7,1.1c1.6,0.4,3.1,0.8,4.6,1.3c1.5,0.5,3.1,1,4.6,1.5
	c1.5,0.5,3,1.1,4.5,1.7c1.5,0.6,2.9,1.3,4.4,1.9c1.4,0.7,2.9,1.4,4.3,2.2c1.4,0.8,2.8,1.5,4.2,2.4c1.4,0.8,2.7,1.7,4.1,2.6
	c1.3,0.9,2.6,1.8,3.9,2.8c1.3,1,2.5,1.9,3.8,3c1.2,1,2.4,2.1,3.6,3.1C598.2,597.1,599.4,598.2,600.5,599.3z"/>
<path d="M595.5,616.9c0,1.1-0.1,2.2-0.3,3.3c-0.2,1.1-0.5,2.2-0.9,3.2c-0.4,1.1-0.9,2.1-1.5,3.2c-0.6,1-1.3,2.1-2.1,3.1
	c-0.8,1-1.7,2-2.7,3c-1,1-2.1,1.9-3.2,2.8c-1.2,0.9-2.4,1.8-3.7,2.6s-2.7,1.7-4.2,2.4c-1.5,0.8-3,1.5-4.7,2.2s-3.3,1.3-5.1,1.9
	c-1.8,0.6-3.5,1.2-5.4,1.7c-1.8,0.5-3.7,1-5.7,1.4c-1.9,0.4-3.9,0.8-5.9,1.1c-2,0.3-4,0.6-6.1,0.8c-2.1,0.2-4.1,0.4-6.2,0.5
	c-2.1,0.1-4.2,0.2-6.3,0.2c-2.1,0-4.2-0.1-6.3-0.2c-2.1-0.1-4.2-0.3-6.2-0.5c-2.1-0.2-4.1-0.5-6.1-0.8c-2-0.3-4-0.7-5.9-1.1
	c-1.9-0.4-3.8-0.9-5.7-1.4c-1.8-0.5-3.7-1.1-5.4-1.7c-1.7-0.6-3.4-1.2-5.1-1.9c-1.6-0.7-3.2-1.4-4.7-2.2c-1.5-0.8-2.9-1.6-4.2-2.4
	c-1.3-0.8-2.6-1.7-3.8-2.6c-1.2-0.9-2.2-1.8-3.2-2.8c-1-1-1.9-1.9-2.7-3c-0.8-1-1.5-2-2.1-3.1c-0.6-1-1.1-2.1-1.5-3.2
	c-0.4-1.1-0.7-2.2-0.9-3.2c-0.2-1.1-0.3-2.2-0.3-3.3c0-1.1,0.1-2.2,0.3-3.3c0.2-1.1,0.5-2.2,0.9-3.2c0.4-1.1,0.9-2.1,1.5-3.2
	c0.6-1,1.3-2.1,2.1-3.1c0.8-1,1.7-2,2.7-3c1-1,2.1-1.9,3.2-2.8c1.2-0.9,2.4-1.8,3.8-2.6c1.3-0.8,2.7-1.7,4.2-2.4s3-1.5,4.7-2.2
	c1.6-0.7,3.3-1.3,5.1-1.9s3.5-1.2,5.4-1.7c1.9-0.5,3.8-1,5.7-1.4c1.9-0.4,3.9-0.8,5.9-1.1c2-0.3,4-0.6,6.1-0.8
	c2.1-0.2,4.1-0.4,6.2-0.5c2.1-0.1,4.2-0.2,6.3-0.2c2.1,0,4.2,0.1,6.3,0.2c2.1,0.1,4.2,0.3,6.2,0.5c2.1,0.2,4.1,0.5,6.1,0.8
	c2,0.3,4,0.7,5.9,1.1c1.9,0.4,3.8,0.9,5.7,1.4c1.9,0.5,3.7,1.1,5.4,1.7c1.7,0.6,3.4,1.3,5.1,1.9c1.6,0.7,3.2,1.4,4.7,2.2
	s2.9,1.6,4.2,2.4c1.3,0.8,2.6,1.7,3.7,2.6c1.2,0.9,2.2,1.8,3.2,2.8c1,1,1.9,1.9,2.7,3c0.8,1,1.5,2,2.1,3.1c0.6,1,1.1,2.1,1.5,3.2
	c0.4,1.1,0.7,2.1,0.9,3.2C595.4,614.7,595.5,615.8,595.5,616.9z"/>
<path d="M449.5,683.2c35.9,23.5,81.7,31.5,123,19.6c16.3-4.4,31.6-11.4,46.6-19.6c-12,9.3-25.4,16.9-39.8,22.3
	C536.3,722.1,484.1,714,449.5,683.2z"/>
<path d="M461.1,715c27.6,21.9,64.2,32.1,98.4,21.5c15.4-4.7,29.4-12.4,42.9-21.5c-9.3,9.1-20.1,16.9-32.1,22.5
	C533.6,755.5,488,745.3,461.1,715L461.1,715z"/>
<path class="st2" d="M510.4,631c-5.2-1.1-12.2-4-11.6-9.5c1.1-7.4,0.7-14.8,2.5-22.2c0.2-0.8,1.3-1.1,1.8-0.5c4.2,4.4,7.9,9,11,14
	c1.4,2.3,4.7,4.2,4.1,7.4c-0.6,4.1-2.5,6.9-6,10.3C511.7,630.9,511,631.1,510.4,631L510.4,631z"/>
<path class="st2" d="M552.7,630.1c-4.2-3.3-9.1-9-6.1-13.7c4.4-6.1,7.1-12.8,12.2-18.7c0.5-0.7,1.6-0.4,1.9,0.4
	c1.8,5.8,3,11.6,3.5,17.5c0.2,2.7,2.3,5.9,0.3,8.5c-2.4,3.3-5.4,5.1-10,6.5C553.9,630.6,553.2,630.4,552.7,630.1L552.7,630.1z"/>
<path class="st2" d="M531.6,625c-4.8-2.3-10.8-6.8-8.9-12.1c2.9-6.9,4.2-14.1,7.9-20.9c0.4-0.8,1.5-0.8,1.9-0.1
	c3,5.2,5.4,10.7,7.2,16.3c0.8,2.6,3.5,5.2,2.2,8.2c-1.6,3.8-4.1,6.1-8.4,8.5C532.9,625.3,532.2,625.3,531.6,625z"/>
<path d="M444.3,651.4c39.4,23.6,88.3,32.6,132.6,18.8c14.6-4.5,28.7-11,42.2-18.8C604,663.6,586,673.1,567,678
	C525.1,689.3,478,678.7,444.3,651.4z"/>
</svg>
