<?xml version="1.0" encoding="utf-8"?>
<!-- Generator: Adobe Illustrator 26.4.1, SVG Export Plug-In . SVG Version: 6.00 Build 0)  -->
<svg version="1.1" id="Layer_1" xmlns="http://www.w3.org/2000/svg" xmlns:xlink="http://www.w3.org/1999/xlink" x="0px" y="0px"
	 viewBox="0 0 1080 1080" style="enable-background:new 0 0 1080 1080;" xml:space="preserve">
<style type="text/css">
	.st0{clip-path:url(#SVGID_00000069364034267791091810000012660555454456038834_);}
	.st1{fill:none;stroke:#FFFFFF;stroke-width:16;}
	.st2{fill:#FFFFFF;}
	.st3{clip-path:url(#SVGID_00000037674494561293297490000013171934538293371031_);}
	.st4{clip-path:url(#SVGID_00000173155696856580716140000014231102835990208925_);}
	.st5{clip-path:url(#SVGID_00000149359018687328318350000001752214062676034721_);}
	.st6{clip-path:url(#SVGID_00000154409536780708631560000001526778103199652013_);}
	.st7{clip-path:url(#SVGID_00000013888978709145111290000010549908182894052997_);}
</style>
<g>
	<defs>
		<circle id="SVGID_1_" cx="540" cy="540" r="540"/>
	</defs>
	<clipPath id="SVGID_00000093143590646676078190000006689248605885626797_">
		<use xlink:href="#SVGID_1_"  style="overflow:visible;"/>
	</clipPath>
	<g style="clip-path:url(#SVGID_00000093143590646676078190000006689248605885626797_);">
		<path class="st1" d="M540,0C241.8,0,0,241.8,0,540s241.8,540,540,540s540-241.8,540-540S838.2,0,540,0z"/>
	</g>
</g>
<path class="st2" d="M421.4,537.8c19.8,36.2,26.6,69.7,19.7,95.7c-4.5,17-14.9,30.7-31.5,39.7c-43.2,23.6-92.6-12.5-125.3-72.4
	c-25-45.8-30.2-99.3-16.9-129.8c2.7-6,4.7-12.3,5-18.9c0.2-3.9,1.8-7.3,4.8-8.9c2.7-1.5,5.8-1.3,8.9,0.1c5.6,2.4,11.2,4.6,17.3,5.5
	c7.2,1.1,14.7,2.9,22.1,5.6C361.2,466.6,398.3,495.6,421.4,537.8"/>
<path class="st2" d="M441.1,633.5c-4.5,17-14.9,30.7-31.5,39.7c-43.2,23.6-92.5-12.5-125.3-72.4c-25-45.8-30.2-99.4-16.9-129.8
	c2.6-5.7,4.6-11.8,5-18.1c0.1-0.3,0.1-0.5,0.1-0.8c0.2-4,1.8-7.3,4.9-9c2.5-1.5,5.6-1.2,8.6,0c0.1,0,0.2,0,0.3,0.1
	c5.5,2.4,11.3,4.6,17.3,5.6c7.2,1.1,14.6,2.9,22.1,5.5c31.7,19.9,63.3,52,86,93.4C428.7,579.2,438.8,608.5,441.1,633.5"/>
<path d="M351.9,632.2c26.4,16.2,58.2,18.1,55.2,23c-3,4.9-36.4,11.3-62.8-4.8c-26.4-16.1-35.9-48.8-32.9-53.7
	C314.4,591.8,325.5,616,351.9,632.2"/>
<path d="M290.7,524.7c4.3,27,15.4,54.5,8.2,55.6c-7.3,1.2-21.6-22.8-25.9-49.8c-4.3-27,2.8-60.4,10-61.5
	C290.3,467.8,286.4,497.7,290.7,524.7"/>
<path d="M285.9,443.1c-1.1,13.1-7.2,13.2-13.5,9.8c0.1-0.3,0.1-0.5,0.1-0.8c0.2-4,1.8-7.3,4.9-9C279.9,441.7,283,441.9,285.9,443.1"
	/>
<g>
	<defs>
		<rect id="SVGID_00000015329396318669794700000010244306655225321379_" x="633.3" y="528.1" width="185.8" height="234.4"/>
	</defs>
	<clipPath id="SVGID_00000153695147142157028030000014539843267959586198_">
		<use xlink:href="#SVGID_00000015329396318669794700000010244306655225321379_"  style="overflow:visible;"/>
	</clipPath>
	<g style="clip-path:url(#SVGID_00000153695147142157028030000014539843267959586198_);">
		<path class="st2" d="M785.5,701.1c-23.8,33.7-50.8,54.7-77.1,59.9c-17.3,3.5-34.1,0.2-49.5-10.7c-40.3-28.3-29.7-88.6,9.6-144.4
			c30.1-42.7,75.8-71,109-72.5c6.5-0.2,13.1-1.2,19.2-3.8c3.6-1.6,7.3-1.6,10.2,0.3c2.5,1.7,3.7,4.7,3.9,8c0.3,6.1,0.8,12.1,2.7,18
			c2.2,7,3.8,14.4,4.8,22.3C822.8,615.6,813.3,661.7,785.5,701.1"/>
	</g>
</g>
<g>
	<defs>
		<rect id="SVGID_00000158008540217656497860000000476991181071034512_" x="633.3" y="528.1" width="184.8" height="234.4"/>
	</defs>
	<clipPath id="SVGID_00000015328497045624026640000000923477874329081760_">
		<use xlink:href="#SVGID_00000158008540217656497860000000476991181071034512_"  style="overflow:visible;"/>
	</clipPath>
	<g style="clip-path:url(#SVGID_00000015328497045624026640000000923477874329081760_);">
		<path class="st2" d="M818.2,578.3c-3.9,37.2-18.6,79.7-45.8,118.4c-20.7,29.4-42.5,51.3-63.9,64.4c-17.3,3.5-34.1,0.2-49.5-10.7
			c-40.3-28.4-29.8-88.6,9.5-144.5c30.1-42.7,75.9-70.9,109.1-72.5c2.5-0.1,5-0.3,7.6-0.7c3.9-0.5,7.8-1.5,11.5-3.1
			c2.7-1.2,5.7-1.6,8.1-0.6c0.7,0.2,1.3,0.5,2,1c2.5,1.8,3.7,4.7,3.9,8c0.2,6,0.8,12.1,2.6,17.9
			C815.5,562.9,817.2,570.4,818.2,578.3"/>
	</g>
</g>
<path d="M704.4,628.9c-22.9,32.5-45.2,80.4-51.2,76.2c-6-4.2,5.6-55,28.5-87.4c22.9-32.5,63.9-61.5,69.9-57.3
	S727.3,596.4,704.4,628.9"/>
<path d="M804.8,529c0.1,4.1-1.4,8-6.4,10.5c-7,3.6-11-1.1-13.3-6.8c3.9-0.5,7.8-1.5,11.5-3.1C799.4,528.4,802.3,528.1,804.8,529"/>
<g>
	<defs>
		<rect id="SVGID_00000047763637752733525830000015896054174632448138_" x="497.3" y="321.5" width="154.7" height="265.2"/>
	</defs>
	<clipPath id="SVGID_00000077320818915669698660000008976886426349931195_">
		<use xlink:href="#SVGID_00000047763637752733525830000015896054174632448138_"  style="overflow:visible;"/>
	</clipPath>
	<g style="clip-path:url(#SVGID_00000077320818915669698660000008976886426349931195_);">
		<path class="st2" d="M648.2,485.5c-6.7,40.7-22.1,71.3-43.5,87.4c-14.1,10.6-30.6,15-49.3,11.8c-48.6-8.1-65.2-66.9-54-134.3
			c8.6-51.5,37.6-96.8,66.8-112.6c2.7-1.4,5.4-3,7.9-4.8c2.8-1.9,5.4-4.2,7.7-6.9c2.6-3,5.8-4.6,9.3-4.1c1.7,0.2,3.2,1,4.5,2.2
			c0.9,0.9,1.8,2,2.5,3.3c2.9,5.3,6,10.5,10.2,15c5,5.4,9.7,11.4,14,18C644.8,392.2,656.1,437.9,648.2,485.5"/>
	</g>
</g>
<g>
	<defs>
		<rect id="SVGID_00000093167260132402922020000004282691139078165152_" x="497.3" y="321.5" width="141.3" height="265.2"/>
	</defs>
	<clipPath id="SVGID_00000068642200408877181130000011688359486301615246_">
		<use xlink:href="#SVGID_00000093167260132402922020000004282691139078165152_"  style="overflow:visible;"/>
	</clipPath>
	<g style="clip-path:url(#SVGID_00000068642200408877181130000011688359486301615246_);">
		<path class="st2" d="M634.3,487.2c-5.9,35.4-16,64.7-29.6,85.8c-14.1,10.6-30.6,15-49.3,11.8c-48.6-8.1-65.2-66.9-54-134.3
			c8.6-51.5,37.6-96.8,66.8-112.6c2.7-1.4,5.4-3,7.9-4.8c2.8-1.9,5.4-4.2,7.7-6.9c2.6-3,5.8-4.6,9.3-4.1c1.7,0.2,3.2,1,4.5,2.2
			c0.9,0.9,1.8,2,2.5,3.3c2.9,5.3,6,10.5,10.2,15c5,5.4,9.7,11.4,14,18C637,395.8,642.1,440.6,634.3,487.2"/>
	</g>
</g>
<path d="M539.3,388.1c-8.6,15.7-10.9,30.8-5.3,33.9c5.6,3.1,11.9-9.8,20.4-25.5c8.6-15.7,16.2-28.1,10.6-31.2
	C559.4,362.3,547.8,372.5,539.3,388.1"/>
<path d="M530.9,508.7c2.9,26.9,25.5,53.5,19.2,54.2c-6.4,0.7-32.6-20.6-35.6-47.5c-3-26.9,3.4-54.7,9.8-55.4
	C530.6,459.3,527.9,481.8,530.9,508.7"/>
<g>
	<defs>
		<rect id="SVGID_00000173149502101642564600000007136014542755350172_" x="576" y="321.5" width="22.7" height="13.2"/>
	</defs>
	<clipPath id="SVGID_00000116199548927180261530000001579570509970919044_">
		<use xlink:href="#SVGID_00000173149502101642564600000007136014542755350172_"  style="overflow:visible;"/>
	</clipPath>
	<g style="clip-path:url(#SVGID_00000116199548927180261530000001579570509970919044_);">
		<path d="M597.7,324.3c-9.7,11.2-17.1,10.9-21.5,8.7c2.8-1.9,5.4-4.2,7.7-6.9c2.6-3,5.8-4.6,9.3-4.1
			C594.9,322.3,596.5,323.1,597.7,324.3"/>
	</g>
</g>
</svg>
