<?xml version="1.0" encoding="utf-8"?>
<!-- Generator: Adobe Illustrator 26.4.1, SVG Export Plug-In . SVG Version: 6.00 Build 0)  -->
<svg version="1.1" id="Layer_1" xmlns="http://www.w3.org/2000/svg" xmlns:xlink="http://www.w3.org/1999/xlink" x="0px" y="0px"
	 viewBox="0 0 1080 1080" style="enable-background:new 0 0 1080 1080;" xml:space="preserve">
<style type="text/css">
	.st0{clip-path:url(#SVGID_00000142165076130238857930000001788643585133611909_);}
	.st1{fill:none;stroke:#FFFFFF;stroke-width:16;}
	.st2{fill:#FFFFFF;}
	.st3{clip-path:url(#SVGID_00000112627108473521440240000013859234865852298379_);}
	.st4{clip-path:url(#SVGID_00000035501068000672010090000009102047717447719571_);}
</style>
<g>
	<defs>
		<circle id="SVGID_1_" cx="540" cy="540" r="540"/>
	</defs>
	<clipPath id="SVGID_00000077322177029243117890000000722350799504738999_">
		<use xlink:href="#SVGID_1_"  style="overflow:visible;"/>
	</clipPath>
	<g style="clip-path:url(#SVGID_00000077322177029243117890000000722350799504738999_);">
		<path class="st1" d="M540,0C241.8,0,0,241.8,0,540s241.8,540,540,540s540-241.8,540-540S838.2,0,540,0z"/>
	</g>
</g>
<path class="st2" d="M531,441.3c-35,3.9-62.8,32.6-66.2,68.1c-2.4,25,7.5,49.7,26.4,65.8c3.7,3.1,5.8,7.7,5.8,12.5v22.7
	c0,16.9,13.5,30.7,30.1,30.7h25c16.5,0,30.1-13.7,30.1-30.7v-21.7c0-5.5,2.1-10.5,5.6-13.5c17.1-14.5,26.9-35.8,26.9-58.3
	c0-22.5-9.3-42.7-25.4-57.2c-16-14.3-36.8-20.9-58.2-18.5L531,441.3z M552,621.2h-25c-5.5,0-10-4.7-10-10.6v-10.3l45.1,0.7v9.6
	C562,616.3,557.5,621.2,552,621.2z M575.9,474.8c11.9,10.6,18.7,26,18.7,42.2c0,16.1-7.2,32.4-19.8,43.1
	c-6.1,5.2-10.3,12.6-11.9,20.8l-13.3-0.2v-25.5l27.2-27.2l-14.1-14.1l-22.9,22.9l-22.9-22.9L502.5,528l27.2,27.2v25.2l-13.3-0.2
	c-1.7-7.8-5.8-14.9-12-20.2c-13.9-11.9-21.2-30.2-19.4-48.7c2.5-25.8,23.3-47.3,48.5-50.1c2.1-0.2,4.2-0.4,6.3-0.4
	c13.4,0,26.2,4.8,36.3,13.9L575.9,474.8z"/>
<path class="st2" d="M389.2,541c0,82.9,67.4,150.3,150.3,150.3c82.9,0,150.3-67.4,150.3-150.3s-67.4-150.3-150.3-150.3
	C456.6,390.7,389.2,458.1,389.2,541z M669.7,541c0,71.8-58.4,130.2-130.2,130.2c-71.8,0-130.2-58.4-130.2-130.2
	s58.4-130.2,130.2-130.2C611.3,410.8,669.7,469.2,669.7,541z"/>
<g>
	<path class="st2" d="M238.9,561c1,0,2-0.2,3-0.5l68.8-22c3.5-1.1,6.1-4.1,6.8-7.7c0.7-3.6-0.7-7.3-3.6-9.6l-23.5-18.7
		c49.5-60,142.7-151.8,249-151.8c84.3,0,160.5,58.9,209.7,108.3c3.5,3.5,15.1,15.7,17.5,18.4l14.7-13.5c-2.5-2.7-14.5-15.3-18.1-19
		c-51.8-52.1-132.8-114.2-223.8-114.2c-114.6,0-212.9,96.5-264.7,159.3l-23.4-18.7c-2.9-2.3-6.8-2.8-10.2-1.4
		c-3.4,1.5-5.7,4.7-6,8.3l-6.1,72c-0.3,3.3,1.1,6.6,3.7,8.7C234.4,560.2,236.6,561,238.9,561L238.9,561z M253.4,498.5l33.4,26.7
		l-36.7,11.7L253.4,498.5z"/>
</g>
<g>
	<defs>
		<rect id="SVGID_00000152228615312885475920000008011145110575500934_" x="529.3" y="230.4" width="21.3" height="60.3"/>
	</defs>
	<clipPath id="SVGID_00000085215997411573562360000010825553897396613526_">
		<use xlink:href="#SVGID_00000152228615312885475920000008011145110575500934_"  style="overflow:visible;"/>
	</clipPath>
	<g style="clip-path:url(#SVGID_00000085215997411573562360000010825553897396613526_);">
		<path class="st2" d="M529.5,230.4h20v60.1h-20V230.4z"/>
	</g>
</g>
<path class="st2" d="M651.7,312.8l35.9-48.2l16.1,12l-35.9,48.2L651.7,312.8z"/>
<path class="st2" d="M837.4,521.5l-68.8,22c-3.5,1.1-6.1,4.1-6.8,7.7c-0.7,3.6,0.7,7.3,3.6,9.6l23.5,18.7
	c-49.5,60-142.7,151.8-249,151.8c-84.3,0-160.5-58.9-209.7-108.3c-3.5-3.5-15.1-15.8-17.5-18.4l-14.7,13.5
	c2.5,2.7,14.5,15.3,18.1,19c51.8,52.1,132.8,114.2,223.8,114.2c114.6,0,212.9-96.5,264.7-159.3l23.4,18.7c1.8,1.4,4,2.2,6.2,2.2
	c1.3,0,2.7-0.3,4-0.8c3.4-1.5,5.7-4.7,6-8.3l6.1-72c0.3-3.3-1.1-6.6-3.7-8.7C844.1,521.1,840.6,520.5,837.4,521.5z M825.8,583.5
	l-33.4-26.7l36.7-11.7L825.8,583.5z"/>
<path class="st2" d="M375.4,276.5l16.1-12l35.8,48.3l-16.1,12L375.4,276.5z"/>
<g>
	<defs>
		<rect id="SVGID_00000130617563976399616800000000831297377177053855_" x="529.3" y="789.3" width="21.3" height="60.1"/>
	</defs>
	<clipPath id="SVGID_00000106128625234774388860000001636315015703193728_">
		<use xlink:href="#SVGID_00000130617563976399616800000000831297377177053855_"  style="overflow:visible;"/>
	</clipPath>
	<g style="clip-path:url(#SVGID_00000106128625234774388860000001636315015703193728_);">
		<path class="st2" d="M529.5,789.7h20v60.1h-20V789.7z"/>
	</g>
</g>
<path class="st2" d="M651.7,767.4l16.1-12l35.9,48.2l-16.1,12L651.7,767.4z"/>
<path class="st2" d="M375.4,803.7l35.8-48.3l16.1,12l-35.8,48.3L375.4,803.7z"/>
</svg>
