<svg xmlns="http://www.w3.org/2000/svg" xmlns:xlink="http://www.w3.org/1999/xlink" width="1080" zoomAndPan="magnify" viewBox="0 0 810 809.999993" height="1080" preserveAspectRatio="xMidYMid meet" version="1.0"><defs><clipPath id="fa0b1aa716"><path d="M 405 0 C 181.324219 0 0 181.324219 0 405 C 0 628.675781 181.324219 810 405 810 C 628.675781 810 810 628.675781 810 405 C 810 181.324219 628.675781 0 405 0 Z M 405 0 " clip-rule="nonzero"/></clipPath><clipPath id="081794fd19"><path d="M 346 153.628906 L 464 153.628906 L 464 271 L 346 271 Z M 346 153.628906 " clip-rule="nonzero"/></clipPath><clipPath id="5e4e36328f"><path d="M 153.628906 346 L 271 346 L 271 464 L 153.628906 464 Z M 153.628906 346 " clip-rule="nonzero"/></clipPath><clipPath id="bc666dd4e7"><path d="M 346 539 L 464 539 L 464 656.128906 L 346 656.128906 Z M 346 539 " clip-rule="nonzero"/></clipPath><clipPath id="710eaf501c"><path d="M 539 346 L 656.128906 346 L 656.128906 464 L 539 464 Z M 539 346 " clip-rule="nonzero"/></clipPath></defs><g clip-path="url(#fa0b1aa716)"><path stroke-linecap="butt" transform="matrix(0.75, 0, 0, 0.75, 0.0000035, 0.00002)" fill="none" stroke-linejoin="miter" d="M 540.000023 -0.0000266667 C 241.765632 -0.0000266667 -0.00000466667 241.76561 -0.00000466667 540.000001 C -0.00000466667 838.234391 241.765632 1080.000028 540.000023 1080.000028 C 838.234413 1080.000028 1080.00005 838.234391 1080.00005 540.000001 C 1080.00005 241.76561 838.234413 -0.0000266667 540.000023 -0.0000266667 Z M 540.000023 -0.0000266667 " stroke="#ffffff" stroke-width="16" stroke-opacity="1" stroke-miterlimit="4"/></g><path fill="#ffffff" d="M 404.996094 227.882812 C 391.316406 227.882812 380.1875 216.753906 380.1875 203.078125 C 380.1875 189.402344 391.316406 178.273438 404.996094 178.273438 C 418.671875 178.273438 429.800781 189.402344 429.800781 203.078125 C 429.800781 216.753906 418.683594 227.882812 404.996094 227.882812 Z M 404.996094 189.6875 C 397.613281 189.6875 391.613281 195.699219 391.613281 203.066406 C 391.613281 210.4375 397.625 216.445312 404.996094 216.445312 C 412.375 216.445312 418.375 210.4375 418.375 203.066406 C 418.375 195.699219 412.375 189.6875 404.996094 189.6875 Z M 404.996094 189.6875 " fill-opacity="1" fill-rule="nonzero"/><path fill="#ffffff" d="M 440.117188 257.25 C 437.398438 257.25 435 255.304688 434.496094 252.539062 C 431.949219 238.246094 419.539062 227.882812 404.996094 227.882812 C 390.460938 227.882812 378.054688 238.257812 375.480469 252.539062 C 374.921875 255.648438 371.953125 257.714844 368.855469 257.15625 C 365.746094 256.597656 363.679688 253.625 364.238281 250.53125 C 367.78125 230.785156 384.917969 216.46875 404.996094 216.46875 C 425.082031 216.46875 442.21875 230.796875 445.738281 250.550781 C 446.300781 253.660156 444.21875 256.632812 441.125 257.179688 C 440.792969 257.226562 440.449219 257.25 440.117188 257.25 Z M 440.117188 257.25 " fill-opacity="1" fill-rule="nonzero"/><g clip-path="url(#081794fd19)"><path fill="#ffffff" d="M 404.996094 270.640625 C 372.738281 270.640625 346.484375 244.394531 346.484375 212.128906 C 346.484375 179.859375 372.738281 153.628906 404.996094 153.628906 C 437.261719 153.628906 463.507812 179.871094 463.507812 212.140625 C 463.507812 244.40625 437.261719 270.640625 404.996094 270.640625 Z M 404.996094 165.054688 C 379.035156 165.054688 357.910156 186.167969 357.910156 212.140625 C 357.910156 238.109375 379.023438 259.226562 404.996094 259.226562 C 430.964844 259.226562 452.082031 238.109375 452.082031 212.140625 C 452.082031 186.167969 430.953125 165.054688 404.996094 165.054688 Z M 404.996094 165.054688 " fill-opacity="1" fill-rule="nonzero"/></g><path fill="#ffffff" d="M 212.140625 420.738281 C 198.460938 420.738281 187.332031 409.609375 187.332031 395.933594 C 187.332031 382.257812 198.460938 371.128906 212.140625 371.128906 C 225.816406 371.128906 236.945312 382.257812 236.945312 395.933594 C 236.945312 409.609375 225.816406 420.738281 212.140625 420.738281 Z M 212.140625 382.542969 C 204.757812 382.542969 198.757812 388.554688 198.757812 395.921875 C 198.757812 403.292969 204.769531 409.300781 212.140625 409.300781 C 219.507812 409.300781 225.519531 403.292969 225.519531 395.921875 C 225.519531 388.554688 219.519531 382.542969 212.140625 382.542969 Z M 212.140625 382.542969 " fill-opacity="1" fill-rule="nonzero"/><path fill="#ffffff" d="M 247.25 450.117188 C 244.53125 450.117188 242.132812 448.171875 241.628906 445.40625 C 239.082031 431.113281 226.671875 420.75 212.128906 420.75 C 197.59375 420.75 185.1875 431.125 182.613281 445.40625 C 182.054688 448.515625 179.085938 450.570312 175.988281 450.023438 C 172.878906 449.464844 170.8125 446.492188 171.371094 443.398438 C 174.914062 423.652344 192.050781 409.335938 212.128906 409.335938 C 232.214844 409.335938 249.351562 423.664062 252.871094 443.417969 C 253.421875 446.527344 251.351562 449.5 248.257812 450.046875 C 247.925781 450.082031 247.59375 450.117188 247.25 450.117188 Z M 247.25 450.117188 " fill-opacity="1" fill-rule="nonzero"/><g clip-path="url(#5e4e36328f)"><path fill="#ffffff" d="M 212.140625 463.507812 C 179.871094 463.507812 153.628906 437.261719 153.628906 404.996094 C 153.628906 372.738281 179.871094 346.484375 212.140625 346.484375 C 244.40625 346.484375 270.652344 372.726562 270.652344 404.996094 C 270.640625 437.261719 244.394531 463.507812 212.140625 463.507812 Z M 212.140625 357.910156 C 186.167969 357.910156 165.054688 379.035156 165.054688 404.996094 C 165.054688 430.953125 186.167969 452.082031 212.140625 452.082031 C 238.109375 452.082031 259.226562 430.953125 259.226562 404.996094 C 259.226562 379.035156 238.097656 357.910156 212.140625 357.910156 Z M 212.140625 357.910156 " fill-opacity="1" fill-rule="nonzero"/></g><path fill="#ffffff" d="M 404.996094 613.605469 C 391.316406 613.605469 380.1875 602.476562 380.1875 588.800781 C 380.1875 575.125 391.316406 563.996094 404.996094 563.996094 C 418.671875 563.996094 429.800781 575.125 429.800781 588.800781 C 429.800781 602.476562 418.683594 613.605469 404.996094 613.605469 Z M 404.996094 575.410156 C 397.613281 575.410156 391.613281 581.410156 391.613281 588.789062 C 391.613281 596.171875 397.625 602.167969 404.996094 602.167969 C 412.375 602.167969 418.375 596.171875 418.375 588.789062 C 418.375 581.410156 412.375 575.410156 404.996094 575.410156 Z M 404.996094 575.410156 " fill-opacity="1" fill-rule="nonzero"/><path fill="#ffffff" d="M 440.117188 642.972656 C 437.398438 642.972656 435 641.027344 434.496094 638.261719 C 431.949219 623.980469 419.539062 613.605469 404.996094 613.605469 C 390.460938 613.605469 378.054688 623.980469 375.480469 638.261719 C 374.921875 641.371094 371.953125 643.441406 368.855469 642.878906 C 365.746094 642.320312 363.679688 639.347656 364.238281 636.253906 C 367.78125 616.519531 384.917969 602.191406 404.996094 602.191406 C 425.082031 602.191406 442.21875 616.519531 445.738281 636.277344 C 446.300781 639.382812 444.21875 642.355469 441.125 642.902344 C 440.792969 642.949219 440.449219 642.972656 440.117188 642.972656 Z M 440.117188 642.972656 " fill-opacity="1" fill-rule="nonzero"/><g clip-path="url(#bc666dd4e7)"><path fill="#ffffff" d="M 404.996094 656.363281 C 372.738281 656.363281 346.484375 630.117188 346.484375 597.851562 C 346.484375 565.59375 372.726562 539.339844 404.996094 539.339844 C 437.261719 539.339844 463.507812 565.585938 463.507812 597.851562 C 463.507812 630.117188 437.261719 656.363281 404.996094 656.363281 Z M 404.996094 550.777344 C 379.035156 550.777344 357.910156 571.890625 357.910156 597.863281 C 357.910156 623.832031 379.035156 644.9375 404.996094 644.9375 C 430.953125 644.9375 452.082031 623.808594 452.082031 597.851562 C 452.082031 571.890625 430.953125 550.777344 404.996094 550.777344 Z M 404.996094 550.777344 " fill-opacity="1" fill-rule="nonzero"/></g><path fill="#ffffff" d="M 597.863281 420.738281 C 584.183594 420.738281 573.054688 409.609375 573.054688 395.933594 C 573.054688 382.257812 584.183594 371.128906 597.863281 371.128906 C 611.539062 371.128906 622.667969 382.257812 622.667969 395.933594 C 622.667969 409.609375 611.539062 420.738281 597.863281 420.738281 Z M 597.863281 382.542969 C 590.480469 382.542969 584.480469 388.554688 584.480469 395.921875 C 584.480469 403.292969 590.480469 409.300781 597.863281 409.300781 C 605.242188 409.300781 611.242188 403.292969 611.242188 395.921875 C 611.242188 388.554688 605.242188 382.542969 597.863281 382.542969 Z M 597.863281 382.542969 " fill-opacity="1" fill-rule="nonzero"/><path fill="#ffffff" d="M 632.972656 450.117188 C 630.253906 450.117188 627.855469 448.171875 627.351562 445.40625 C 624.804688 431.113281 612.394531 420.75 597.851562 420.75 C 583.316406 420.75 570.910156 431.125 568.335938 445.40625 C 567.777344 448.515625 564.820312 450.582031 561.710938 450.023438 C 558.601562 449.464844 556.535156 446.492188 557.09375 443.398438 C 560.636719 423.652344 577.777344 409.335938 597.851562 409.335938 C 617.9375 409.335938 635.074219 423.664062 638.59375 443.417969 C 639.15625 446.527344 637.074219 449.5 633.980469 450.046875 C 633.648438 450.082031 633.304688 450.117188 632.972656 450.117188 Z M 632.972656 450.117188 " fill-opacity="1" fill-rule="nonzero"/><g clip-path="url(#710eaf501c)"><path fill="#ffffff" d="M 597.851562 463.507812 C 565.59375 463.507812 539.339844 437.261719 539.339844 404.996094 C 539.339844 372.738281 565.585938 346.484375 597.851562 346.484375 C 630.117188 346.484375 656.363281 372.726562 656.363281 404.996094 C 656.363281 437.261719 630.117188 463.507812 597.851562 463.507812 Z M 597.851562 357.910156 C 571.890625 357.910156 550.765625 379.023438 550.765625 404.996094 C 550.765625 430.964844 571.878906 452.082031 597.851562 452.082031 C 623.820312 452.082031 644.9375 430.953125 644.9375 404.996094 C 644.9375 379.035156 623.808594 357.910156 597.851562 357.910156 Z M 597.851562 357.910156 " fill-opacity="1" fill-rule="nonzero"/></g><path fill="#ffffff" d="M 234.851562 329.757812 C 233.984375 329.757812 233.09375 329.550781 232.261719 329.128906 C 229.449219 327.699219 228.328125 324.261719 229.757812 321.449219 C 250.140625 281.4375 283.9375 249.320312 324.933594 231.003906 C 325.664062 230.671875 326.464844 230.5 327.265625 230.5 C 330.417969 230.5 332.976562 233.058594 332.976562 236.214844 C 332.976562 238.625 331.480469 240.691406 329.367188 241.527344 C 290.851562 258.800781 259.097656 289.011719 239.9375 326.625 C 238.933594 328.625 236.933594 329.757812 234.851562 329.757812 Z M 234.851562 329.757812 " fill-opacity="1" fill-rule="nonzero"/><path fill="#ffffff" d="M 575.113281 329.699219 C 572.804688 329.699219 570.804688 328.328125 569.914062 326.351562 C 550.628906 288.667969 518.75 258.492188 480.140625 241.332031 C 478.074219 240.476562 476.613281 238.429688 476.613281 236.054688 C 476.613281 232.898438 479.160156 230.339844 482.324219 230.339844 L 482.335938 230.339844 C 483.136719 230.339844 483.925781 230.511719 484.65625 230.832031 C 525.789062 249.078125 559.734375 281.230469 580.21875 321.382812 C 580.632812 322.179688 580.847656 323.070312 580.847656 323.976562 C 580.824219 327.128906 578.265625 329.699219 575.113281 329.699219 Z M 575.113281 329.699219 " fill-opacity="1" fill-rule="nonzero"/><path fill="#ffffff" d="M 321.222656 587.820312 C 320.351562 587.820312 319.484375 587.625 318.695312 587.234375 C 278.71875 567.675781 246.234375 534.757812 227.222656 494.539062 C 225.871094 491.683594 227.09375 488.277344 229.941406 486.929688 C 232.796875 485.582031 236.203125 486.804688 237.550781 489.648438 C 255.441406 527.492188 285.996094 558.476562 323.597656 576.90625 C 325.5625 577.808594 326.933594 579.796875 326.933594 582.105469 C 326.921875 585.269531 324.375 587.820312 321.222656 587.820312 Z M 321.222656 587.820312 " fill-opacity="1" fill-rule="nonzero"/><path fill="#ffffff" d="M 495.144531 584.574219 C 493.109375 584.574219 491.132812 583.476562 490.105469 581.558594 C 488.609375 578.78125 489.660156 575.320312 492.4375 573.820312 C 529.535156 553.917969 559.027344 521.640625 575.46875 482.964844 C 576.703125 480.0625 580.050781 478.714844 582.960938 479.9375 C 585.863281 481.171875 587.222656 484.53125 585.992188 487.433594 C 568.53125 528.496094 537.238281 562.761719 497.851562 583.886719 C 496.972656 584.355469 496.046875 584.574219 495.144531 584.574219 Z M 495.144531 584.574219 " fill-opacity="1" fill-rule="nonzero"/><path fill="#ffffff" d="M 575.113281 329.6875 C 574.578125 329.6875 574.027344 329.609375 573.492188 329.449219 L 548.308594 322.019531 C 545.28125 321.128906 543.554688 317.953125 544.445312 314.925781 C 545.335938 311.898438 548.515625 310.171875 551.542969 311.0625 L 571.824219 317.050781 L 579.433594 299.042969 C 580.667969 296.140625 584.015625 294.78125 586.917969 296.003906 C 589.816406 297.238281 591.179688 300.585938 589.957031 303.488281 L 580.359375 326.191406 C 579.464844 328.363281 577.363281 329.6875 575.113281 329.6875 Z M 575.113281 329.6875 " fill-opacity="1" fill-rule="nonzero"/><path fill="#ffffff" d="M 318.445312 265.085938 C 317.769531 265.085938 317.085938 264.960938 316.410156 264.710938 C 313.460938 263.589844 311.988281 260.289062 313.109375 257.339844 L 319.953125 239.402344 L 302.769531 232.363281 C 299.84375 231.164062 298.449219 227.828125 299.648438 224.914062 C 300.847656 221.988281 304.171875 220.59375 307.097656 221.792969 L 329.449219 230.945312 C 332.316406 232.121094 333.722656 235.367188 332.625 238.269531 L 323.792969 261.417969 C 322.910156 263.679688 320.753906 265.085938 318.445312 265.085938 Z M 318.445312 265.085938 " fill-opacity="1" fill-rule="nonzero"/><path fill="#ffffff" d="M 223.703125 520.726562 C 223.027344 520.726562 222.34375 520.613281 221.679688 520.347656 C 218.730469 519.230469 217.246094 515.9375 218.355469 512.980469 L 227.027344 490.070312 C 228.136719 487.144531 231.390625 485.648438 234.328125 486.722656 L 258.265625 495.453125 C 261.222656 496.539062 262.753906 499.816406 261.679688 502.777344 C 260.597656 505.734375 257.316406 507.265625 254.355469 506.191406 L 235.722656 499.40625 L 229.050781 517.035156 C 228.179688 519.320312 226.011719 520.726562 223.703125 520.726562 Z M 223.703125 520.726562 " fill-opacity="1" fill-rule="nonzero"/><path fill="#ffffff" d="M 518.019531 591.804688 C 517.449219 591.804688 516.863281 591.714844 516.292969 591.542969 L 493.40625 584.3125 C 490.640625 583.441406 488.972656 580.644531 489.523438 577.796875 L 494.128906 553.609375 C 494.722656 550.511719 497.703125 548.480469 500.8125 549.0625 C 503.90625 549.65625 505.941406 552.640625 505.359375 555.746094 L 501.703125 574.941406 L 519.742188 580.644531 C 522.75 581.589844 524.417969 584.800781 523.46875 587.820312 C 522.691406 590.253906 520.441406 591.804688 518.019531 591.804688 Z M 518.019531 591.804688 " fill-opacity="1" fill-rule="nonzero"/><path fill="#ffffff" d="M 339.902344 449.316406 C 339.078125 449.316406 338.257812 449.132812 337.480469 448.777344 C 335.46875 447.839844 334.1875 445.820312 334.1875 443.601562 L 334.1875 422.933594 C 313.246094 420.132812 297.042969 402.148438 297.042969 380.453125 C 297.042969 356.8125 316.273438 337.59375 339.902344 337.59375 L 403.988281 337.59375 C 427.628906 337.59375 446.847656 356.824219 446.847656 380.453125 C 446.847656 404.082031 427.617188 423.308594 403.988281 423.308594 L 373.152344 423.308594 L 343.570312 447.988281 C 342.519531 448.859375 341.214844 449.316406 339.902344 449.316406 Z M 339.902344 349.007812 C 322.570312 349.007812 308.46875 363.109375 308.46875 380.441406 C 308.46875 397.773438 322.570312 411.875 339.902344 411.875 C 343.054688 411.875 345.613281 414.433594 345.613281 417.585938 L 345.613281 431.386719 L 367.414062 413.199219 C 368.445312 412.339844 369.734375 411.875 371.070312 411.875 L 403.988281 411.875 C 421.320312 411.875 435.421875 397.773438 435.421875 380.441406 C 435.421875 363.109375 421.320312 349.007812 403.988281 349.007812 Z M 339.902344 349.007812 " fill-opacity="1" fill-rule="nonzero"/><path fill="#ffffff" d="M 472.542969 472.40625 C 471.230469 472.40625 469.925781 471.949219 468.886719 471.082031 L 441.375 448.128906 L 412.707031 448.128906 C 394.929688 448.128906 379.011719 436.246094 373.984375 419.21875 C 373.09375 416.191406 374.820312 413.015625 377.847656 412.125 C 380.875 411.234375 384.050781 412.957031 384.941406 415.988281 C 388.542969 428.179688 399.957031 436.703125 412.707031 436.703125 L 443.441406 436.703125 C 444.78125 436.703125 446.070312 437.167969 447.097656 438.027344 L 466.832031 454.492188 L 466.832031 442.414062 C 466.832031 439.261719 469.390625 436.703125 472.542969 436.703125 C 480.289062 436.703125 487.570312 433.683594 493.042969 428.222656 C 498.515625 422.75 501.519531 415.484375 501.519531 407.75 C 501.519531 391.773438 488.515625 378.773438 472.542969 378.773438 L 440.390625 378.773438 C 437.238281 378.773438 434.679688 376.214844 434.679688 373.058594 C 434.679688 369.90625 437.238281 367.347656 440.390625 367.347656 L 472.542969 367.347656 C 494.824219 367.347656 512.945312 385.46875 512.945312 407.75 C 512.945312 418.535156 508.742188 428.679688 501.121094 436.300781 C 494.859375 442.5625 486.882812 446.515625 478.257812 447.738281 L 478.257812 466.695312 C 478.257812 468.910156 476.976562 470.933594 474.964844 471.871094 C 474.199219 472.222656 473.367188 472.40625 472.542969 472.40625 Z M 472.542969 472.40625 " fill-opacity="1" fill-rule="nonzero"/><path fill="#ffffff" d="M 345.707031 386.152344 C 344.199219 386.152344 342.734375 385.546875 341.671875 384.484375 C 341.410156 384.222656 341.171875 383.925781 340.953125 383.617188 C 340.746094 383.308594 340.578125 382.976562 340.4375 382.632812 C 340.289062 382.28125 340.175781 381.925781 340.109375 381.5625 C 340.027344 381.195312 339.992188 380.816406 339.992188 380.441406 C 339.992188 378.945312 340.609375 377.46875 341.671875 376.40625 C 341.9375 376.144531 342.222656 375.90625 342.542969 375.699219 C 342.851562 375.492188 343.179688 375.3125 343.523438 375.171875 C 343.867188 375.023438 344.222656 374.921875 344.585938 374.84375 C 345.328125 374.695312 346.082031 374.695312 346.824219 374.84375 C 347.191406 374.921875 347.546875 375.023438 347.890625 375.171875 C 348.242188 375.3125 348.574219 375.492188 348.882812 375.699219 C 349.191406 375.90625 349.488281 376.144531 349.75 376.40625 C 350.8125 377.46875 351.417969 378.945312 351.417969 380.441406 C 351.417969 380.816406 351.386719 381.195312 351.304688 381.5625 C 351.238281 381.925781 351.121094 382.28125 350.984375 382.632812 C 350.835938 382.976562 350.664062 383.308594 350.460938 383.617188 C 350.253906 383.925781 350.015625 384.222656 349.75 384.484375 C 349.488281 384.75 349.191406 384.988281 348.882812 385.195312 C 348.574219 385.398438 348.242188 385.582031 347.890625 385.71875 C 347.546875 385.867188 347.191406 385.972656 346.824219 386.050781 C 346.460938 386.121094 346.082031 386.152344 345.707031 386.152344 Z M 345.707031 386.152344 " fill-opacity="1" fill-rule="nonzero"/><path fill="#ffffff" d="M 371.941406 386.152344 C 371.574219 386.152344 371.199219 386.121094 370.832031 386.050781 C 370.464844 385.972656 370.101562 385.867188 369.757812 385.71875 C 369.414062 385.582031 369.082031 385.398438 368.773438 385.195312 C 368.464844 384.988281 368.167969 384.75 367.90625 384.484375 C 367.644531 384.222656 367.402344 383.925781 367.199219 383.617188 C 366.992188 383.308594 366.808594 382.976562 366.671875 382.632812 C 366.523438 382.28125 366.421875 381.925781 366.339844 381.5625 C 366.273438 381.195312 366.226562 380.816406 366.226562 380.441406 C 366.226562 378.945312 366.84375 377.46875 367.90625 376.40625 C 368.167969 376.144531 368.464844 375.90625 368.773438 375.699219 C 369.082031 375.492188 369.414062 375.3125 369.757812 375.171875 C 370.101562 375.023438 370.464844 374.921875 370.832031 374.84375 C 372.683594 374.476562 374.660156 375.082031 375.984375 376.40625 C 377.046875 377.46875 377.652344 378.945312 377.652344 380.441406 C 377.652344 380.816406 377.617188 381.195312 377.550781 381.5625 C 377.46875 381.925781 377.367188 382.28125 377.21875 382.632812 C 377.082031 382.976562 376.898438 383.308594 376.691406 383.617188 C 376.488281 383.925781 376.246094 384.222656 375.984375 384.484375 C 374.921875 385.546875 373.449219 386.152344 371.941406 386.152344 Z M 371.941406 386.152344 " fill-opacity="1" fill-rule="nonzero"/><path fill="#ffffff" d="M 398.183594 386.152344 C 397.808594 386.152344 397.429688 386.121094 397.066406 386.050781 C 396.699219 385.972656 396.34375 385.867188 395.992188 385.71875 C 395.648438 385.582031 395.316406 385.398438 395.007812 385.195312 C 394.699219 384.988281 394.402344 384.75 394.140625 384.484375 C 393.078125 383.421875 392.472656 381.949219 392.472656 380.441406 C 392.472656 380.074219 392.507812 379.699219 392.585938 379.332031 C 392.65625 378.96875 392.769531 378.601562 392.90625 378.257812 C 393.054688 377.914062 393.226562 377.585938 393.433594 377.277344 C 393.636719 376.96875 393.878906 376.671875 394.140625 376.40625 C 394.402344 376.144531 394.699219 375.90625 395.007812 375.699219 C 395.316406 375.492188 395.648438 375.3125 395.992188 375.171875 C 396.34375 375.023438 396.699219 374.921875 397.066406 374.84375 C 397.808594 374.695312 398.5625 374.695312 399.304688 374.84375 C 399.660156 374.921875 400.023438 375.023438 400.367188 375.171875 C 400.710938 375.3125 401.042969 375.492188 401.351562 375.699219 C 401.667969 375.90625 401.957031 376.144531 402.21875 376.40625 C 402.480469 376.671875 402.722656 376.96875 402.925781 377.277344 C 403.144531 377.585938 403.316406 377.914062 403.464844 378.257812 C 403.601562 378.601562 403.714844 378.96875 403.785156 379.332031 C 403.863281 379.699219 403.898438 380.074219 403.898438 380.441406 C 403.898438 381.949219 403.28125 383.421875 402.21875 384.484375 C 401.957031 384.75 401.667969 384.988281 401.351562 385.195312 C 401.042969 385.398438 400.710938 385.582031 400.367188 385.71875 C 400.023438 385.867188 399.660156 385.972656 399.304688 386.050781 C 398.925781 386.121094 398.550781 386.152344 398.183594 386.152344 Z M 398.183594 386.152344 " fill-opacity="1" fill-rule="nonzero"/></svg>