<?xml version="1.0" encoding="utf-8"?>
<!-- Generator: Adobe Illustrator 26.4.1, SVG Export Plug-In . SVG Version: 6.00 Build 0)  -->
<svg version="1.1" id="Layer_1" xmlns="http://www.w3.org/2000/svg" xmlns:xlink="http://www.w3.org/1999/xlink" x="0px" y="0px"
	 viewBox="0 0 1080 1080" style="enable-background:new 0 0 1080 1080;" xml:space="preserve">
<style type="text/css">
	.st0{clip-path:url(#SVGID_00000060718381566146747760000004358423613787930551_);}
	.st1{fill:none;stroke:#FFFFFF;stroke-width:16;}
	.st2{fill-rule:evenodd;clip-rule:evenodd;fill:#FFFFFF;}
	.st3{fill:none;}
</style>
<g>
	<defs>
		<circle id="SVGID_1_" cx="540" cy="540" r="540"/>
	</defs>
	<clipPath id="SVGID_00000096052775393749367690000011314720325300766643_">
		<use xlink:href="#SVGID_1_"  style="overflow:visible;"/>
	</clipPath>
	<g style="clip-path:url(#SVGID_00000096052775393749367690000011314720325300766643_);">
		<path class="st1" d="M540,0C241.8,0,0,241.8,0,540s241.8,540,540,540s540-241.8,540-540S838.2,0,540,0z"/>
	</g>
</g>
<path class="st2" d="M456,825.3c-0.8,0-1.5,0-2.3-0.4c-124.4-37.5-211.6-155-211.6-285.1c0-25.3,3.4-50.1,9.6-74.2
	c1.2-4.2,5.4-6.5,9.2-5.7c4.2,1.1,6.5,5.4,5.7,9.6c-6.1,23-9.2,46.7-9.2,70.4c0,123.6,82.7,234.6,200.5,270.6
	c4.2,1.1,6.5,5.4,5.4,9.6C462.1,823,459.1,825.3,456,825.3z M820.7,620.2c-0.4,0-1.1,0-1.9-0.4c-3.8-1.1-6.5-5-5.4-9.2
	c5.7-23,8.8-46.7,8.8-70.8c0-123.2-82.3-234.6-200.5-270.2c-3.8-1.2-6.1-5.4-5-9.6c1.2-4.2,5.4-6.5,9.6-5
	c124.4,37.5,211.2,154.6,211.2,284.7c0,25.3-3.1,50.5-9.2,74.6C827.2,617.9,824.1,620.2,820.7,620.2z"/>
<g>
	<path class="st2" d="M661.9,861.6H474.8c-16.1,0-29.1-13-29.1-29.1c0-31.8,26-57.4,57.8-57.4h88.8c-0.8-2.3-1.5-5-1.5-7.7
		c-1.1-11.9,3.8-24.9,13-34.8c17.2-18.8,74.6-74.6,98.3-97.6c4.2-4.2,5.7-5.7,8-8.8c0.8-1.1,1.9-2.7,3.1-4.2
		c23-28.7,73.5-44,104.1-20.7c9.9,7.7,34.4,14.5,43.2,16.5c3.4,1.1,6.1,4.2,6.1,7.7v109.8c0,4.2-3.4,7.7-7.7,7.7
		c-42.1,0-153.1,84.2-192.5,116.7C665.3,860.9,663.4,861.6,661.9,861.6z M503.4,790.5c-23.3,0-42.5,18.8-42.5,42.1
		c0,7.7,6.1,13.8,13.8,13.8h184.1c18-14.9,135.8-109.4,192.5-117.9v-97.2c-10.7-2.7-32.1-9.2-43.2-17.6c-23.7-18-64.7-5-83,18
		c-1.1,1.5-1.9,2.7-2.7,3.8c-2.7,3.4-4.6,5.7-9.6,10.3c-18.4,18.4-80.4,78.4-97.6,97.2c-6.5,6.9-9.9,15.7-9.2,23.3
		c0.4,4.2,1.9,8,4.6,11.5c1.1,1.1,2.7,2.3,4.2,3.4c9.9,7.7,28.7,14.9,39.4,4.2l86.5-86.1c3.1-3.1,7.7-3.1,10.7,0
		c3.1,2.7,3.1,7.7,0,10.7l-86.5,86.1c-16.5,16.8-42.5,10.3-59.3-2.7c-1.5-0.8-2.7-1.9-3.8-3.1H503.4z"/>
</g>
<rect x="213.4" y="218.3" class="st3" width="421.3" height="272.4"/>
<g>
	<path class="st2" d="M299.1,490.1c-13.4,0-26-3.8-36.4-11.5c-9.9-7.7-34.8-14.5-43.6-16.8c-3.4-0.8-5.7-3.8-5.7-7.3V344.6
		c0-4.2,3.4-7.7,7.7-7.7c42.1,0,153.1-84.6,192.1-116.7c1.5-1.2,3.1-1.9,5-1.9h187.1c15.7,0,28.7,13,28.7,28.7
		c0,31.8-25.6,57.8-57.4,57.8h-88.8c0.8,2.3,1.1,5,1.5,7.3c1.1,12.2-3.8,24.9-13.4,35.2c-17.2,18.4-74.2,74.2-98.3,97.6
		c-4.2,4.2-5.4,5.7-7.7,8.8c-1.1,1.2-1.9,2.3-3.1,4.2C351.5,476.7,324.4,490.1,299.1,490.1z M228.7,448.3c10.7,3.1,32.1,9.6,43.2,18
		c23.7,18,64.7,5,82.7-18c1.1-1.5,2.3-2.7,3.1-3.8c2.7-3.4,4.2-5.7,9.2-10.7c18.8-18,80.7-78.1,98-96.8c6.5-6.9,9.9-15.7,9.2-23.3
		c-0.4-6.1-3.4-11.1-8.8-15.3c-9.9-7.3-28.7-14.5-39.8-3.8l-86.1,86.1c-3.1,3.1-8,3.1-10.7,0c-3.1-3.1-3.1-7.7,0-10.7l86.1-86.5
		c16.5-16.5,42.5-10,59.7,2.7c1.5,1.1,2.7,2.3,3.8,3.4h98.3c23.3,0,42.1-19.1,42.1-42.5c0-7.3-6.1-13.4-13.4-13.4H420.8
		c-18,14.5-135.5,109.4-192.1,117.9V448.3z"/>
</g>
<path class="st2" d="M553.2,587.6c-21,0-37.9-16.8-37.9-37.9v-21c0-4.2,3.1-7.7,7.7-7.7c4.2,0,7.7,3.4,7.7,7.7v21
	c0,12.6,9.9,22.6,22.6,22.6c12.6,0,22.6-10,22.6-22.6v-20.7c0-4.2,3.4-7.7,7.7-7.7c4.2,0,7.7,3.4,7.7,7.7v20.7
	C591.1,570.8,574.2,587.6,553.2,587.6z"/>
<path class="st2" d="M663.8,658.4H442.2c-4.2,0-7.7-3.4-7.7-7.7v-50.9c0-24.9,20.3-45.2,45.2-45.2h45.9c4.2,0,7.7,3.4,7.7,7.7
	c0,4.2-3.4,7.7-7.7,7.7h-45.9c-16.5,0-29.8,13.4-29.8,29.8v43.2h206.3v-43.2c0-16.5-13-29.8-29.5-29.8h-45.9c-4.2,0-7.7-3.4-7.7-7.7
	c0-4.2,3.4-7.7,7.7-7.7h45.9c24.9,0,44.8,20.3,44.8,45.2v50.9C671.4,655,668,658.4,663.8,658.4z"/>
<path class="st2" d="M497.7,658.4c-4.2,0-7.7-3.4-7.7-7.7v-25.6c0-9.6-8-17.6-18-17.6h-29.8c-4.2,0-7.7-3.4-7.7-7.7s3.4-7.7,7.7-7.7
	h29.8c18.4,0,33.3,14.9,33.3,32.9v25.6C505.4,655,501.9,658.4,497.7,658.4z"/>
<path class="st2" d="M608.7,658.4c-4.2,0-7.7-3.4-7.7-7.7v-25.6c0-18,14.9-32.9,33.3-32.9h29.5c4.2,0,7.7,3.4,7.7,7.7
	s-3.4,7.7-7.7,7.7h-29.5c-9.9,0-18,8-18,17.6v25.6C616.3,655,612.9,658.4,608.7,658.4z"/>
<path class="st2" d="M553.6,542.9c-45.9,0-83.8-37.9-88-88c-0.8-8-1.9-23.3-1.2-34.1c0.8-17.2,5.4-41.7,23-61.6
	c15.3-17.2,41.7-27.6,70.8-27.6c41.3,0,74.2,19.5,83.4,50.1c0.4,0.8,0.4,1.5,0.4,2.3V443c0.8,27.9-9.2,54.7-27.9,73.9
	C597.6,533.7,576.2,542.9,553.6,542.9z M558.2,346.9c-24.9,0-47.1,8.4-59.3,22.2c-14.5,16.8-18.8,37.9-19.1,52.4
	c-0.8,10,0.8,25.6,1.2,32.1c3.4,42.1,34.8,73.9,72.7,73.9c18.4,0,36-7.7,49.4-21.4c15.7-16.1,24.5-39,23.7-63.1v-57.8
	C617.5,356.9,583.8,346.9,558.2,346.9z"/>
<path class="st2" d="M472.5,443.8c-0.8,0-1.5-0.4-2.7-0.4c-3.8-1.5-6.1-5.7-4.6-9.9c3.8-10.3,12.2-29.1,27.9-34.8
	c8.8-3.4,18.8-2.3,28.7,3.8c30.6,17.6,63.5,0,63.5-0.4c9.9-5.7,19.9-6.9,28.7-3.4c14.5,5.4,23,21,27.6,33.3c1.5,4.2-0.4,8.4-4.6,9.9
	c-3.8,1.5-8.4-0.8-9.6-4.6c-5-13-11.5-21.8-18.8-24.5c-4.6-1.5-9.6-0.8-15.7,2.7c-1.5,1.1-40.6,22.2-78.8,0
	c-5.7-3.4-11.1-4.2-15.7-2.7c-10.3,3.8-16.5,19.5-18.8,25.6C478.6,441.8,475.5,443.8,472.5,443.8z"/>
<path class="st2" d="M769.4,433.8h-18.8c-4.2,0-7.7-3.4-7.7-7.7c0-4.2,3.4-7.7,7.7-7.7h18.8c4.2,0,7.7,3.4,7.7,7.7
	C777.1,430.4,773.6,433.8,769.4,433.8z"/>
<path class="st2" d="M708.2,433.8h-18.8c-4.2,0-7.7-3.4-7.7-7.7c0-4.2,3.4-7.7,7.7-7.7h18.8c4.2,0,7.7,3.4,7.7,7.7
	C715.8,430.4,712.4,433.8,708.2,433.8z"/>
<path class="st2" d="M729.6,410.8c-4.2,0-7.7-3.1-7.7-7.7v-18.8c0-4.2,3.4-7.7,7.7-7.7c4.2,0,7.7,3.4,7.7,7.7v18.8
	C737.3,407.8,733.8,410.8,729.6,410.8z"/>
<path class="st2" d="M729.6,475.5c-4.2,0-7.7-3.4-7.7-7.7v-18.8c0-4.2,3.4-7.7,7.7-7.7c4.2,0,7.7,3.4,7.7,7.7v18.8
	C737.3,472.1,733.8,475.5,729.6,475.5z"/>
<path class="st2" d="M390.6,558.2h-18.8c-4.2,0-7.7-3.4-7.7-7.7c0-4.2,3.4-7.7,7.7-7.7h18.8c4.2,0,7.7,3.4,7.7,7.7
	C398.2,554.7,394.8,558.2,390.6,558.2z"/>
<path class="st2" d="M329,558.2h-18.8c-4.2,0-7.7-3.4-7.7-7.7c0-4.2,3.4-7.7,7.7-7.7H329c4.6,0,7.7,3.4,7.7,7.7
	C336.6,554.7,333.5,558.2,329,558.2z"/>
<path class="st2" d="M350.4,535.6c-4.2,0-7.7-3.4-7.7-7.7v-18.8c0-4.6,3.4-7.7,7.7-7.7c4.2,0,7.7,3.1,7.7,7.7v18.8
	C358,532.2,354.6,535.6,350.4,535.6z"/>
<path class="st2" d="M350.4,599.9c-4.2,0-7.7-3.4-7.7-7.7v-18.8c0-4.2,3.4-7.7,7.7-7.7c4.2,0,7.7,3.4,7.7,7.7v18.8
	C358,596.4,354.6,599.9,350.4,599.9z"/>
<path class="st2" d="M500.4,732.7h-18.8c-4.2,0-7.7-3.4-7.7-7.7c0-4.2,3.4-7.7,7.7-7.7h18.8c4.2,0,7.7,3.4,7.7,7.7
	C508,729.2,504.6,732.7,500.4,732.7z"/>
<path class="st2" d="M439.2,732.7h-18.8c-4.2,0-7.7-3.4-7.7-7.7c0-4.2,3.4-7.7,7.7-7.7h18.8c4.2,0,7.7,3.4,7.7,7.7
	C446.8,729.2,443.4,732.7,439.2,732.7z"/>
<path class="st2" d="M460.6,709.7c-4.2,0-7.7-3.4-7.7-7.7v-18.8c0-4.2,3.4-7.7,7.7-7.7c4.2,0,7.7,3.4,7.7,7.7v18.8
	C468.2,706.3,464.8,709.7,460.6,709.7z"/>
<path class="st2" d="M460.6,774.4c-4.2,0-7.7-3.4-7.7-7.7V748c0-4.2,3.4-7.7,7.7-7.7c4.2,0,7.7,3.4,7.7,7.7v18.8
	C468.2,770.9,464.8,774.4,460.6,774.4z"/>
</svg>
