<svg xmlns="http://www.w3.org/2000/svg" xmlns:xlink="http://www.w3.org/1999/xlink" width="500" zoomAndPan="magnify" viewBox="0 0 375 374.999991" height="500" preserveAspectRatio="xMidYMid meet" version="1.0"><defs><clipPath id="02244da660"><path d="M 187.5 0 C 83.945312 0 0 83.945312 0 187.5 C 0 291.054688 83.945312 375 187.5 375 C 291.054688 375 375 291.054688 375 187.5 C 375 83.945312 291.054688 0 187.5 0 Z M 187.5 0 " clip-rule="nonzero"/></clipPath><clipPath id="63030bcb4e"><path d="M 66.542969 240 L 98 240 L 98 249 L 66.542969 249 Z M 66.542969 240 " clip-rule="nonzero"/></clipPath><clipPath id="943a6036d4"><path d="M 66.542969 252 L 98 252 L 98 260 L 66.542969 260 Z M 66.542969 252 " clip-rule="nonzero"/></clipPath><clipPath id="3eda02e1a1"><path d="M 89 79.15625 L 168 79.15625 L 168 116 L 89 116 Z M 89 79.15625 " clip-rule="nonzero"/></clipPath><clipPath id="956430f337"><path d="M 244 207 L 256 207 L 256 268.90625 L 244 268.90625 Z M 244 207 " clip-rule="nonzero"/></clipPath><clipPath id="d69cc77906"><path d="M 101 205 L 112 205 L 112 268.90625 L 101 268.90625 Z M 101 205 " clip-rule="nonzero"/></clipPath><clipPath id="61c5782494"><path d="M 147 205 L 158 205 L 158 268.90625 L 147 268.90625 Z M 147 205 " clip-rule="nonzero"/></clipPath><clipPath id="cbb4950664"><path d="M 199 205 L 210 205 L 210 268.90625 L 199 268.90625 Z M 199 205 " clip-rule="nonzero"/></clipPath></defs><rect x="-37.5" width="450" fill="#ffffff" y="-37.499999" height="449.999989" fill-opacity="1"/><rect x="-37.5" width="450" fill="#ffffff" y="-37.499999" height="449.999989" fill-opacity="1"/><g clip-path="url(#02244da660)"><rect x="-37.5" width="450" fill="#ffffff" y="-37.499999" height="449.999989" fill-opacity="1"/><path stroke-linecap="butt" transform="matrix(0.75, 0, 0, 0.75, 0.0000045, 0)" fill="none" stroke-linejoin="miter" d="M 249.999994 0 C 111.927078 0 -0.000006 111.927084 -0.000006 250 C -0.000006 388.072917 111.927078 500.000001 249.999994 500.000001 C 388.072911 500.000001 499.999995 388.072917 499.999995 250 C 499.999995 111.927084 388.072911 0 249.999994 0 Z M 249.999994 0 " stroke="#f03725" stroke-width="20" stroke-opacity="1" stroke-miterlimit="4"/></g><path fill="#f03725" d="M 70.894531 224.273438 L 97.242188 224.273438 L 97.242188 216.355469 L 73.832031 216.355469 C 72.722656 218.800781 71.746094 221.4375 70.894531 224.273438 Z M 70.894531 224.273438 " fill-opacity="1" fill-rule="nonzero"/><g clip-path="url(#63030bcb4e)"><path fill="#f03725" d="M 66.9375 248.640625 L 97.242188 248.640625 L 97.242188 240.71875 L 67.648438 240.71875 C 67.351562 243.246094 67.113281 245.886719 66.9375 248.640625 Z M 66.9375 248.640625 " fill-opacity="1" fill-rule="nonzero"/></g><g clip-path="url(#943a6036d4)"><path fill="#f03725" d="M 66.542969 259.800781 L 97.242188 259.800781 L 97.242188 252.902344 L 66.714844 252.902344 C 66.625 255.132812 66.566406 257.429688 66.542969 259.800781 Z M 66.542969 259.800781 " fill-opacity="1" fill-rule="nonzero"/></g><path fill="#f03725" d="M 68.21875 236.457031 L 97.242188 236.457031 L 97.242188 228.539062 L 69.753906 228.539062 C 69.160156 231.035156 68.644531 233.671875 68.21875 236.457031 Z M 68.21875 236.457031 " fill-opacity="1" fill-rule="nonzero"/><path fill="#f03725" d="M 244.238281 202.445312 C 246.789062 203.625 248.730469 204.710938 250.128906 205.734375 C 250.929688 191.761719 257.996094 182.933594 271.195312 179.414062 C 265.148438 174.769531 256.289062 170.429688 244.238281 166.210938 Z M 244.238281 202.445312 " fill-opacity="1" fill-rule="nonzero"/><path fill="#f03725" d="M 247.242188 115.339844 L 247.242188 97.761719 L 161.050781 97.761719 L 172.457031 115.339844 Z M 247.242188 115.339844 " fill-opacity="1" fill-rule="nonzero"/><path fill="#f03725" d="M 157.207031 181.21875 L 157.207031 119.605469 L 150.867188 119.605469 L 150.867188 153.601562 C 150.867188 154.777344 149.914062 155.730469 148.738281 155.730469 L 109.976562 155.730469 C 108.800781 155.730469 107.84375 154.777344 107.84375 153.601562 L 107.84375 119.605469 L 101.507812 119.605469 L 101.507812 181.21875 L 107.84375 181.21875 L 107.84375 166.695312 C 107.84375 165.515625 108.800781 164.5625 109.976562 164.5625 C 111.152344 164.5625 112.105469 165.515625 112.105469 166.695312 L 112.105469 181.21875 L 120.765625 181.21875 L 120.765625 166.695312 C 120.765625 165.515625 121.71875 164.5625 122.894531 164.5625 C 124.074219 164.5625 125.027344 165.515625 125.027344 166.695312 L 125.027344 181.21875 L 133.683594 181.21875 L 133.683594 166.695312 C 133.683594 165.515625 134.640625 164.5625 135.816406 164.5625 C 136.992188 164.5625 137.949219 165.515625 137.949219 166.695312 L 137.949219 181.21875 L 146.605469 181.21875 L 146.605469 166.695312 C 146.605469 165.515625 147.558594 164.5625 148.738281 164.5625 C 149.914062 164.5625 150.867188 165.515625 150.867188 166.695312 L 150.867188 181.21875 Z M 157.207031 181.21875 " fill-opacity="1" fill-rule="nonzero"/><path fill="#f03725" d="M 230.851562 119.605469 L 234.996094 119.605469 L 234.996094 142.933594 L 230.851562 142.933594 Z M 230.851562 119.605469 " fill-opacity="1" fill-rule="nonzero"/><g clip-path="url(#3eda02e1a1)"><path fill="#f03725" d="M 155.355469 96.816406 C 155.34375 96.796875 155.332031 96.78125 155.320312 96.761719 L 143.910156 79.175781 L 113.050781 79.175781 L 89.585938 115.339844 L 167.375 115.339844 Z M 155.355469 96.816406 " fill-opacity="1" fill-rule="nonzero"/></g><path fill="#f03725" d="M 89.640625 203.820312 L 89.640625 197.707031 C 84.019531 201.304688 79.515625 206.027344 76.027344 212.089844 L 97.242188 212.089844 L 97.242188 205.949219 L 91.773438 205.949219 C 90.59375 205.949219 89.640625 204.996094 89.640625 203.820312 Z M 89.640625 203.820312 " fill-opacity="1" fill-rule="nonzero"/><g clip-path="url(#956430f337)"><path fill="#f03725" d="M 248.214844 209.644531 C 247.589844 209.105469 246.414062 208.289062 244.238281 207.179688 L 244.238281 268.648438 L 255.359375 268.648438 L 255.359375 222.40625 C 253.246094 216.972656 251.101562 212.132812 248.214844 209.644531 Z M 248.214844 209.644531 " fill-opacity="1" fill-rule="nonzero"/></g><path fill="#f03725" d="M 161.46875 181.21875 L 166.9375 181.21875 C 168.117188 181.21875 169.070312 182.171875 169.070312 183.347656 L 169.070312 188.160156 L 178.664062 188.160156 L 178.664062 163.625 C 178.664062 162.445312 179.617188 161.492188 180.792969 161.492188 C 181.972656 161.492188 182.925781 162.445312 182.925781 163.625 L 182.925781 188.160156 L 194.636719 188.160156 L 194.636719 163.625 C 194.636719 162.445312 195.59375 161.492188 196.769531 161.492188 C 197.945312 161.492188 198.902344 162.445312 198.902344 163.625 L 198.902344 188.160156 L 210.613281 188.160156 L 210.613281 163.625 C 210.613281 162.445312 211.570312 161.492188 212.746094 161.492188 C 213.921875 161.492188 214.878906 162.445312 214.878906 163.625 L 214.878906 188.160156 L 226.589844 188.160156 L 226.589844 163.625 C 226.589844 162.445312 227.542969 161.492188 228.722656 161.492188 C 229.898438 161.492188 230.851562 162.445312 230.851562 163.625 L 230.851562 188.160156 L 239.976562 188.160156 L 239.976562 147.199219 L 161.46875 147.199219 Z M 161.46875 181.21875 " fill-opacity="1" fill-rule="nonzero"/><path fill="#f03725" d="M 287.367188 205.039062 C 287.351562 205 287.332031 204.960938 287.316406 204.921875 C 283.882812 197.117188 280.042969 188.398438 275.0625 182.898438 C 260.527344 185.710938 253.75 194.71875 254.355469 210.390625 C 256.785156 214.125 258.644531 219.019531 260.578125 224.125 C 260.992188 225.21875 261.414062 226.335938 261.851562 227.460938 C 265.097656 214.964844 273.925781 207.160156 287.367188 205.039062 Z M 287.367188 205.039062 " fill-opacity="1" fill-rule="nonzero"/><path fill="#f03725" d="M 315.296875 233.566406 C 311.273438 232.113281 307.773438 230.488281 304.746094 228.671875 C 302.300781 229.207031 294.269531 231.371094 289.996094 237.410156 C 285.699219 243.480469 286.625 254.566406 287.035156 257.984375 C 291.929688 260.617188 297.707031 263.105469 304.253906 265.375 C 308.769531 266.941406 313.753906 266.496094 317.933594 264.160156 C 322.128906 261.8125 325.128906 257.773438 326.164062 253.078125 C 327.976562 244.851562 323.304688 236.464844 315.296875 233.566406 Z M 317.722656 252.925781 C 315.742188 257.996094 309.132812 260.15625 302.960938 257.746094 C 296.789062 255.335938 293.390625 249.273438 295.367188 244.199219 C 297.347656 239.128906 303.957031 236.96875 310.128906 239.378906 C 316.304688 241.789062 319.703125 247.851562 317.722656 252.925781 Z M 317.722656 252.925781 " fill-opacity="1" fill-rule="nonzero"/><g clip-path="url(#d69cc77906)"><path fill="#f03725" d="M 101.507812 205.949219 L 111.277344 205.949219 L 111.277344 268.648438 L 101.507812 268.648438 Z M 101.507812 205.949219 " fill-opacity="1" fill-rule="nonzero"/></g><path fill="#f03725" d="M 300.199219 225.511719 C 298.949219 224.5 297.808594 223.4375 296.78125 222.320312 C 294.011719 219.316406 291.597656 214.480469 289.164062 209.085938 C 274.640625 210.953125 266.285156 219.796875 264.921875 234.742188 C 267.277344 239.78125 270.234375 244.753906 274.445312 249.027344 C 276.574219 251.1875 279.285156 253.304688 282.511719 255.347656 C 282.171875 249.972656 282.339844 240.847656 286.519531 234.945312 C 290.269531 229.644531 296.125 226.878906 300.199219 225.511719 Z M 300.199219 225.511719 " fill-opacity="1" fill-rule="nonzero"/><g clip-path="url(#61c5782494)"><path fill="#f03725" d="M 147.433594 205.949219 L 157.207031 205.949219 L 157.207031 268.648438 L 147.433594 268.648438 Z M 147.433594 205.949219 " fill-opacity="1" fill-rule="nonzero"/></g><path fill="#f03725" d="M 169.070312 192.421875 L 239.976562 192.421875 L 239.976562 201.6875 L 169.070312 201.6875 Z M 169.070312 192.421875 " fill-opacity="1" fill-rule="nonzero"/><path fill="#f03725" d="M 93.902344 185.480469 L 164.808594 185.480469 L 164.808594 201.6875 L 93.902344 201.6875 Z M 93.902344 185.480469 " fill-opacity="1" fill-rule="nonzero"/><g clip-path="url(#cbb4950664)"><path fill="#f03725" d="M 199.636719 205.949219 L 209.410156 205.949219 L 209.410156 268.648438 L 199.636719 268.648438 Z M 199.636719 205.949219 " fill-opacity="1" fill-rule="nonzero"/></g></svg>