<svg xmlns="http://www.w3.org/2000/svg" xmlns:xlink="http://www.w3.org/1999/xlink" width="500" zoomAndPan="magnify" viewBox="0 0 375 374.999991" height="500" preserveAspectRatio="xMidYMid meet" version="1.0"><defs><clipPath id="65c743fee1"><path d="M 3.28125 3.75 L 368.71875 3.75 L 368.71875 369.1875 L 3.28125 369.1875 Z M 3.28125 3.75 " clip-rule="nonzero"/></clipPath><clipPath id="105fd4e20b"><path d="M 186 3.75 C 85.085938 3.75 3.28125 85.554688 3.28125 186.46875 C 3.28125 287.382812 85.085938 369.1875 186 369.1875 C 286.914062 369.1875 368.71875 287.382812 368.71875 186.46875 C 368.71875 85.554688 286.914062 3.75 186 3.75 Z M 186 3.75 " clip-rule="nonzero"/></clipPath><clipPath id="e195b61615"><path d="M 3.28125 3.75 L 368.53125 3.75 L 368.53125 369 L 3.28125 369 Z M 3.28125 3.75 " clip-rule="nonzero"/></clipPath><clipPath id="691db27807"><path d="M 185.996094 3.75 C 85.085938 3.75 3.28125 85.554688 3.28125 186.460938 C 3.28125 287.371094 85.085938 369.175781 185.996094 369.175781 C 286.902344 369.175781 368.707031 287.371094 368.707031 186.460938 C 368.707031 85.554688 286.902344 3.75 185.996094 3.75 Z M 185.996094 3.75 " clip-rule="nonzero"/></clipPath><clipPath id="3b75fa0b81"><path d="M 77.761719 232 L 272 232 L 272 255.34375 L 77.761719 255.34375 Z M 77.761719 232 " clip-rule="nonzero"/></clipPath><clipPath id="6503bd99a7"><path d="M 109 117.34375 L 250 117.34375 L 250 223 L 109 223 Z M 109 117.34375 " clip-rule="nonzero"/></clipPath></defs><rect x="-37.5" width="450" fill="#ffffff" y="-37.499999" height="449.999989" fill-opacity="1"/><rect x="-37.5" width="450" fill="#ffffff" y="-37.499999" height="449.999989" fill-opacity="1"/><g clip-path="url(#65c743fee1)"><g clip-path="url(#105fd4e20b)"><path fill="#ffffff" d="M 3.28125 3.75 L 368.71875 3.75 L 368.71875 369.1875 L 3.28125 369.1875 Z M 3.28125 3.75 " fill-opacity="1" fill-rule="nonzero"/></g></g><g clip-path="url(#e195b61615)"><g clip-path="url(#691db27807)"><path stroke-linecap="butt" transform="matrix(0.75, 0, 0, 0.75, 3.28166, 3.75)" fill="none" stroke-linejoin="miter" d="M 243.619276 0.000000328333 C 109.072384 0.000000328333 -0.000546801 109.072931 -0.000546801 243.614615 C -0.000546801 378.161508 109.072384 487.234439 243.619276 487.234439 C 378.160961 487.234439 487.233891 378.161508 487.233891 243.614615 C 487.233891 109.072931 378.160961 0.000000328333 243.619276 0.000000328333 Z M 243.619276 0.000000328333 " stroke="#699bd2" stroke-width="20" stroke-opacity="1" stroke-miterlimit="4"/></g></g><g clip-path="url(#3b75fa0b81)"><path fill="#699bd2" d="M 271.496094 255.6875 C 267.253906 255.6875 263.210938 254.734375 259.585938 253.082031 C 255.882812 251.398438 251.6875 250.382812 247.304688 250.382812 C 242.90625 250.382812 238.710938 251.402344 235.007812 253.082031 C 231.378906 254.734375 227.335938 255.6875 223.09375 255.6875 C 218.851562 255.6875 214.792969 254.734375 211.183594 253.082031 C 207.421875 251.398438 203.222656 250.382812 198.886719 250.382812 C 194.503906 250.382812 190.308594 251.402344 186.589844 253.082031 C 182.980469 254.734375 178.875 255.6875 174.679688 255.6875 C 170.4375 255.6875 166.394531 254.734375 162.734375 253.082031 C 159.015625 251.398438 154.835938 250.382812 150.484375 250.382812 C 146.101562 250.382812 141.90625 251.402344 138.1875 253.082031 C 134.578125 254.734375 130.472656 255.6875 126.230469 255.6875 C 122.046875 255.6875 117.945312 254.734375 114.332031 253.082031 C 110.613281 251.398438 106.417969 250.382812 102.035156 250.382812 C 97.683594 250.382812 93.503906 251.402344 89.785156 253.082031 C 86.113281 254.734375 82.070312 255.6875 77.828125 255.6875 L 77.828125 237.804688 C 82.070312 237.804688 86.113281 236.832031 89.785156 235.242188 C 93.503906 233.515625 97.683594 232.496094 102.035156 232.496094 C 106.417969 232.496094 110.613281 233.515625 114.332031 235.242188 C 117.945312 236.832031 122.046875 237.804688 126.230469 237.804688 C 130.472656 237.804688 134.578125 236.832031 138.1875 235.242188 C 141.90625 233.515625 146.101562 232.496094 150.484375 232.496094 C 154.835938 232.496094 159.015625 233.515625 162.734375 235.242188 C 166.394531 236.832031 170.433594 237.804688 174.679688 237.804688 C 178.875 237.804688 182.980469 236.832031 186.589844 235.242188 C 190.308594 233.515625 194.503906 232.496094 198.886719 232.496094 C 203.222656 232.496094 207.417969 233.515625 211.183594 235.242188 C 214.792969 236.832031 218.851562 237.804688 223.09375 237.804688 C 227.335938 237.804688 231.378906 236.832031 235.007812 235.242188 C 238.710938 233.515625 242.90625 232.496094 247.304688 232.496094 C 251.6875 232.496094 255.882812 233.515625 259.585938 235.242188 C 263.210938 236.832031 267.253906 237.804688 271.496094 237.804688 Z M 271.496094 255.6875 " fill-opacity="1" fill-rule="nonzero"/></g><path fill="#699bd2" d="M 243.445312 205.113281 C 256.160156 205.113281 266.480469 194.742188 266.480469 182.015625 C 266.480469 169.285156 256.15625 158.964844 243.445312 158.964844 C 230.699219 158.964844 220.394531 169.285156 220.394531 182.015625 C 220.394531 194.742188 229.789062 205.113281 243.445312 205.113281 Z M 243.445312 205.113281 " fill-opacity="1" fill-rule="nonzero"/><g clip-path="url(#6503bd99a7)"><path fill="#699bd2" d="M 109.257812 218.089844 C 111.046875 218.523438 112.730469 219.136719 114.332031 219.863281 C 117.945312 221.5 122.046875 222.46875 126.226562 222.46875 C 130.46875 222.46875 134.578125 221.5 138.1875 219.863281 C 141.90625 218.179688 146.101562 217.117188 150.484375 217.117188 C 154.835938 217.117188 159.015625 218.179688 162.734375 219.863281 C 166.394531 221.5 170.433594 222.46875 174.679688 222.46875 C 178.875 222.46875 182.980469 221.5 186.589844 219.863281 C 190.308594 218.179688 194.503906 217.117188 198.886719 217.117188 C 203.222656 217.117188 207.417969 218.179688 211.183594 219.863281 C 214.792969 221.5 218.851562 222.46875 223.09375 222.46875 C 226.179688 222.46875 229.160156 221.945312 231.96875 221.066406 L 193.53125 151.699219 L 238.230469 143.535156 C 244.785156 142.285156 249.554688 137.132812 249.554688 130.527344 C 249.554688 123.246094 243.628906 117.414062 236.394531 117.414062 C 235.867188 117.414062 235.390625 117.414062 234.894531 117.457031 L 165.851562 130.03125 C 161.003906 131.140625 154.585938 138.242188 158.242188 146.957031 C 158.445312 147.4375 158.628906 147.882812 158.828125 148.363281 L 176.851562 180.902344 Z M 109.257812 218.089844 " fill-opacity="1" fill-rule="nonzero"/></g></svg>