<svg xmlns="http://www.w3.org/2000/svg" xmlns:xlink="http://www.w3.org/1999/xlink" width="500" zoomAndPan="magnify" viewBox="0 0 375 374.999991" height="500" preserveAspectRatio="xMidYMid meet" version="1.0"><defs><clipPath id="de8e160df2"><path d="M 187.5 0 C 83.945312 0 0 83.945312 0 187.5 C 0 291.054688 83.945312 375 187.5 375 C 291.054688 375 375 291.054688 375 187.5 C 375 83.945312 291.054688 0 187.5 0 Z M 187.5 0 " clip-rule="nonzero"/></clipPath><clipPath id="8aa3ad0f61"><path d="M 70.386719 105 L 178 105 L 178 157 L 70.386719 157 Z M 70.386719 105 " clip-rule="nonzero"/></clipPath><clipPath id="a0001951f8"><path d="M 197 105 L 304.386719 105 L 304.386719 157 L 197 157 Z M 197 105 " clip-rule="nonzero"/></clipPath><clipPath id="99f6af3b78"><path d="M 184 55.785156 L 220 55.785156 L 220 100 L 184 100 Z M 184 55.785156 " clip-rule="nonzero"/></clipPath><clipPath id="0bcaa7ca3b"><path d="M 76 274 L 299 274 L 299 283.785156 L 76 283.785156 Z M 76 274 " clip-rule="nonzero"/></clipPath></defs><rect x="-37.5" width="450" fill="#ffffff" y="-37.499999" height="449.999989" fill-opacity="1"/><rect x="-37.5" width="450" fill="#ffffff" y="-37.499999" height="449.999989" fill-opacity="1"/><g clip-path="url(#de8e160df2)"><rect x="-37.5" width="450" fill="#ffffff" y="-37.499999" height="449.999989" fill-opacity="1"/><path stroke-linecap="butt" transform="matrix(0.75, 0, 0, 0.75, 0.0000045, 0)" fill="none" stroke-linejoin="miter" d="M 249.999994 0 C 111.927078 0 -0.000006 111.927084 -0.000006 250 C -0.000006 388.072917 111.927078 500.000001 249.999994 500.000001 C 388.072911 500.000001 499.999995 388.072917 499.999995 250 C 499.999995 111.927084 388.072911 0 249.999994 0 Z M 249.999994 0 " stroke="#92cc8e" stroke-width="20" stroke-opacity="1" stroke-miterlimit="4"/></g><g clip-path="url(#8aa3ad0f61)"><path fill="#92cc8e" d="M 135.363281 140.207031 C 135.363281 140.085938 135.367188 139.964844 135.386719 139.847656 C 135.398438 139.742188 135.414062 139.640625 135.433594 139.546875 C 135.445312 139.46875 135.464844 139.398438 135.496094 139.324219 C 135.5 139.285156 135.511719 139.246094 135.53125 139.207031 C 135.539062 139.160156 135.558594 139.105469 135.578125 139.0625 C 135.601562 138.992188 135.621094 138.929688 135.65625 138.871094 C 135.679688 138.8125 135.703125 138.761719 135.734375 138.714844 C 135.742188 138.679688 135.769531 138.640625 135.796875 138.605469 C 135.828125 138.542969 135.859375 138.488281 135.90625 138.429688 C 135.914062 138.398438 135.9375 138.363281 135.972656 138.328125 C 136.011719 138.265625 136.054688 138.207031 136.109375 138.148438 C 136.171875 138.066406 136.242188 137.992188 136.320312 137.917969 C 136.386719 137.851562 136.460938 137.78125 136.535156 137.726562 C 136.539062 137.714844 136.550781 137.703125 136.558594 137.703125 C 136.582031 137.679688 136.609375 137.660156 136.632812 137.640625 L 177.992188 105.695312 L 88.316406 105.695312 L 70.386719 156.59375 L 135.363281 156.59375 Z M 135.363281 140.207031 " fill-opacity="1" fill-rule="nonzero"/></g><g clip-path="url(#a0001951f8)"><path fill="#92cc8e" d="M 238.367188 137.640625 C 238.390625 137.65625 238.414062 137.679688 238.4375 137.703125 C 238.445312 137.703125 238.453125 137.710938 238.464844 137.730469 C 238.535156 137.785156 238.609375 137.851562 238.679688 137.917969 C 238.757812 137.992188 238.824219 138.066406 238.886719 138.148438 C 238.9375 138.207031 238.984375 138.265625 239.023438 138.328125 C 239.058594 138.363281 239.082031 138.398438 239.09375 138.429688 C 239.136719 138.488281 239.171875 138.542969 239.199219 138.605469 C 239.230469 138.640625 239.25 138.679688 239.265625 138.714844 C 239.292969 138.761719 239.324219 138.816406 239.34375 138.871094 C 239.375 138.933594 239.402344 138.992188 239.421875 139.0625 C 239.445312 139.105469 239.460938 139.160156 239.46875 139.207031 C 239.484375 139.246094 239.5 139.285156 239.503906 139.324219 C 239.53125 139.398438 239.546875 139.46875 239.566406 139.546875 C 239.589844 139.644531 239.601562 139.742188 239.609375 139.847656 C 239.625 139.964844 239.632812 140.082031 239.632812 140.207031 L 239.632812 156.59375 L 304.605469 156.59375 L 286.679688 105.695312 L 197.007812 105.695312 Z M 238.367188 137.640625 " fill-opacity="1" fill-rule="nonzero"/></g><g clip-path="url(#99f6af3b78)"><path fill="#92cc8e" d="M 190.742188 87.0625 L 216.246094 87.0625 C 218.039062 87.0625 219.492188 85.609375 219.492188 83.820312 L 219.492188 59.019531 C 219.492188 57.230469 218.039062 55.777344 216.246094 55.777344 L 187.496094 55.777344 C 185.707031 55.777344 184.25 57.230469 184.25 59.019531 L 184.25 99.199219 L 190.742188 99.199219 Z M 190.742188 87.0625 " fill-opacity="1" fill-rule="nonzero"/></g><g clip-path="url(#0bcaa7ca3b)"><path fill="#92cc8e" d="M 76.222656 274.671875 L 298.769531 274.671875 L 298.769531 284.160156 L 76.222656 284.160156 Z M 76.222656 274.671875 " fill-opacity="1" fill-rule="nonzero"/></g><path fill="#92cc8e" d="M 187.496094 214.617188 C 178.464844 214.617188 171.121094 221.964844 171.121094 230.992188 L 171.121094 268.179688 L 203.878906 268.179688 L 203.878906 230.992188 C 203.871094 221.964844 196.527344 214.617188 187.496094 214.617188 Z M 187.496094 214.617188 " fill-opacity="1" fill-rule="nonzero"/><path fill="#92cc8e" d="M 239.628906 268.179688 L 285.730469 268.179688 L 285.730469 163.082031 L 239.628906 163.082031 Z M 250.613281 175.789062 L 274.742188 175.789062 C 276.535156 175.789062 277.988281 177.242188 277.988281 179.035156 C 277.988281 180.824219 276.535156 182.277344 274.742188 182.277344 L 250.613281 182.277344 C 248.824219 182.277344 247.375 180.824219 247.375 179.035156 C 247.375 177.242188 248.824219 175.789062 250.613281 175.789062 Z M 250.613281 200.183594 L 274.742188 200.183594 C 276.535156 200.183594 277.988281 201.636719 277.988281 203.425781 C 277.988281 205.222656 276.535156 206.671875 274.742188 206.671875 L 250.613281 206.671875 C 248.824219 206.671875 247.375 205.222656 247.375 203.425781 C 247.375 201.636719 248.824219 200.183594 250.613281 200.183594 Z M 250.613281 224.585938 L 274.742188 224.585938 C 276.535156 224.585938 277.988281 226.039062 277.988281 227.828125 C 277.988281 229.621094 276.535156 231.074219 274.742188 231.074219 L 250.613281 231.074219 C 248.824219 231.074219 247.375 229.621094 247.375 227.828125 C 247.375 226.039062 248.824219 224.585938 250.613281 224.585938 Z M 250.613281 248.988281 L 274.742188 248.988281 C 276.535156 248.988281 277.988281 250.4375 277.988281 252.230469 C 277.988281 254.023438 276.535156 255.476562 274.742188 255.476562 L 250.613281 255.476562 C 248.824219 255.476562 247.375 254.023438 247.375 252.230469 C 247.375 250.433594 248.824219 248.988281 250.613281 248.988281 Z M 250.613281 248.988281 " fill-opacity="1" fill-rule="nonzero"/><path fill="#92cc8e" d="M 135.363281 268.179688 L 135.363281 163.082031 L 89.261719 163.082031 L 89.261719 268.179688 Z M 100.246094 175.789062 L 124.375 175.789062 C 126.164062 175.789062 127.621094 177.242188 127.621094 179.035156 C 127.621094 180.824219 126.164062 182.277344 124.375 182.277344 L 100.246094 182.277344 C 98.453125 182.277344 97 180.824219 97 179.035156 C 97 177.242188 98.453125 175.789062 100.246094 175.789062 Z M 100.246094 200.183594 L 124.375 200.183594 C 126.164062 200.183594 127.621094 201.636719 127.621094 203.425781 C 127.621094 205.222656 126.164062 206.671875 124.375 206.671875 L 100.246094 206.671875 C 98.453125 206.671875 97 205.222656 97 203.425781 C 97 201.636719 98.453125 200.183594 100.246094 200.183594 Z M 100.246094 224.585938 L 124.375 224.585938 C 126.164062 224.585938 127.621094 226.039062 127.621094 227.828125 C 127.621094 229.621094 126.164062 231.074219 124.375 231.074219 L 100.246094 231.074219 C 98.453125 231.074219 97 229.621094 97 227.828125 C 97 226.039062 98.453125 224.585938 100.246094 224.585938 Z M 100.246094 248.988281 L 124.375 248.988281 C 126.164062 248.988281 127.621094 250.4375 127.621094 252.230469 C 127.621094 254.023438 126.164062 255.476562 124.375 255.476562 L 100.246094 255.476562 C 98.453125 255.476562 97 254.023438 97 252.230469 C 97 250.433594 98.453125 248.988281 100.246094 248.988281 Z M 100.246094 248.988281 " fill-opacity="1" fill-rule="nonzero"/><path fill="#92cc8e" d="M 233.140625 268.179688 L 233.140625 141.804688 L 187.496094 106.554688 L 141.851562 141.804688 L 141.851562 268.179688 L 164.625 268.179688 L 164.625 230.992188 C 164.625 218.382812 174.886719 208.121094 187.496094 208.121094 C 200.105469 208.121094 210.367188 218.382812 210.367188 230.992188 L 210.367188 268.179688 Z M 175.769531 130.949219 C 175.953125 130.375 176.171875 129.824219 176.429688 129.285156 C 176.433594 129.28125 176.429688 129.28125 176.429688 129.28125 C 177.894531 126.242188 180.578125 123.890625 183.84375 122.875 C 185 122.519531 186.222656 122.324219 187.492188 122.324219 C 188.761719 122.324219 189.988281 122.519531 191.140625 122.875 C 194.410156 123.890625 197.089844 126.238281 198.554688 129.28125 C 198.554688 129.28125 198.550781 129.28125 198.554688 129.285156 C 198.8125 129.824219 199.03125 130.375 199.210938 130.949219 C 199.570312 132.105469 199.765625 133.332031 199.765625 134.601562 C 199.765625 135.871094 199.574219 137.089844 199.210938 138.246094 C 199.03125 138.820312 198.8125 139.378906 198.554688 139.914062 C 198.550781 139.917969 198.554688 139.917969 198.554688 139.917969 C 197.089844 142.960938 194.40625 145.304688 191.140625 146.320312 C 189.984375 146.683594 188.761719 146.871094 187.492188 146.871094 C 186.222656 146.871094 184.992188 146.683594 183.84375 146.320312 C 180.574219 145.304688 177.894531 142.964844 176.429688 139.917969 C 176.429688 139.917969 176.433594 139.917969 176.429688 139.914062 C 176.171875 139.378906 175.953125 138.820312 175.769531 138.246094 C 175.410156 137.089844 175.21875 135.871094 175.21875 134.601562 C 175.21875 133.332031 175.414062 132.105469 175.769531 130.949219 Z M 157.488281 187.617188 L 157.488281 170.625 L 217.507812 170.625 L 217.507812 187.617188 Z M 157.488281 187.617188 " fill-opacity="1" fill-rule="nonzero"/></svg>