<svg xmlns="http://www.w3.org/2000/svg" xmlns:xlink="http://www.w3.org/1999/xlink" width="500" zoomAndPan="magnify" viewBox="0 0 375 374.999991" height="500" preserveAspectRatio="xMidYMid meet" version="1.0"><defs><clipPath id="48560d0459"><path d="M 187.5 0 C 83.945312 0 0 83.945312 0 187.5 C 0 291.054688 83.945312 375 187.5 375 C 291.054688 375 375 291.054688 375 187.5 C 375 83.945312 291.054688 0 187.5 0 Z M 187.5 0 " clip-rule="nonzero"/></clipPath><clipPath id="1afa6a90b8"><path d="M 62.328125 78.371094 L 312.828125 78.371094 L 312.828125 268 L 62.328125 268 Z M 62.328125 78.371094 " clip-rule="nonzero"/></clipPath></defs><rect x="-37.5" width="450" fill="#ffffff" y="-37.499999" height="449.999989" fill-opacity="1"/><rect x="-37.5" width="450" fill="#ffffff" y="-37.499999" height="449.999989" fill-opacity="1"/><g clip-path="url(#48560d0459)"><rect x="-37.5" width="450" fill="#ffffff" y="-37.499999" height="449.999989" fill-opacity="1"/><path stroke-linecap="butt" transform="matrix(0.75, 0, 0, 0.75, 0.0000045, 0)" fill="none" stroke-linejoin="miter" d="M 249.999994 0 C 111.927078 0 -0.000006 111.927084 -0.000006 250 C -0.000006 388.072917 111.927078 500.000001 249.999994 500.000001 C 388.072911 500.000001 499.999995 388.072917 499.999995 250 C 499.999995 111.927084 388.072911 0 249.999994 0 Z M 249.999994 0 " stroke="#f9ce61" stroke-width="20" stroke-opacity="1" stroke-miterlimit="4"/></g><path fill="#f9ce61" d="M 175.246094 185.234375 L 161.316406 201.398438 C 159.847656 203.105469 157.691406 204.105469 155.402344 204.105469 L 143.261719 204.105469 C 141 204.105469 138.820312 203.105469 137.347656 201.398438 L 123.445312 185.234375 C 121.34375 182.789062 117.664062 182.527344 115.191406 184.628906 C 112.75 186.730469 112.460938 190.410156 114.589844 192.855469 L 133.433594 214.75 L 133.433594 263.027344 C 133.433594 266.261719 136.0625 268.863281 139.265625 268.863281 C 142.5 268.863281 145.101562 266.234375 145.101562 263.027344 L 145.101562 239.664062 C 145.101562 238.796875 145.8125 238.085938 146.679688 238.085938 L 152.015625 238.085938 C 152.882812 238.085938 153.589844 238.796875 153.589844 239.664062 L 153.589844 263.027344 C 153.589844 266.261719 156.21875 268.863281 159.425781 268.863281 C 162.65625 268.863281 165.261719 266.234375 165.261719 263.027344 L 165.261719 214.75 L 184.105469 192.855469 C 186.207031 190.410156 185.945312 186.730469 183.5 184.628906 C 181.054688 182.5 177.351562 182.789062 175.246094 185.234375 Z M 175.246094 185.234375 " fill-opacity="1" fill-rule="nonzero"/><path fill="#f9ce61" d="M 149.359375 198.691406 C 157.21875 198.691406 163.605469 192.304688 163.605469 184.445312 C 163.605469 176.585938 157.21875 170.199219 149.359375 170.199219 C 141.5 170.199219 135.113281 176.585938 135.113281 184.445312 C 135.140625 192.332031 141.5 198.691406 149.359375 198.691406 Z M 149.359375 198.691406 " fill-opacity="1" fill-rule="nonzero"/><path fill="#f9ce61" d="M 251.570312 187.230469 L 238.796875 201.527344 C 237.324219 203.183594 235.195312 204.132812 232.988281 204.132812 L 221.554688 204.132812 C 219.347656 204.132812 217.21875 203.183594 215.746094 201.527344 L 202.976562 187.230469 C 200.820312 184.839844 197.140625 184.628906 194.722656 186.785156 C 192.304688 188.941406 192.09375 192.621094 194.25 195.039062 L 212.671875 215.667969 L 205.078125 238.796875 C 204.183594 241.53125 206.207031 244.34375 209.074219 244.34375 L 212.566406 244.34375 L 210.492188 262.425781 C 210.125 265.632812 212.4375 268.523438 215.644531 268.890625 C 218.847656 269.257812 221.742188 266.945312 222.109375 263.738281 L 224.261719 245 C 224.316406 244.605469 224.632812 244.316406 225.027344 244.316406 L 229.441406 244.316406 C 229.835938 244.316406 230.175781 244.605469 230.203125 245 L 232.359375 263.738281 C 232.699219 266.707031 235.222656 268.917969 238.167969 268.917969 C 238.375 268.917969 238.613281 268.917969 238.851562 268.890625 C 242.054688 268.523438 244.34375 265.632812 243.976562 262.425781 L 241.898438 244.34375 L 245.394531 244.34375 C 248.257812 244.34375 250.308594 241.53125 249.390625 238.824219 L 241.792969 215.695312 L 260.21875 195.0625 C 262.371094 192.671875 262.160156 188.964844 259.742188 186.8125 C 257.429688 184.601562 253.726562 184.8125 251.570312 187.230469 Z M 251.570312 187.230469 " fill-opacity="1" fill-rule="nonzero"/><path fill="#f9ce61" d="M 227.285156 198.691406 C 235.144531 198.691406 241.53125 192.304688 241.53125 184.445312 C 241.53125 176.585938 235.144531 170.199219 227.285156 170.199219 C 219.425781 170.199219 213.039062 176.585938 213.039062 184.445312 C 213.039062 192.332031 219.425781 198.691406 227.285156 198.691406 Z M 227.285156 198.691406 " fill-opacity="1" fill-rule="nonzero"/><g clip-path="url(#1afa6a90b8)"><path fill="#f9ce61" d="M 312.253906 170.042969 C 311.964844 167.886719 310.863281 165.996094 309.101562 164.734375 L 263.898438 132.117188 L 263.898438 97.714844 C 263.898438 95.980469 262.503906 94.585938 260.769531 94.585938 L 251.492188 94.585938 C 249.757812 94.585938 248.363281 95.980469 248.363281 97.714844 L 248.363281 120.894531 L 190.988281 79.5 C 189.964844 78.765625 188.757812 78.371094 187.496094 78.371094 C 186.234375 78.371094 185.023438 78.765625 184 79.5 L 65.859375 164.734375 C 64.101562 165.996094 62.96875 167.886719 62.707031 170.042969 C 62.417969 172.199219 63.050781 174.300781 64.414062 175.957031 C 67.019531 179.109375 71.644531 179.714844 74.953125 177.324219 L 86.546875 168.964844 L 86.546875 264.449219 C 86.546875 266.183594 87.9375 267.574219 89.671875 267.574219 L 99.054688 267.574219 C 100.789062 267.574219 102.183594 266.183594 102.183594 264.449219 L 102.183594 157.691406 L 187.496094 96.113281 L 272.832031 157.691406 L 272.832031 264.449219 C 272.832031 266.183594 274.226562 267.574219 275.960938 267.574219 L 285.34375 267.574219 C 287.078125 267.574219 288.46875 266.183594 288.46875 264.449219 L 288.46875 168.964844 L 299.691406 177.0625 C 302.871094 179.375 307.445312 179.269531 310.179688 176.457031 C 311.808594 174.695312 312.570312 172.410156 312.253906 170.042969 Z M 312.253906 170.042969 " fill-opacity="1" fill-rule="nonzero"/></g><path fill="#f9ce61" d="M 210.570312 144.996094 C 210.570312 132.25 200.242188 121.921875 187.496094 121.921875 C 174.746094 121.921875 164.417969 132.25 164.417969 144.996094 C 164.417969 157.742188 174.746094 168.070312 187.496094 168.070312 C 200.242188 168.070312 210.570312 157.742188 210.570312 144.996094 Z M 197.746094 148.230469 L 187.496094 148.230469 C 185.707031 148.230469 184.261719 146.785156 184.261719 144.996094 L 184.261719 132.644531 C 184.261719 130.855469 185.707031 129.410156 187.496094 129.410156 C 189.28125 129.410156 190.726562 130.855469 190.726562 132.644531 L 190.726562 141.765625 L 197.746094 141.765625 C 199.53125 141.765625 200.976562 143.210938 200.976562 144.996094 C 200.976562 146.785156 199.53125 148.230469 197.746094 148.230469 Z M 197.746094 148.230469 " fill-opacity="1" fill-rule="nonzero"/></svg>