<svg xmlns="http://www.w3.org/2000/svg" xmlns:xlink="http://www.w3.org/1999/xlink" width="1080" zoomAndPan="magnify" viewBox="0 0 810 809.999993" height="1080" preserveAspectRatio="xMidYMid meet" version="1.0"><defs><clipPath id="72c5c6f0f7"><path d="M 405 0 C 181.324219 0 0 181.324219 0 405 C 0 628.675781 181.324219 810 405 810 C 628.675781 810 810 628.675781 810 405 C 810 181.324219 628.675781 0 405 0 Z M 405 0 " clip-rule="nonzero"/></clipPath><clipPath id="faa4755614"><path d="M 211.429688 206.722656 L 598.429688 206.722656 L 598.429688 603.472656 L 211.429688 603.472656 Z M 211.429688 206.722656 " clip-rule="nonzero"/></clipPath></defs><g clip-path="url(#72c5c6f0f7)"><path stroke-linecap="butt" transform="matrix(0.75, 0, 0, 0.75, 0.0000035, 0.00002)" fill="none" stroke-linejoin="miter" d="M 540.000023 -0.0000266667 C 241.765632 -0.0000266667 -0.00000466667 241.76561 -0.00000466667 540.000001 C -0.00000466667 838.234391 241.765632 1080.000028 540.000023 1080.000028 C 838.234413 1080.000028 1080.00005 838.234391 1080.00005 540.000001 C 1080.00005 241.76561 838.234413 -0.0000266667 540.000023 -0.0000266667 Z M 540.000023 -0.0000266667 " stroke="#ffffff" stroke-width="16" stroke-opacity="1" stroke-miterlimit="4"/></g><g clip-path="url(#faa4755614)"><path fill="#ffffff" d="M 593.851562 352.671875 L 572.523438 352.671875 L 572.523438 331.34375 C 572.523438 328.738281 570.410156 326.621094 567.800781 326.621094 L 529.617188 326.621094 L 529.617188 317.734375 C 529.617188 311.28125 525.425781 305.820312 519.179688 304.148438 L 504.648438 300.253906 C 502.792969 294.277344 500.382812 288.449219 497.46875 282.867188 L 504.992188 269.835938 C 508.203125 264.257812 507.292969 257.433594 502.742188 252.847656 L 483.492188 233.59375 C 478.917969 229.023438 472.082031 228.125 466.488281 231.371094 L 453.480469 238.882812 C 447.972656 235.992188 442.160156 233.582031 436.097656 231.691406 L 432.214844 217.144531 C 430.527344 210.914062 425.070312 206.722656 418.605469 206.722656 L 391.386719 206.722656 C 384.929688 206.722656 379.460938 210.914062 377.777344 217.160156 L 373.890625 231.691406 C 367.890625 233.546875 362.0625 235.96875 356.507812 238.882812 L 343.511719 231.382812 C 337.894531 228.125 331.058594 229.023438 326.5 233.621094 L 307.234375 252.859375 C 302.695312 257.433594 301.800781 264.257812 305.007812 269.851562 L 312.519531 282.867188 C 309.605469 288.449219 307.195312 294.277344 305.339844 300.253906 L 290.808594 304.148438 C 284.5625 305.820312 280.382812 311.28125 280.382812 317.734375 L 280.382812 326.621094 L 242.1875 326.621094 C 239.582031 326.621094 237.464844 328.738281 237.464844 331.34375 L 237.464844 352.671875 L 216.136719 352.671875 C 213.53125 352.671875 211.414062 354.789062 211.414062 357.394531 L 211.414062 598.550781 C 211.414062 601.15625 213.53125 603.273438 216.136719 603.273438 L 593.851562 603.273438 C 596.460938 603.273438 598.574219 601.15625 598.574219 598.550781 L 598.574219 357.394531 C 598.574219 354.789062 596.460938 352.671875 593.851562 352.671875 Z M 563.09375 567.792969 L 431.046875 567.792969 C 422.769531 567.792969 415.246094 571.074219 409.714844 576.410156 L 409.714844 459.015625 L 479.175781 459.015625 C 481.78125 459.015625 483.894531 456.902344 483.894531 454.292969 L 483.894531 416.957031 C 483.894531 392.75 465.578125 373.929688 435.371094 366.148438 C 443.964844 358.636719 449.757812 348.027344 450.972656 336.050781 L 563.09375 336.050781 Z M 344.570312 326.621094 C 346.980469 295.394531 373.152344 270.734375 404.996094 270.734375 C 436.835938 270.734375 463.007812 295.394531 465.417969 326.621094 L 450.972656 326.621094 C 448.613281 303.339844 428.894531 285.117188 404.996094 285.117188 C 381.09375 285.117188 361.375 303.339844 359.015625 326.621094 Z M 404.996094 294.546875 C 425.277344 294.546875 441.777344 311.058594 441.777344 331.34375 C 441.777344 351.628906 425.277344 368.152344 404.996094 368.152344 C 384.710938 368.152344 368.199219 351.640625 368.199219 331.34375 C 368.199219 311.046875 384.710938 294.546875 404.996094 294.546875 Z M 404.996094 377.582031 C 411.828125 377.582031 418.308594 376.082031 424.148438 373.414062 C 448.734375 377.554688 474.453125 391.066406 474.453125 416.957031 L 474.453125 449.585938 L 335.535156 449.585938 L 335.535156 416.957031 C 335.535156 391.066406 361.253906 377.554688 385.839844 373.414062 C 391.679688 376.082031 398.160156 377.582031 404.996094 377.582031 Z M 289.8125 317.734375 C 289.8125 315.582031 291.164062 313.824219 293.242188 313.257812 L 310.332031 308.6875 C 311.941406 308.253906 313.195312 307.015625 313.652344 305.402344 C 315.644531 298.371094 318.457031 291.535156 322.046875 285.082031 C 322.847656 283.632812 322.835938 281.859375 322.011719 280.421875 L 313.183594 265.128906 C 312.101562 263.261719 312.398438 261.046875 313.921875 259.511719 L 333.1875 240.269531 C 334.710938 238.734375 336.898438 238.453125 338.78125 239.546875 L 354.085938 248.371094 C 355.523438 249.207031 357.292969 249.222656 358.746094 248.410156 C 365.136719 244.820312 371.972656 241.992188 379.042969 240 C 380.640625 239.546875 381.894531 238.277344 382.324219 236.679688 L 386.886719 219.59375 C 387.449219 217.503906 389.222656 216.148438 391.386719 216.148438 L 418.605469 216.148438 C 420.765625 216.148438 422.539062 217.503906 423.101562 219.59375 L 427.664062 236.679688 C 428.09375 238.277344 429.335938 239.546875 430.933594 239.988281 C 438.089844 242.027344 444.925781 244.867188 451.242188 248.410156 C 452.695312 249.222656 454.464844 249.207031 455.902344 248.371094 L 471.222656 239.53125 C 473.089844 238.453125 475.289062 238.734375 476.816406 240.269531 L 496.054688 259.5 C 497.589844 261.046875 497.886719 263.261719 496.816406 265.128906 L 487.976562 280.421875 C 487.152344 281.859375 487.140625 283.632812 487.941406 285.070312 C 491.53125 291.523438 494.359375 298.371094 496.335938 305.402344 C 496.792969 307.015625 498.046875 308.253906 499.65625 308.6875 L 516.734375 313.257812 C 518.824219 313.8125 520.175781 315.570312 520.175781 317.734375 L 520.175781 326.621094 L 474.898438 326.621094 C 472.464844 290.195312 442.046875 261.292969 404.996094 261.292969 C 367.941406 261.292969 337.527344 290.195312 335.089844 326.621094 L 289.8125 326.621094 Z M 246.894531 336.050781 L 359.015625 336.050781 C 360.234375 348.027344 366.035156 358.636719 374.617188 366.148438 C 344.410156 373.929688 326.09375 392.75 326.09375 416.957031 L 326.09375 454.292969 C 326.09375 456.902344 328.207031 459.015625 330.8125 459.015625 L 400.273438 459.015625 L 400.273438 576.421875 C 394.742188 571.085938 387.21875 567.792969 378.945312 567.792969 L 246.894531 567.792969 Z M 220.84375 362.101562 L 237.464844 362.101562 L 237.464844 572.5 C 237.464844 575.105469 239.582031 577.222656 242.1875 577.222656 L 378.945312 577.222656 C 389.085938 577.222656 397.59375 584.339844 399.746094 593.84375 L 220.84375 593.84375 Z M 589.144531 593.84375 L 410.242188 593.84375 C 412.394531 584.339844 420.902344 577.222656 431.046875 577.222656 L 567.800781 577.222656 C 570.410156 577.222656 572.523438 575.105469 572.523438 572.5 L 572.523438 362.101562 L 589.144531 362.101562 Z M 497.433594 400.792969 C 497.433594 398.183594 499.546875 396.070312 502.152344 396.070312 L 546.375 396.070312 C 548.980469 396.070312 551.09375 398.183594 551.09375 400.792969 C 551.09375 403.398438 548.980469 405.511719 546.375 405.511719 L 502.152344 405.511719 C 499.546875 405.511719 497.433594 403.398438 497.433594 400.792969 Z M 497.433594 362.140625 C 497.433594 359.535156 499.546875 357.417969 502.152344 357.417969 L 546.375 357.417969 C 548.980469 357.417969 551.09375 359.535156 551.09375 362.140625 C 551.09375 364.746094 548.980469 366.859375 546.375 366.859375 L 502.152344 366.859375 C 499.546875 366.859375 497.433594 364.746094 497.433594 362.140625 Z M 258.894531 413.28125 C 258.894531 410.675781 261.007812 408.5625 263.613281 408.5625 L 307.835938 408.5625 C 310.441406 408.5625 312.558594 410.675781 312.558594 413.28125 C 312.558594 415.886719 310.441406 418.003906 307.835938 418.003906 L 263.613281 418.003906 C 261.007812 418.003906 258.894531 415.886719 258.894531 413.28125 Z M 258.894531 374.628906 C 258.894531 372.023438 261.007812 369.910156 263.613281 369.910156 L 307.835938 369.910156 C 310.441406 369.910156 312.558594 372.023438 312.558594 374.628906 C 312.558594 377.238281 310.441406 379.351562 307.835938 379.351562 L 263.613281 379.351562 C 261.007812 379.351562 258.894531 377.238281 258.894531 374.628906 Z M 258.894531 451.933594 C 258.894531 449.328125 261.007812 447.214844 263.613281 447.214844 L 307.835938 447.214844 C 310.441406 447.214844 312.558594 449.328125 312.558594 451.933594 C 312.558594 454.539062 310.441406 456.65625 307.835938 456.65625 L 263.613281 456.65625 C 261.007812 456.65625 258.894531 454.539062 258.894531 451.933594 Z M 263.613281 495.308594 L 281.035156 495.308594 C 283.089844 502.523438 289.75 507.835938 297.632812 507.835938 C 305.5 507.835938 312.164062 502.523438 314.214844 495.308594 L 383.566406 495.308594 C 386.171875 495.308594 388.273438 493.191406 388.273438 490.585938 C 388.273438 487.980469 386.171875 485.867188 383.566406 485.867188 L 314.214844 485.867188 C 312.164062 478.625 305.511719 473.3125 297.632812 473.3125 C 289.75 473.3125 283.089844 478.625 281.035156 485.867188 L 263.613281 485.867188 C 261.007812 485.867188 258.894531 487.980469 258.894531 490.585938 C 258.894531 493.191406 261.007812 495.308594 263.613281 495.308594 Z M 297.632812 482.742188 C 301.933594 482.742188 305.449219 486.257812 305.449219 490.585938 C 305.449219 494.902344 301.933594 498.40625 297.632812 498.40625 C 293.316406 498.40625 289.8125 494.902344 289.8125 490.585938 C 289.8125 486.269531 293.316406 482.742188 297.632812 482.742188 Z M 263.613281 533.957031 L 332.953125 533.957031 C 335.019531 541.175781 341.667969 546.484375 349.550781 546.484375 C 357.429688 546.484375 364.105469 541.175781 366.15625 533.957031 L 383.566406 533.957031 C 386.171875 533.957031 388.273438 531.84375 388.273438 529.238281 C 388.273438 526.632812 386.171875 524.515625 383.566406 524.515625 L 366.15625 524.515625 C 364.105469 517.277344 357.441406 511.964844 349.550781 511.964844 C 341.65625 511.964844 335.019531 517.277344 332.953125 524.515625 L 263.613281 524.515625 C 261.007812 524.515625 258.894531 526.632812 258.894531 529.238281 C 258.894531 531.84375 261.007812 533.957031 263.613281 533.957031 Z M 349.550781 521.394531 C 353.875 521.394531 357.394531 524.910156 357.394531 529.238281 C 357.394531 533.554688 353.875 537.058594 349.550781 537.058594 C 345.222656 537.058594 341.730469 533.554688 341.730469 529.238281 C 341.730469 524.921875 345.234375 521.394531 349.550781 521.394531 Z M 546.375 485.867188 L 528.953125 485.867188 C 526.898438 478.625 520.238281 473.3125 512.355469 473.3125 C 504.488281 473.3125 497.824219 478.625 495.773438 485.867188 L 426.421875 485.867188 C 423.828125 485.867188 421.714844 487.980469 421.714844 490.585938 C 421.714844 493.191406 423.828125 495.308594 426.421875 495.308594 L 495.773438 495.308594 C 497.824219 502.523438 504.488281 507.835938 512.355469 507.835938 C 520.238281 507.835938 526.898438 502.523438 528.953125 495.308594 L 546.375 495.308594 C 548.980469 495.308594 551.09375 493.191406 551.09375 490.585938 C 551.09375 487.980469 548.980469 485.867188 546.375 485.867188 Z M 512.355469 498.40625 C 508.054688 498.40625 504.550781 494.902344 504.550781 490.585938 C 504.550781 486.269531 508.054688 482.742188 512.355469 482.742188 C 516.671875 482.742188 520.175781 486.257812 520.175781 490.585938 C 520.175781 494.902344 516.671875 498.40625 512.355469 498.40625 Z M 546.375 524.515625 L 477.035156 524.515625 C 474.972656 517.277344 468.320312 511.964844 460.441406 511.964844 C 452.558594 511.964844 445.882812 517.277344 443.832031 524.515625 L 426.421875 524.515625 C 423.828125 524.515625 421.714844 526.632812 421.714844 529.238281 C 421.714844 531.84375 423.828125 533.957031 426.421875 533.957031 L 443.832031 533.957031 C 445.894531 541.175781 452.558594 546.484375 460.441406 546.484375 C 468.332031 546.484375 474.972656 541.175781 477.035156 533.957031 L 546.375 533.957031 C 548.980469 533.957031 551.09375 531.84375 551.09375 529.238281 C 551.09375 526.632812 548.980469 524.515625 546.375 524.515625 Z M 460.441406 537.058594 C 456.113281 537.058594 452.597656 533.554688 452.597656 529.238281 C 452.597656 524.921875 456.113281 521.394531 460.441406 521.394531 C 464.765625 521.394531 468.257812 524.910156 468.257812 529.238281 C 468.257812 533.554688 464.753906 537.058594 460.441406 537.058594 Z M 460.441406 537.058594 " fill-opacity="1" fill-rule="nonzero"/></g></svg>