<svg xmlns="http://www.w3.org/2000/svg" xmlns:xlink="http://www.w3.org/1999/xlink" width="1080" zoomAndPan="magnify" viewBox="0 0 810 809.999993" height="1080" preserveAspectRatio="xMidYMid meet" version="1.0"><defs><clipPath id="7bd32c2d95"><path d="M 405 0 C 181.324219 0 0 181.324219 0 405 C 0 628.675781 181.324219 810 405 810 C 628.675781 810 810 628.675781 810 405 C 810 181.324219 628.675781 0 405 0 Z M 405 0 " clip-rule="nonzero"/></clipPath><clipPath id="7b026a03f7"><path d="M 205.800781 205.800781 L 604.050781 205.800781 L 604.050781 604.050781 L 205.800781 604.050781 Z M 205.800781 205.800781 " clip-rule="nonzero"/></clipPath></defs><g clip-path="url(#7bd32c2d95)"><path stroke-linecap="butt" transform="matrix(0.75, 0, 0, 0.75, 0.0000035, 0.00002)" fill="none" stroke-linejoin="miter" d="M 540.000023 -0.0000266667 C 241.765632 -0.0000266667 -0.00000466667 241.76561 -0.00000466667 540.000001 C -0.00000466667 838.234391 241.765632 1080.000028 540.000023 1080.000028 C 838.234413 1080.000028 1080.00005 838.234391 1080.00005 540.000001 C 1080.00005 241.76561 838.234413 -0.0000266667 540.000023 -0.0000266667 Z M 540.000023 -0.0000266667 " stroke="#ffffff" stroke-width="16" stroke-opacity="1" stroke-miterlimit="4"/></g><g clip-path="url(#7b026a03f7)"><path fill="#ffffff" d="M 244.621094 302.851562 L 261.316406 302.851562 L 261.316406 319.609375 L 244.621094 319.609375 C 242.851562 319.609375 241.34375 321.117188 241.34375 322.886719 L 241.34375 537.1875 C 241.34375 538.960938 242.851562 540.46875 244.621094 540.46875 L 565.371094 540.46875 C 567.140625 540.46875 568.648438 538.960938 568.648438 537.1875 L 568.648438 322.886719 C 568.648438 321.117188 567.140625 319.609375 565.371094 319.609375 L 548.675781 319.609375 L 548.675781 302.851562 L 565.371094 302.851562 C 576.390625 302.851562 585.402344 311.863281 585.402344 322.886719 L 585.402344 537.1875 C 585.402344 548.210938 576.390625 557.222656 565.371094 557.222656 L 244.621094 557.222656 C 233.617188 557.222656 224.585938 548.210938 224.585938 537.1875 L 224.585938 322.886719 C 224.585938 311.863281 233.617188 302.851562 244.621094 302.851562 Z M 539.703125 238.910156 L 581.140625 238.910156 L 581.140625 271.957031 L 539.703125 271.957031 L 539.703125 297.179688 L 476.542969 255.90625 L 539.703125 214.652344 Z M 312.851562 453.089844 L 271.414062 453.089844 L 271.414062 486.136719 L 312.851562 486.136719 L 312.851562 511.363281 L 376.011719 470.085938 L 312.851562 428.832031 Z M 477.527344 397.695312 C 483.019531 398.941406 488.167969 401.113281 492.816406 404.03125 L 510.316406 394.054688 L 514.378906 398.097656 L 518.441406 402.160156 L 508.464844 419.679688 C 511.363281 424.304688 513.535156 429.453125 514.78125 434.945312 L 534.230469 440.277344 L 534.230469 451.761719 L 514.78125 457.074219 C 513.535156 462.582031 511.363281 467.734375 508.464844 472.359375 L 518.441406 489.878906 L 514.378906 493.921875 L 510.316406 497.984375 L 492.816406 488.007812 C 488.167969 490.925781 483.019531 493.078125 477.527344 494.34375 L 472.199219 513.777344 L 460.734375 513.777344 L 455.402344 494.34375 C 449.910156 493.078125 444.761719 490.925781 440.136719 488.007812 L 422.617188 497.984375 L 418.554688 493.921875 L 414.488281 489.878906 L 424.488281 472.359375 C 421.570312 467.734375 419.398438 462.582031 418.152344 457.074219 L 398.71875 451.761719 L 398.71875 440.277344 L 418.152344 434.945312 C 419.398438 429.453125 421.570312 424.304688 424.488281 419.679688 L 414.488281 402.160156 L 418.554688 398.097656 L 422.617188 394.054688 L 440.117188 404.03125 C 444.761719 401.113281 449.910156 398.941406 455.402344 397.695312 L 460.734375 378.261719 L 472.199219 378.261719 Z M 466.464844 413.5625 C 484.386719 413.5625 498.929688 428.085938 498.929688 446.007812 C 498.929688 463.929688 484.386719 478.472656 466.464844 478.472656 C 448.542969 478.472656 434.019531 463.929688 434.019531 446.007812 C 434.019531 428.085938 448.542969 413.5625 466.464844 413.5625 Z M 388.78125 225.007812 C 399.203125 227.042969 408.898438 231.144531 417.40625 236.878906 L 426.679688 227.585938 C 429.050781 225.210938 432.933594 225.210938 435.308594 227.585938 L 448.039062 240.335938 C 450.414062 242.710938 450.414062 246.574219 448.039062 248.945312 L 438.769531 258.238281 C 444.480469 266.726562 448.582031 276.421875 450.617188 286.84375 L 463.730469 286.84375 C 467.089844 286.84375 469.824219 289.578125 469.824219 292.9375 L 469.824219 310.960938 C 469.824219 314.320312 467.089844 317.054688 463.730469 317.054688 L 450.617188 317.054688 C 448.582031 327.472656 444.480469 337.167969 438.769531 345.65625 L 448.039062 354.929688 C 450.414062 357.324219 450.414062 361.1875 448.039062 363.558594 L 435.308594 376.292969 C 432.933594 378.664062 429.050781 378.664062 426.679688 376.292969 L 417.40625 367.019531 C 408.898438 372.75 399.203125 376.855469 388.78125 378.886719 L 388.78125 392 C 388.78125 395.359375 386.046875 398.097656 382.6875 398.097656 L 364.6875 398.097656 C 361.328125 398.097656 358.570312 395.359375 358.570312 392 L 358.570312 378.886719 C 348.152344 376.855469 338.457031 372.75 329.96875 367.019531 L 320.695312 376.292969 C 318.320312 378.664062 314.4375 378.664062 312.066406 376.292969 L 299.332031 363.558594 C 296.960938 361.1875 296.960938 357.324219 299.332031 354.929688 L 308.605469 345.65625 C 302.875 337.167969 298.769531 327.472656 296.738281 317.054688 L 283.644531 317.054688 C 280.285156 317.054688 277.527344 314.320312 277.527344 310.960938 L 277.527344 292.9375 C 277.527344 289.578125 280.285156 286.84375 283.644531 286.84375 L 296.738281 286.84375 C 298.769531 276.421875 302.875 266.726562 308.605469 258.21875 L 299.332031 248.945312 C 296.960938 246.574219 296.960938 242.710938 299.332031 240.335938 L 312.066406 227.585938 C 314.4375 225.210938 318.320312 225.210938 320.695312 227.585938 L 329.96875 236.878906 C 338.476562 231.144531 348.152344 227.042969 358.570312 225.007812 L 358.570312 211.894531 C 358.570312 208.535156 361.328125 205.800781 364.6875 205.800781 L 382.6875 205.800781 C 386.046875 205.800781 388.78125 208.535156 388.78125 211.894531 Z M 373.675781 288.410156 C 381.160156 288.410156 387.214844 294.464844 387.214844 301.949219 C 387.214844 309.429688 381.160156 315.484375 373.675781 315.484375 C 366.214844 315.484375 360.140625 309.429688 360.140625 301.949219 C 360.140625 294.464844 366.214844 288.410156 373.675781 288.410156 Z M 373.675781 239.550781 C 408.152344 239.550781 436.09375 267.492188 436.09375 301.949219 C 436.09375 336.40625 408.152344 364.34375 373.675781 364.34375 C 339.21875 364.34375 311.28125 336.40625 311.28125 301.949219 C 311.28125 267.492188 339.21875 239.550781 373.675781 239.550781 Z M 205.800781 566.695312 L 353.90625 566.695312 L 353.90625 573.796875 L 456.105469 573.796875 L 456.105469 566.695312 L 604.191406 566.695312 L 604.191406 585.445312 C 604.191406 595.761719 595.339844 604.191406 584.519531 604.191406 L 225.472656 604.191406 C 214.652344 604.191406 205.800781 595.761719 205.800781 585.445312 Z M 205.800781 566.695312 " fill-opacity="1" fill-rule="evenodd"/></g></svg>