<svg xmlns="http://www.w3.org/2000/svg" xmlns:xlink="http://www.w3.org/1999/xlink" width="1080" zoomAndPan="magnify" viewBox="0 0 810 809.999993" height="1080" preserveAspectRatio="xMidYMid meet" version="1.0"><defs><clipPath id="757ae4de87"><path d="M 405 0 C 181.324219 0 0 181.324219 0 405 C 0 628.675781 181.324219 810 405 810 C 628.675781 810 810 628.675781 810 405 C 810 181.324219 628.675781 0 405 0 Z M 405 0 " clip-rule="nonzero"/></clipPath><clipPath id="0c3d357a58"><path d="M 203.054688 203.558594 L 607 203.558594 L 607 606.308594 L 203.054688 606.308594 Z M 203.054688 203.558594 " clip-rule="nonzero"/></clipPath></defs><g clip-path="url(#757ae4de87)"><path stroke-linecap="butt" transform="matrix(0.75, 0, 0, 0.75, 0.0000035, 0.00002)" fill="none" stroke-linejoin="miter" d="M 540.000023 -0.0000266667 C 241.765632 -0.0000266667 -0.00000466667 241.76561 -0.00000466667 540.000001 C -0.00000466667 838.234391 241.765632 1080.000028 540.000023 1080.000028 C 838.234413 1080.000028 1080.00005 838.234391 1080.00005 540.000001 C 1080.00005 241.76561 838.234413 -0.0000266667 540.000023 -0.0000266667 Z M 540.000023 -0.0000266667 " stroke="#ffffff" stroke-width="16" stroke-opacity="1" stroke-miterlimit="4"/></g><g clip-path="url(#0c3d357a58)"><path fill="#ffffff" d="M 594.363281 321.332031 C 593.59375 330.246094 593.023438 340.316406 592.460938 350.976562 C 590.296875 391.191406 587.566406 441.246094 572.054688 468.910156 C 563.246094 484.660156 552.734375 493.671875 540.523438 504.105469 C 533.363281 510.21875 525.996094 516.53125 518.523438 524.644531 C 496.007812 549.117188 492.300781 561.238281 491.886719 587.601562 C 491.785156 591.285156 488.746094 594.289062 485.035156 594.289062 L 411.152344 594.289062 L 411.152344 543.492188 C 411.152344 527.320312 417.796875 513.398438 430.371094 503.226562 L 490.753906 454.332031 C 495.132812 450.769531 501.625 451.449219 505.179688 455.847656 C 505.179688 455.851562 505.179688 455.851562 505.179688 455.851562 C 506.933594 457.980469 507.703125 460.65625 507.394531 463.402344 C 507.136719 466.140625 505.796875 468.597656 503.6875 470.320312 L 450.824219 513.125 C 448.195312 515.25 447.785156 519.089844 449.898438 521.710938 C 451.132812 523.203125 452.886719 523.976562 454.636719 523.976562 C 456.027344 523.976562 457.367188 523.523438 458.5 522.617188 L 511.363281 479.804688 C 516 476.039062 518.9375 470.671875 519.554688 464.679688 C 520.019531 460.613281 519.347656 456.601562 517.699219 453 L 538.71875 432.40625 C 548.148438 423.171875 554.074219 412.910156 557.269531 400.101562 L 577.621094 318.695312 C 578.546875 315.027344 581.691406 312.558594 585.449219 312.558594 L 586.273438 312.558594 C 588.59375 312.558594 590.707031 313.488281 592.25 315.160156 C 593.800781 316.839844 594.519531 319.03125 594.363281 321.332031 Z M 398.941406 594.289062 L 325.007812 594.289062 C 321.296875 594.289062 318.257812 591.285156 318.207031 587.601562 C 317.792969 561.238281 314.03125 549.109375 291.570312 524.644531 C 284.046875 516.53125 276.679688 510.21875 269.570312 504.105469 C 257.359375 493.671875 246.796875 484.660156 237.984375 468.910156 C 222.53125 441.246094 219.796875 391.191406 217.582031 350.976562 C 217.015625 340.316406 216.449219 330.246094 215.726562 321.332031 C 215.523438 319.03125 216.292969 316.839844 217.839844 315.160156 C 219.386719 313.488281 221.496094 312.558594 223.816406 312.558594 L 224.589844 312.558594 C 228.351562 312.558594 231.542969 315.027344 232.472656 318.695312 L 252.824219 400.101562 C 256.015625 412.910156 261.890625 423.171875 271.320312 432.40625 L 292.390625 453 C 290.742188 456.601562 290.074219 460.613281 290.484375 464.679688 C 291.15625 470.671875 294.039062 476.039062 298.730469 479.804688 L 351.589844 522.617188 C 352.722656 523.523438 354.0625 523.976562 355.402344 523.976562 C 357.207031 523.976562 358.957031 523.203125 360.144531 521.710938 C 362.308594 519.089844 361.894531 515.25 359.265625 513.125 L 306.355469 470.320312 C 301.972656 466.75 301.304688 460.261719 304.859375 455.851562 C 306.558594 453.742188 309.035156 452.410156 311.765625 452.117188 C 314.496094 451.835938 317.226562 452.613281 319.339844 454.332031 L 379.722656 503.226562 C 392.292969 513.398438 398.941406 527.320312 398.941406 543.492188 Z M 302.390625 258.617188 C 276.164062 284.316406 258.542969 319.664062 255.195312 359.265625 L 264.625 397.140625 C 267.148438 407.148438 271.628906 415.265625 278.742188 422.554688 C 282.8125 410.535156 291.621094 400.753906 302.957031 395.433594 C 297.445312 390.21875 293.992188 382.835938 293.992188 374.664062 C 293.992188 363.4375 300.484375 353.707031 309.914062 349.035156 C 313.261719 322.5625 321.917969 297.289062 335.261719 274.417969 C 323.566406 270.203125 312.539062 264.910156 302.390625 258.617188 Z M 364.78125 443.023438 L 364.78125 475.433594 L 387.402344 493.730469 C 395.128906 499.988281 401.054688 507.394531 405.023438 515.710938 C 409.039062 507.394531 414.914062 499.988281 422.695312 493.730469 L 445.261719 475.433594 L 445.261719 443.023438 C 445.261719 420.828125 427.226562 402.773438 405.023438 402.773438 C 382.867188 402.773438 364.78125 420.828125 364.78125 443.023438 Z M 398.941406 286.292969 C 381.0625 285.789062 363.597656 283.054688 347.160156 278.292969 C 334.640625 299.0625 326.296875 322.007812 322.636719 346.070312 C 338.351562 346.117188 351.128906 358.929688 351.128906 374.664062 C 351.128906 382.835938 347.675781 390.210938 342.164062 395.429688 C 350.304688 399.253906 357.207031 405.394531 361.949219 413.136719 C 367.460938 405.214844 375.140625 398.871094 384.050781 394.953125 C 377.25 389.058594 372.921875 380.367188 372.921875 370.683594 C 372.921875 355.070312 384.15625 342.03125 398.941406 339.175781 Z M 341.855469 263.835938 C 331.34375 260.199219 321.246094 255.617188 311.816406 250.074219 C 332.476562 232.90625 357.414062 221.28125 384.410156 217.316406 C 367.71875 230.828125 353.394531 246.527344 341.855469 263.835938 Z M 398.941406 221.527344 C 381.269531 234.621094 366.171875 250.203125 354.066406 267.570312 C 368.59375 271.460938 383.742188 273.636719 398.941406 274.09375 Z M 425.628906 217.316406 C 452.628906 221.28125 477.566406 232.90625 498.226562 250.074219 C 488.796875 255.617188 478.75 260.199219 468.238281 263.824219 C 456.648438 246.527344 442.324219 230.828125 425.628906 217.316406 Z M 411.152344 274.09375 C 426.351562 273.632812 441.5 271.460938 455.976562 267.570312 C 443.921875 250.203125 428.824219 234.621094 411.152344 221.523438 Z M 385.132812 370.679688 C 385.132812 381.644531 394.046875 390.570312 405.023438 390.570312 C 415.996094 390.570312 424.910156 381.644531 424.910156 370.679688 C 424.910156 359.71875 415.996094 350.796875 405.023438 350.796875 C 394.046875 350.800781 385.132812 359.71875 385.132812 370.679688 Z M 458.914062 374.664062 C 458.914062 358.929688 471.691406 346.117188 487.40625 346.070312 C 483.796875 322.007812 475.398438 299.0625 462.929688 278.292969 C 446.445312 283.050781 428.976562 285.789062 411.152344 286.292969 L 411.152344 339.175781 C 425.9375 342.03125 437.117188 355.070312 437.117188 370.679688 C 437.117188 380.367188 432.789062 389.058594 425.988281 394.953125 C 434.953125 398.871094 442.582031 405.210938 448.09375 413.136719 C 452.832031 405.390625 459.738281 399.25 467.878906 395.429688 C 462.367188 390.207031 458.914062 382.835938 458.914062 374.664062 Z M 487.507812 391.046875 C 496.523438 391.046875 503.894531 383.695312 503.894531 374.664062 C 503.894531 365.628906 496.523438 358.273438 487.507812 358.273438 C 478.492188 358.273438 471.125 365.625 471.125 374.664062 C 471.125 383.695312 478.492188 391.046875 487.507812 391.046875 Z M 306.203125 374.664062 C 306.203125 383.695312 313.519531 391.046875 322.585938 391.046875 C 331.601562 391.046875 338.917969 383.695312 338.917969 374.664062 C 338.917969 365.628906 331.601562 358.273438 322.585938 358.273438 C 313.519531 358.277344 306.203125 365.628906 306.203125 374.664062 Z M 300.277344 443.652344 C 303.316406 441.632812 306.769531 440.367188 310.476562 439.972656 C 316.507812 439.347656 322.328125 441.070312 327.015625 444.84375 L 352.574219 465.539062 L 352.574219 443.023438 C 352.574219 437.507812 353.449219 432.195312 355.046875 427.199219 C 350.613281 413.019531 337.527344 403.261719 322.585938 403.261719 C 305.53125 403.261719 291.210938 415.910156 288.890625 432.507812 Z M 509.765625 443.664062 L 521.152344 432.507812 C 518.832031 415.910156 504.5625 403.257812 487.507812 403.257812 C 472.566406 403.257812 459.429688 413.019531 455.050781 427.195312 C 456.648438 432.195312 457.472656 437.507812 457.472656 443.023438 L 457.472656 465.539062 L 483.078125 444.84375 C 490.910156 438.484375 501.78125 438.300781 509.765625 443.664062 Z M 554.898438 359.265625 C 551.5 319.664062 533.878906 284.316406 507.707031 258.617188 C 497.554688 264.902344 486.53125 270.203125 474.835938 274.417969 C 488.128906 297.289062 496.835938 322.558594 500.132812 349.03125 C 509.613281 353.703125 516.101562 363.4375 516.101562 374.664062 C 516.101562 382.835938 512.652344 390.21875 507.136719 395.433594 C 518.421875 400.753906 527.285156 410.535156 531.300781 422.5625 C 538.414062 415.261719 542.945312 407.148438 545.421875 397.136719 Z M 601.21875 306.890625 C 597.40625 302.734375 591.945312 300.347656 586.277344 300.347656 L 585.453125 300.347656 C 576.125 300.347656 568.035156 306.679688 565.769531 315.742188 L 562.265625 329.773438 C 554.433594 298.949219 538.359375 270.894531 515.535156 248.828125 C 485.394531 219.65625 446.136719 203.59375 405.023438 203.59375 C 363.90625 203.59375 324.648438 219.65625 294.507812 248.828125 C 271.683594 270.894531 255.660156 298.949219 247.828125 329.773438 L 244.273438 315.742188 C 242.058594 306.679688 233.917969 300.347656 224.589844 300.347656 L 223.820312 300.347656 C 218.101562 300.347656 212.691406 302.734375 208.828125 306.890625 C 205.011719 311.050781 203.109375 316.6875 203.570312 322.347656 C 204.292969 331.082031 204.859375 341.070312 205.425781 351.644531 C 207.691406 393.113281 210.476562 444.730469 227.375 474.863281 C 237.214844 492.519531 249.0625 502.65625 261.636719 513.382812 C 268.488281 519.261719 275.597656 525.328125 282.554688 532.917969 C 303.730469 555.941406 305.636719 565.171875 305.996094 587.785156 C 306.152344 598.105469 314.703125 606.5 325.007812 606.5 L 485.035156 606.5 C 495.390625 606.5 503.894531 598.105469 504.097656 587.796875 C 504.40625 565.183594 506.316406 555.941406 527.492188 532.921875 C 534.5 525.332031 541.609375 519.261719 548.460938 513.382812 C 560.980469 502.65625 572.828125 492.523438 582.722656 474.863281 C 599.570312 444.730469 602.402344 393.113281 604.671875 351.644531 C 605.238281 341.074219 605.753906 331.082031 606.527344 322.347656 C 606.988281 316.6875 605.03125 311.050781 601.21875 306.890625 Z M 601.21875 306.890625 " fill-opacity="1" fill-rule="evenodd"/></g></svg>