<svg xmlns="http://www.w3.org/2000/svg" xmlns:xlink="http://www.w3.org/1999/xlink" width="1080" zoomAndPan="magnify" viewBox="0 0 810 809.999993" height="1080" preserveAspectRatio="xMidYMid meet" version="1.0"><defs><clipPath id="cd18da933d"><path d="M 405 0 C 181.324219 0 0 181.324219 0 405 C 0 628.675781 181.324219 810 405 810 C 628.675781 810 810 628.675781 810 405 C 810 181.324219 628.675781 0 405 0 Z M 405 0 " clip-rule="nonzero"/></clipPath><clipPath id="7eb82c47cf"><path d="M 142.382812 161.957031 L 667.382812 161.957031 L 667.382812 594 L 142.382812 594 Z M 142.382812 161.957031 " clip-rule="nonzero"/></clipPath></defs><g clip-path="url(#cd18da933d)"><path stroke-linecap="butt" transform="matrix(0.75, 0, 0, 0.75, 0.0000035, 0.00002)" fill="none" stroke-linejoin="miter" d="M 540.000023 -0.0000266667 C 241.765632 -0.0000266667 -0.00000466667 241.76561 -0.00000466667 540.000001 C -0.00000466667 838.234391 241.765632 1080.000028 540.000023 1080.000028 C 838.234413 1080.000028 1080.00005 838.234391 1080.00005 540.000001 C 1080.00005 241.76561 838.234413 -0.0000266667 540.000023 -0.0000266667 Z M 540.000023 -0.0000266667 " stroke="#ffffff" stroke-width="16" stroke-opacity="1" stroke-miterlimit="4"/></g><g clip-path="url(#7eb82c47cf)"><path fill="#ffffff" d="M 639.8125 436.175781 C 633.332031 436.175781 628.0625 430.902344 628.0625 424.425781 C 628.0625 417.945312 633.332031 412.671875 639.8125 412.671875 C 646.289062 412.671875 651.566406 417.945312 651.566406 424.425781 C 651.566406 430.902344 646.289062 436.175781 639.8125 436.175781 Z M 604.351562 471.976562 C 601.691406 480.214844 598.433594 487.894531 594.667969 494.871094 C 599.390625 478.753906 600.933594 464.550781 599.269531 452.5625 C 598.773438 448.957031 595.878906 446.140625 592.246094 445.753906 L 572.644531 443.621094 C 574.121094 430.816406 574.097656 417.996094 572.644531 405.230469 L 592.246094 403.109375 C 595.878906 402.71875 598.773438 399.902344 599.269531 396.292969 C 600.933594 384.308594 599.390625 370.09375 594.667969 353.980469 C 597.246094 358.761719 599.59375 363.859375 601.636719 369.214844 C 607.460938 384.335938 611.21875 406.511719 611.019531 424.378906 C 610.871094 438.273438 608.738281 458.371094 604.351562 471.976562 Z M 513.613281 514.394531 C 478.425781 499.574219 442.300781 492.523438 403.941406 492.523438 C 408.289062 467.011719 423.484375 434.445312 435.527344 426.765625 C 453.710938 415.148438 478.078125 426.195312 495.925781 416.046875 C 513.078125 406.296875 513.476562 392.140625 513.761719 381.800781 C 514.042969 372.203125 514.503906 366.976562 521.636719 362.183594 C 526.320312 359.035156 533.257812 357.398438 542.285156 357.285156 C 567.992188 409.738281 561.601562 472.9375 524.738281 519.394531 C 521.070312 517.652344 517.363281 515.976562 513.613281 514.394531 Z M 405 530.027344 C 457.269531 530.027344 509.511719 539.484375 558.515625 557.640625 C 547.785156 549.882812 536.519531 543.003906 524.832031 537.019531 C 523.792969 536.753906 522.800781 536.253906 521.90625 535.550781 C 486.125 517.800781 446.410156 508.421875 404.996094 508.421875 C 363.59375 508.421875 323.871094 517.800781 288.085938 535.550781 C 287.210938 536.257812 286.226562 536.730469 285.191406 537.007812 C 273.496094 543 262.230469 549.882812 251.480469 557.644531 C 300.496094 539.484375 352.722656 530.027344 405 530.027344 Z M 252.167969 424.425781 C 252.167969 458.976562 263.882812 492.453125 285.265625 519.394531 C 317.441406 504.074219 352.246094 495.207031 387.753906 493.0625 C 391.847656 464.277344 408.792969 424.957031 426.96875 413.355469 C 449.734375 398.824219 475.839844 409.164062 488.0625 402.214844 C 497.429688 396.894531 497.59375 391.050781 497.867188 381.359375 C 498.128906 371.742188 498.496094 358.566406 512.765625 348.980469 C 518.355469 345.222656 525.238281 342.890625 533.589844 341.902344 C 520.773438 322 503.457031 305.257812 483.089844 293.097656 C 477.472656 307.140625 463.601562 319.996094 431.410156 319.15625 C 426.363281 319.203125 422.375 319.859375 419.5625 321.085938 C 415.03125 323.085938 413.945312 323.546875 418.488281 335.820312 C 421.59375 344.210938 425.464844 354.644531 420.164062 364.789062 C 415.894531 372.933594 406.96875 378.609375 392.125 382.597656 C 378.082031 391.238281 378.378906 398.554688 378.761719 407.765625 C 379.070312 415.457031 379.503906 426.015625 368.21875 433.261719 C 359.308594 438.628906 349.53125 440.578125 340.785156 436.183594 C 328.878906 430.203125 321.800781 414.347656 318.523438 386.304688 C 318.503906 386.105469 318.480469 385.902344 318.480469 385.703125 C 317.898438 371.019531 314.238281 361.5625 307.605469 357.582031 C 299.292969 352.621094 284.421875 354.941406 264.523438 364.25 C 256.570312 382.730469 252.167969 403.074219 252.167969 424.425781 Z M 217.757812 445.75 C 214.132812 446.140625 211.238281 448.953125 210.726562 452.558594 C 209.058594 464.550781 210.609375 478.75 215.332031 494.871094 C 212.75 490.097656 210.417969 484.984375 208.363281 479.640625 C 202.550781 464.515625 198.777344 442.34375 198.980469 424.464844 C 199.132812 410.585938 201.257812 390.472656 205.660156 376.878906 C 208.316406 368.644531 211.5625 360.960938 215.332031 353.980469 C 210.609375 370.089844 209.070312 384.304688 210.726562 396.289062 C 211.238281 399.902344 214.132812 402.714844 217.757812 403.105469 L 237.355469 405.230469 C 235.910156 418.050781 235.886719 430.761719 237.355469 443.617188 Z M 170.1875 436.175781 C 163.699219 436.175781 158.429688 430.902344 158.429688 424.425781 C 158.429688 417.945312 163.699219 412.671875 170.1875 412.671875 C 176.675781 412.671875 181.941406 417.945312 181.941406 424.425781 C 181.941406 430.902344 176.675781 436.175781 170.1875 436.175781 Z M 259.292969 278.777344 C 269.222656 269.0625 284.941406 256.351562 297.667969 249.84375 C 303.953125 246.628906 310.253906 243.960938 316.480469 241.847656 C 316.585938 242.128906 316.699219 242.417969 316.820312 242.691406 C 304.007812 250.171875 294.167969 258.371094 287.527344 267.160156 C 285.320312 270.0625 285.386719 274.105469 287.675781 276.941406 L 300.085938 292.367188 C 290.039062 300.351562 280.929688 309.464844 272.941406 319.503906 L 257.527344 307.101562 C 254.6875 304.808594 250.644531 304.746094 247.734375 306.953125 C 238.941406 313.585938 230.746094 323.433594 223.273438 336.238281 C 223 336.125 222.710938 336.003906 222.421875 335.90625 C 223.714844 332.085938 225.210938 328.246094 226.90625 324.433594 C 233.492188 309.613281 246.503906 291.269531 259.292969 278.777344 Z M 230.652344 250.078125 C 226.070312 254.65625 226.070312 262.117188 230.652344 266.695312 C 235.230469 271.277344 242.691406 271.277344 247.273438 266.695312 C 251.851562 262.117188 251.851562 254.65625 247.273438 250.078125 C 242.691406 245.496094 235.230469 245.496094 230.652344 250.078125 Z M 349.789062 227.789062 C 364.914062 221.976562 387.066406 218.191406 404.960938 218.398438 C 418.847656 218.558594 438.945312 220.683594 452.550781 225.082031 C 460.792969 227.742188 468.46875 230.984375 475.453125 234.753906 C 459.328125 230.035156 445.125 228.484375 433.136719 230.148438 C 429.527344 230.660156 426.722656 233.554688 426.328125 237.171875 L 424.195312 256.78125 C 411.28125 255.328125 398.71875 255.328125 385.804688 256.78125 L 383.683594 237.171875 C 383.292969 233.554688 380.476562 230.660156 376.867188 230.148438 C 364.882812 228.488281 350.675781 230.035156 334.5625 234.753906 C 339.332031 232.179688 344.433594 229.839844 349.789062 227.789062 Z M 405 177.859375 C 411.480469 177.859375 416.746094 183.128906 416.746094 189.609375 C 416.746094 196.085938 411.480469 201.371094 405 201.371094 C 398.519531 201.371094 393.25 196.089844 393.25 189.609375 C 393.25 183.125 398.519531 177.859375 405 177.859375 Z M 304.1875 272.097656 L 312.988281 283.046875 C 330.125 271.863281 349.417969 263.699219 370.085938 259.328125 L 368.566406 245.421875 C 358.667969 245.1875 346.878906 247.3125 333.453125 251.777344 C 320.828125 258.109375 311.003906 264.925781 304.1875 272.097656 Z M 232.347656 352.882812 C 238.679688 340.257812 245.496094 330.429688 252.667969 323.613281 L 263.621094 332.414062 C 252.433594 349.550781 244.269531 368.847656 239.902344 389.515625 L 226.007812 387.996094 C 225.753906 378.089844 227.886719 366.304688 232.347656 352.882812 Z M 403.578125 341.347656 C 399.933594 331.496094 393.820312 315.015625 413.175781 306.53125 C 417.894531 304.457031 424.542969 303.15625 431.714844 303.253906 C 457.535156 303.964844 465.914062 294.714844 468.921875 285.613281 C 399.160156 253.363281 316.839844 278.308594 275.925781 342.667969 C 292.605469 337.5 305.75 337.945312 315.769531 343.929688 C 327.257812 350.804688 333.507812 364.550781 334.359375 384.761719 C 337.816406 413.925781 344.996094 420.484375 347.925781 421.960938 C 350.746094 423.386719 354.734375 422.644531 359.78125 419.769531 C 362.9375 417.691406 363.171875 415.820312 362.863281 408.410156 C 362.425781 397.933594 361.785156 382.089844 384.945312 368.359375 C 385.589844 367.976562 386.28125 367.6875 387.011719 367.492188 C 400.171875 364.101562 404.636719 360.148438 406.058594 357.414062 C 408.097656 353.539062 405.898438 347.613281 403.578125 341.347656 Z M 482.378906 274.503906 C 487.40625 277.109375 492.285156 279.964844 497.003906 283.046875 L 505.816406 272.097656 C 498.988281 264.925781 489.175781 258.109375 476.550781 251.777344 C 463.113281 247.3125 451.324219 245.1875 441.425781 245.421875 L 439.917969 259.328125 C 454.386719 262.378906 468.183594 267.296875 481.03125 273.8125 C 481.503906 274 481.957031 274.234375 482.378906 274.503906 Z M 550.660156 278.710938 C 560.367188 288.652344 573.074219 304.367188 579.582031 317.09375 C 582.804688 323.378906 585.464844 329.679688 587.578125 335.90625 C 587.289062 336.007812 587.011719 336.128906 586.738281 336.242188 C 579.257812 323.433594 571.050781 313.585938 562.269531 306.953125 C 559.355469 304.75 555.324219 304.808594 552.484375 307.101562 L 537.0625 319.507812 C 529.066406 309.46875 519.960938 300.351562 509.925781 292.371094 L 522.332031 276.941406 C 524.609375 274.105469 524.679688 270.066406 522.480469 267.164062 C 515.832031 258.371094 506 250.171875 493.191406 242.695312 C 493.304688 242.417969 493.425781 242.132812 493.519531 241.851562 C 497.332031 243.144531 501.175781 244.640625 505 246.335938 C 519.804688 252.921875 538.15625 265.929688 550.660156 278.710938 Z M 562.722656 250.078125 C 558.144531 254.65625 558.144531 262.117188 562.722656 266.695312 C 567.324219 271.292969 574.738281 271.308594 579.347656 266.695312 C 586.792969 259.234375 581.367188 246.628906 571.042969 246.628906 C 567.90625 246.628906 564.957031 247.859375 562.722656 250.078125 Z M 546.382812 332.414062 C 557.570312 349.550781 565.738281 368.847656 570.097656 389.515625 L 584.003906 387.992188 C 584.242188 378.085938 582.113281 366.304688 577.65625 352.882812 C 571.316406 340.253906 564.507812 330.429688 557.328125 323.613281 Z M 639.8125 396.765625 C 634.542969 396.765625 629.597656 398.253906 625.402344 400.828125 C 623.652344 387.421875 620.515625 373.964844 616.496094 363.511719 C 613.476562 355.683594 609.925781 348.296875 605.917969 341.574219 L 605.65625 340.933594 C 603.054688 330.679688 599.046875 320.222656 593.742188 309.847656 C 589.597656 301.730469 583.628906 293.113281 577.476562 285.296875 C 598.359375 280.289062 605.910156 254.128906 590.597656 238.828125 C 575.253906 223.492188 549.164062 231.050781 544.164062 251.890625 C 533.449219 243.652344 521.714844 236.355469 511.472656 231.804688 C 503.804688 228.40625 496.085938 225.699219 488.492188 223.773438 L 487.839844 223.511719 C 468.703125 212.335938 451.308594 206.796875 428.5625 204.082031 C 439.777344 185.882812 426.71875 161.949219 404.996094 161.949219 C 383.363281 161.949219 370.207031 185.75 381.398438 204.023438 C 367.996094 205.773438 354.539062 208.921875 344.082031 212.9375 C 336.257812 215.941406 328.878906 219.507812 322.152344 223.5 L 321.515625 223.777344 C 311.261719 226.371094 300.792969 230.378906 290.421875 235.6875 C 282.308594 239.835938 273.679688 245.804688 265.851562 251.972656 C 260.957031 231.152344 234.746094 223.476562 219.398438 238.828125 C 204.125 254.109375 211.621094 280.273438 232.46875 285.265625 C 207.949219 317.15625 205.421875 339.566406 204.078125 341.578125 C 198.667969 350.664062 194.105469 360.898438 190.519531 371.996094 C 187.710938 380.65625 185.835938 390.992188 184.65625 400.871094 C 166.386719 389.613281 142.527344 402.753906 142.527344 424.425781 C 142.527344 446.132812 166.421875 459.1875 184.609375 448.019531 C 187.480469 470.132812 193.355469 489.382812 204.078125 507.273438 C 206.53125 511.363281 212.238281 513.902344 217.011719 513.902344 C 227.761719 513.902344 234.75 503.148438 232.527344 496.542969 C 227.9375 482.871094 225.75 470.90625 225.992188 460.855469 L 239.917969 459.347656 C 245.085938 483.726562 255.59375 506.777344 270.824219 526.730469 C 245.339844 540.675781 222.261719 558.535156 201.972656 580.042969 C 195.90625 586.476562 203.488281 596.613281 211.382812 592.578125 C 332.617188 530.570312 477.378906 530.570312 598.613281 592.578125 C 606.425781 596.597656 614.171875 586.550781 608.027344 580.042969 C 587.742188 558.535156 564.652344 540.675781 539.171875 526.730469 C 554.398438 506.777344 564.921875 483.726562 570.082031 459.347656 L 584.003906 460.855469 C 584.25 470.90625 582.070312 482.871094 577.472656 496.542969 C 575.246094 503.160156 582.253906 513.902344 592.984375 513.902344 C 597.75 513.902344 603.558594 511.3125 605.917969 507.273438 C 617.0625 488.175781 622.636719 470.683594 625.347656 447.992188 C 643.554688 459.210938 667.46875 446.136719 667.46875 424.429688 C 667.46875 409.171875 655.066406 396.765625 639.8125 396.765625 Z M 639.8125 396.765625 " fill-opacity="1" fill-rule="evenodd"/></g></svg>